<svg width="437" height="156" viewBox="0 0 437 156" fill="none" xmlns="http://www.w3.org/2000/svg">
<g clip-path="url(#clip0_284_174)">
<mask id="mask0_284_174" style="mask-type:luminance" maskUnits="userSpaceOnUse" x="-388" y="-258" width="731" height="516">
<path d="M-387.927 -257.356H342.979V257.321H-387.927V-257.356Z" fill="white"/>
</mask>
<g mask="url(#mask0_284_174)">
<path d="M5.08564 77.6581C5.08564 58.2375 12.7907 40.5859 25.2967 27.5374L127.634 130.89C127.23 131.264 126.824 131.639 126.41 132.005C126.208 132.184 126 132.358 125.796 132.535C124.868 133.338 123.919 134.116 122.951 134.872C122.697 135.069 122.449 135.271 122.193 135.465C121.719 135.825 121.236 136.175 120.753 136.523C120.401 136.777 120.046 137.029 119.69 137.277C119.226 137.6 118.762 137.92 118.29 138.233C117.827 138.539 117.357 138.833 116.887 139.129C116.232 139.542 115.569 139.944 114.9 140.336C114.379 140.64 113.858 140.944 113.329 141.236C112.913 141.466 112.493 141.69 112.071 141.912C111.535 142.195 110.995 142.47 110.451 142.74C110.065 142.931 109.681 143.125 109.292 143.309C108.41 143.728 107.52 144.132 106.619 144.515C106.323 144.641 106.022 144.756 105.724 144.879C105.033 145.161 104.338 145.437 103.637 145.699C103.275 145.835 102.912 145.966 102.548 146.096C101.821 146.355 101.089 146.602 100.351 146.838C100.072 146.928 99.7938 147.024 99.5125 147.11C98.5132 147.417 97.5044 147.702 96.4878 147.967C96.2204 148.037 95.9495 148.098 95.6812 148.165C94.879 148.364 94.0734 148.551 93.2616 148.723C92.9395 148.791 92.6174 148.858 92.2945 148.922C91.3699 149.105 90.4401 149.272 89.5042 149.42C89.3566 149.443 89.2107 149.471 89.0631 149.494C87.9771 149.658 86.8823 149.795 85.7814 149.911C85.5045 149.94 85.2258 149.962 84.9489 149.988C84.085 150.069 83.2169 150.135 82.3443 150.186C82.0431 150.204 81.7427 150.223 81.4406 150.237C80.3163 150.288 79.1877 150.322 78.0504 150.322C37.8175 150.322 5.08564 117.725 5.08564 77.6581ZM140.471 134.036C139.66 134.036 138.888 134.194 138.177 134.472L134.693 131.002C134.7 130.994 134.708 130.985 134.715 130.977C147.931 117.055 156.048 98.2839 156.048 77.6589H151.015C151.015 88.309 148.683 98.4205 144.532 107.544C143.113 110.661 141.48 113.662 139.651 116.529C139.628 116.564 139.605 116.6 139.581 116.636C138.234 118.739 136.78 120.769 135.228 122.719C135.179 122.78 135.13 122.844 135.081 122.905C134.584 123.525 134.077 124.136 133.561 124.74C133.485 124.829 133.406 124.917 133.33 125.006C132.614 125.833 131.876 126.639 131.125 127.434L28.8024 24.0964C41.7911 12.2419 59.0851 4.99396 78.0504 4.99396L78.0512 -0.0172254C57.7117 -0.0172254 39.1736 7.78576 25.2733 20.5325L21.6348 16.858C21.8171 16.2752 21.9204 15.6588 21.9204 15.0164C21.9204 11.5571 19.1049 8.75238 15.6305 8.75238C12.1569 8.75238 9.34056 11.5571 9.34056 15.0164C9.34056 18.4765 12.1569 21.2812 15.6305 21.2812C16.4413 21.2812 17.2131 21.123 17.9251 20.8446L21.409 24.3151C8.17981 38.2394 0.0537109 57.021 0.0537109 77.6581C0.0537109 120.488 35.0428 155.334 78.0504 155.334C79.2788 155.334 80.5004 155.302 81.7141 155.246C81.7861 155.243 81.859 155.241 81.9311 155.237C83.0988 155.18 84.2587 155.094 85.4125 154.986C85.5262 154.975 85.6408 154.967 85.7554 154.956C86.8806 154.845 87.9979 154.707 89.1083 154.55C89.2446 154.53 89.3809 154.513 89.5163 154.493C90.6128 154.331 91.7007 154.145 92.7807 153.939C92.9239 153.911 93.0672 153.884 93.2095 153.857C94.2852 153.645 95.3531 153.41 96.4122 153.155C96.552 153.121 96.6909 153.087 96.8298 153.053C97.8942 152.79 98.9499 152.505 99.9969 152.198C100.119 152.163 100.241 152.127 100.363 152.09C101.426 151.774 102.479 151.437 103.522 151.077C103.616 151.044 103.711 151.01 103.806 150.977C104.874 150.603 105.933 150.21 106.98 149.791C107.034 149.77 107.089 149.746 107.145 149.725C108.229 149.289 109.302 148.831 110.362 148.348C110.363 148.348 110.364 148.348 110.364 148.348C115.832 145.859 120.962 142.757 125.668 139.133C125.673 139.129 125.679 139.125 125.684 139.121C126.618 138.402 127.534 137.662 128.432 136.903C128.443 136.893 128.455 136.884 128.466 136.874C129.362 136.117 130.241 135.34 131.101 134.542C131.107 134.538 131.112 134.533 131.117 134.529L134.619 138.016C134.34 138.724 134.181 139.493 134.181 140.3C134.181 143.759 136.998 146.564 140.471 146.564C143.945 146.564 146.761 143.759 146.761 140.3C146.761 136.841 143.945 134.036 140.471 134.036Z" fill="#003D58"/>
</g>
<mask id="mask1_284_174" style="mask-type:luminance" maskUnits="userSpaceOnUse" x="-388" y="-258" width="731" height="516">
<path d="M-387.927 -257.356H342.979V257.321H-387.927V-257.356Z" fill="white"/>
</mask>
<g mask="url(#mask1_284_174)">
<path d="M73.8633 77.6587H90.2414V140.13C86.2903 140.891 82.2134 141.302 78.0383 141.302C76.6336 141.302 75.2445 141.241 73.8633 141.153V96.8476V77.6587Z" fill="#ED1D24"/>
<path d="M100.197 58.1495V17.9492C124.569 26.9229 141.945 50.2678 141.945 77.6582C141.945 98.3921 131.985 116.804 116.575 128.424V58.1495H100.197Z" fill="#0092C8"/>
<path d="M52.0257 19.5281V96.848V135.789C29.6998 125.865 14.1309 103.58 14.1309 77.6583C14.1309 51.7377 29.6998 29.4519 52.0257 19.5281Z" fill="#0092C8"/>
<path d="M90.2414 58.1497V77.6584H73.8633V14.1651C75.2445 14.0761 76.6336 14.0147 78.0383 14.0147C85.8293 14.0147 93.293 15.4076 100.197 17.9495V58.1497H90.2414Z" fill="#003D58"/>
<path d="M73.8629 96.848V141.152C66.1266 140.655 58.7697 138.787 52.0249 135.789V96.848H73.8629Z" fill="white"/>
<path d="M73.8629 77.6586V96.8474H52.0249V19.5283C58.7697 16.5299 66.1266 14.6624 73.8629 14.1644V77.6586Z" fill="#FEDA00"/>
<path d="M90.2412 58.1499H100.197H116.575V128.424C108.95 134.173 99.9908 138.251 90.2412 140.13V77.6586V58.1499Z" fill="white"/>
</g>
<ellipse cx="77.8805" cy="78.2528" rx="57.9928" ry="59.0596" fill="white"/>
<path d="M67.5982 35.1488V63.6518H73.6148L89.7199 35.1488H117.129L91.7862 74.6519L117.494 117.801H89.4768L73.6756 88.4476H67.5982V117.801H44.6864V35.1488H67.5982Z" fill="#003D58"/>
<path d="M96.0435 41.3748L114.9 37.1749L98.381 62.7396L106.164 42.4638L96.0435 41.3748Z" fill="#FE0000"/>
<path d="M151 54H156V78H151V54Z" fill="#003D58"/>
</g>
<rect x="151" y="54" width="183" height="5" fill="#003D58"/>
<path d="M169.349 68.712H191.13C193.812 68.712 196.276 69.1469 198.523 70.0166C200.77 70.8864 202.703 72.1066 204.322 73.677C205.965 75.2233 207.233 77.0716 208.127 79.2219C209.045 81.3481 209.504 83.6796 209.504 86.2165C209.504 88.9708 209.045 91.4714 208.127 93.7184C207.233 95.9412 205.977 97.8378 204.358 99.4083C202.763 100.979 200.855 102.199 198.632 103.069C196.409 103.914 193.969 104.337 191.311 104.337H183.012V118H169.349V68.712ZM190.514 92.2325C191.239 92.2325 191.915 92.0755 192.543 91.7614C193.196 91.4473 193.763 91.0245 194.247 90.4929C194.754 89.9372 195.141 89.297 195.406 88.5721C195.696 87.8473 195.841 87.0621 195.841 86.2165C195.841 85.5883 195.696 84.9601 195.406 84.3319C195.141 83.6796 194.766 83.0997 194.283 82.5923C193.8 82.0608 193.232 81.638 192.58 81.3239C191.951 80.9857 191.275 80.8165 190.55 80.8165H183.012V92.2325H190.514ZM238.533 119.196C234.813 119.196 231.309 118.519 228.023 117.166C224.738 115.813 221.875 113.965 219.434 111.622C216.994 109.278 215.061 106.536 213.636 103.395C212.234 100.23 211.534 96.8593 211.534 93.2835C211.534 89.6835 212.234 86.3252 213.636 83.2084C215.061 80.0675 216.994 77.3253 219.434 74.9817C221.875 72.6381 224.738 70.8019 228.023 69.473C231.309 68.12 234.813 67.4435 238.533 67.4435C242.254 67.4435 245.745 68.12 249.007 69.473C252.293 70.8019 255.156 72.6381 257.596 74.9817C260.061 77.3253 261.994 80.0675 263.395 83.2084C264.82 86.3252 265.533 89.6835 265.533 93.2835C265.533 96.8593 264.82 100.23 263.395 103.395C261.994 106.536 260.061 109.278 257.596 111.622C255.156 113.965 252.293 115.813 249.007 117.166C245.745 118.519 242.254 119.196 238.533 119.196ZM238.533 106.729C240.394 106.729 242.133 106.403 243.752 105.75C245.395 105.098 246.821 104.18 248.029 102.996C249.237 101.812 250.179 100.399 250.855 98.7559C251.556 97.113 251.906 95.3009 251.906 93.3197C251.906 91.3386 251.556 89.5265 250.855 87.8836C250.179 86.2406 249.237 84.8272 248.029 83.6433C246.821 82.4595 245.395 81.5413 243.752 80.889C242.133 80.2367 240.394 79.9105 238.533 79.9105C236.673 79.9105 234.921 80.2367 233.278 80.889C231.66 81.5413 230.246 82.4595 229.038 83.6433C227.83 84.8272 226.876 86.2406 226.175 87.8836C225.499 89.5265 225.16 91.3386 225.16 93.3197C225.16 95.3009 225.511 97.113 226.211 98.7559C226.912 100.399 227.866 101.812 229.074 102.996C230.282 104.18 231.696 105.098 233.315 105.75C234.958 106.403 236.697 106.729 238.533 106.729ZM275.558 83.6096C274.544 83.6096 273.642 83.4576 272.851 83.1535C272.061 82.8494 271.392 82.4339 270.844 81.9068C270.317 81.3798 269.912 80.7615 269.628 80.052C269.344 79.3425 269.202 78.5924 269.202 77.8019C269.202 77.0113 269.334 76.2612 269.598 75.5517C269.882 74.8422 270.297 74.224 270.844 73.6969C271.392 73.1699 272.061 72.7543 272.851 72.4502C273.642 72.1461 274.554 71.9941 275.588 71.9941C276.642 71.9941 277.564 72.1461 278.355 72.4502C279.166 72.7543 279.845 73.1699 280.392 73.6969C280.94 74.224 281.345 74.8422 281.609 75.5517C281.892 76.2612 282.034 77.0113 282.034 77.8019C282.034 78.6127 281.892 79.3729 281.609 80.0824C281.345 80.7919 280.94 81.4102 280.392 81.9372C279.845 82.444 279.166 82.8494 278.355 83.1535C277.544 83.4576 276.612 83.6096 275.558 83.6096ZM270.023 86.2854H281.152V118H270.023V86.2854ZM288.542 68.712H300.538L321.087 95.8566V68.712H334.713V118H322.863L302.205 90.7466V118H288.542V68.712ZM353.233 80.8165H340.222V68.712H379.797V80.8165H366.823V118H353.233V80.8165Z" fill="#0092C8"/>
<path d="M172.656 15.3388L165.91 17.7236L165.879 7.49412L174.759 4.29348H184.486V47H172.656V15.3388ZM199.868 40.5987L212.231 29.3965C213.654 28.0995 214.888 26.928 215.934 25.8821C217.001 24.8152 217.89 23.832 218.601 22.9325C219.312 22.012 219.835 21.1439 220.17 20.328C220.526 19.5122 220.704 18.7068 220.704 17.9119C220.704 16.845 220.358 15.9455 219.668 15.2133C218.999 14.4811 217.974 14.115 216.593 14.115C215.903 14.115 215.244 14.2092 214.616 14.3974C213.989 14.5857 213.424 14.9623 212.922 15.5271C212.441 16.0919 212.054 16.8868 211.761 17.9119C211.489 18.9369 211.353 20.2862 211.353 21.9597H199.68C199.68 20.5791 199.784 19.167 199.994 17.7236C200.203 16.2593 200.548 14.8368 201.029 13.4561C201.531 12.0754 202.19 10.768 203.006 9.53374C203.822 8.29951 204.847 7.22217 206.081 6.30172C207.315 5.38128 208.769 4.65957 210.443 4.13659C212.116 3.59269 214.062 3.32074 216.279 3.32074C219.02 3.32074 221.404 3.7182 223.434 4.51313C225.463 5.28714 227.147 6.34356 228.486 7.68239C229.845 9.02122 230.86 10.5797 231.529 12.3578C232.199 14.115 232.533 15.9664 232.533 17.9119C232.533 20.5477 231.885 23.0266 230.588 25.3486C229.291 27.6498 227.408 29.8358 224.94 31.9068L217.534 38.0884L222.429 36.896H233.506V47H199.868V40.5987ZM262.632 3.28936C265.247 3.28936 267.59 3.68682 269.661 4.48175C271.753 5.25576 273.52 6.3331 274.964 7.71377C276.407 9.07352 277.505 10.6738 278.259 12.5147C279.033 14.3347 279.42 16.2906 279.42 18.3826C279.42 19.5331 279.336 20.6 279.169 21.5832C279.001 22.5664 278.719 23.5705 278.321 24.5956C277.945 25.6206 277.432 26.7188 276.784 27.8903C276.156 29.0409 275.382 30.3588 274.462 31.844L265.048 47H251.461L261.251 32.0323C260.54 32.3043 259.892 32.4402 259.306 32.4402C257.59 32.4402 255.917 32.1055 254.285 31.4361C252.674 30.7667 251.241 29.8149 249.986 28.5807C248.731 27.3464 247.717 25.8716 246.943 24.1562C246.189 22.42 245.813 20.4954 245.813 18.3826C245.813 16.2906 246.2 14.3347 246.974 12.5147C247.748 10.6738 248.857 9.07352 250.3 7.71377C251.743 6.3331 253.501 5.25576 255.572 4.48175C257.664 3.68682 260.017 3.28936 262.632 3.28936ZM262.569 13.9581C261.251 13.9581 260.237 14.3347 259.525 15.0878C258.814 15.8409 258.459 16.8868 258.459 18.2257C258.459 19.5854 258.814 20.6523 259.525 21.4263C260.237 22.1794 261.251 22.5559 262.569 22.5559C263.908 22.5559 264.943 22.1794 265.676 21.4263C266.429 20.6523 266.805 19.5854 266.805 18.2257C266.805 16.8868 266.429 15.8409 265.676 15.0878C264.943 14.3347 263.908 13.9581 262.569 13.9581ZM308.702 48.0983C305.941 48.0983 303.493 47.7426 301.36 47.0314C299.247 46.341 297.469 45.3892 296.025 44.1759C294.603 42.9417 293.525 41.4878 292.793 39.8143C292.061 38.1407 291.695 36.3208 291.695 34.3544C291.695 32.8482 291.894 31.5093 292.291 30.3379C292.689 29.1455 293.201 28.1204 293.829 27.2627C294.456 26.3841 295.157 25.6729 295.931 25.129C296.705 24.5642 297.469 24.1667 298.222 23.9366C297.615 23.7065 297.019 23.3195 296.433 22.7756C295.847 22.2108 295.324 21.5518 294.864 20.7987C294.425 20.0456 294.059 19.2193 293.766 18.3198C293.494 17.3994 293.358 16.4894 293.358 15.5898C293.358 13.4979 293.766 11.678 294.582 10.1299C295.419 8.58191 296.538 7.29538 297.939 6.27034C299.341 5.2453 300.962 4.48175 302.803 3.97969C304.665 3.47763 306.631 3.2266 308.702 3.2266C310.857 3.2266 312.855 3.47763 314.696 3.97969C316.557 4.48175 318.168 5.2453 319.528 6.27034C320.909 7.27447 321.986 8.55054 322.76 10.0986C323.555 11.6466 323.952 13.4665 323.952 15.5585C323.952 16.4789 323.806 17.3994 323.513 18.3198C323.241 19.2402 322.875 20.0875 322.415 20.8615C321.975 21.6355 321.452 22.3049 320.846 22.8697C320.26 23.4136 319.653 23.7797 319.026 23.968C319.821 24.1772 320.605 24.5642 321.379 25.129C322.174 25.6729 322.885 26.3841 323.513 27.2627C324.141 28.1204 324.643 29.1455 325.019 30.3379C325.417 31.5093 325.615 32.8482 325.615 34.3544C325.615 36.3208 325.239 38.1407 324.486 39.8143C323.754 41.4878 322.666 42.9417 321.222 44.1759C319.8 45.3892 318.032 46.341 315.919 47.0314C313.827 47.7426 311.422 48.0983 308.702 48.0983ZM308.639 19.7005C309.225 19.7005 309.748 19.6063 310.208 19.4181C310.69 19.2089 311.087 18.9369 311.401 18.6022C311.736 18.2675 311.987 17.891 312.154 17.4726C312.321 17.0542 312.405 16.6149 312.405 16.1547C312.405 15.7154 312.311 15.2865 312.123 14.8681C311.955 14.4497 311.704 14.0837 311.369 13.7699C311.056 13.4352 310.669 13.1737 310.208 12.9854C309.748 12.7762 309.225 12.6716 308.639 12.6716C308.054 12.6716 307.52 12.7762 307.039 12.9854C306.558 13.1737 306.15 13.4352 305.815 13.7699C305.481 14.0837 305.219 14.4497 305.031 14.8681C304.864 15.2865 304.78 15.7154 304.78 16.1547C304.78 16.6149 304.864 17.0542 305.031 17.4726C305.219 17.891 305.481 18.2675 305.815 18.6022C306.15 18.9369 306.558 19.2089 307.039 19.4181C307.52 19.6063 308.054 19.7005 308.639 19.7005ZM308.639 38.5905C309.393 38.5905 310.093 38.4754 310.742 38.2453C311.411 38.0152 311.987 37.691 312.468 37.2726C312.97 36.8333 313.367 36.3312 313.66 35.7664C313.953 35.1807 314.099 34.5426 314.099 33.8523C314.099 33.141 313.953 32.503 313.66 31.9382C313.367 31.3524 312.97 30.8608 312.468 30.4634C311.987 30.045 311.411 29.7312 310.742 29.522C310.093 29.2919 309.393 29.1769 308.639 29.1769C307.886 29.1769 307.175 29.2919 306.506 29.522C305.857 29.7312 305.282 30.045 304.78 30.4634C304.299 30.8608 303.912 31.3524 303.619 31.9382C303.326 32.503 303.18 33.141 303.18 33.8523C303.18 34.5426 303.326 35.1807 303.619 35.7664C303.912 36.3312 304.299 36.8333 304.78 37.2726C305.282 37.691 305.857 38.0152 306.506 38.2453C307.175 38.4754 307.886 38.5905 308.639 38.5905Z" fill="#FE0000"/>
<defs>
<clipPath id="clip0_284_174">
<rect width="156" height="156" fill="white"/>
</clipPath>
</defs>
</svg>
