<svg width="70" height="70" viewBox="0 0 70 70" fill="none" xmlns="http://www.w3.org/2000/svg">
<path d="M25.1177 33.0633H25.1184C27.011 33.0617 28.8204 32.2875 30.1508 30.9191C31.4804 29.5515 32.2237 27.7024 32.2252 25.7789V25.7782V8.39322V8.39252C32.2237 6.46903 31.4804 4.61989 30.1508 3.25233C28.8204 1.88393 27.011 1.10969 25.1184 1.10811H25.1177L8.21563 1.10811L8.21489 1.10811C6.32229 1.10969 4.51291 1.88393 3.18251 3.25233C1.85295 4.61989 1.10963 6.46903 1.10811 8.39252V8.39322L1.10811 25.7782L1.10811 25.7789C1.10963 27.7024 1.85295 29.5515 3.18251 30.9191C4.51291 32.2875 6.32229 33.0617 8.21489 33.0633H8.21563H25.1177ZM5.89195 5.96711C6.51286 5.32845 7.34923 4.9739 8.2162 4.97268H25.1171C25.9841 4.9739 26.8205 5.32845 27.4414 5.96711C28.0633 6.60675 28.4174 7.47917 28.4185 8.39427V25.7772C28.4174 26.6923 28.0633 27.5647 27.4414 28.2043C26.8203 28.8431 25.9838 29.1977 25.1166 29.1987H8.21673C7.34958 29.1977 6.51299 28.8431 5.89195 28.2043L5.25246 28.826L5.89195 28.2043C5.27021 27.5648 4.9161 26.6926 4.91488 25.7777V8.39369C4.9161 7.47881 5.27021 6.60661 5.89195 5.96711Z" fill="#003D58" stroke="#003D58" stroke-width="1.78378"/>
<path d="M61.7844 33.0633H61.7852C63.6778 33.0617 65.4872 32.2875 66.8176 30.9191C68.1471 29.5515 68.8905 27.7024 68.892 25.7789V25.7782V8.39322V8.39252C68.8905 6.46903 68.1471 4.61989 66.8176 3.25233C65.4872 1.88393 63.6778 1.10969 61.7852 1.10811H61.7844L44.8824 1.10811L44.8816 1.10811C42.989 1.10969 41.1797 1.88393 39.8493 3.25233C38.5197 4.61989 37.7764 6.46903 37.7749 8.39252V8.39322L37.7749 25.7782L37.7749 25.7789C37.7764 27.7024 38.5197 29.5515 39.8493 30.9191C41.1797 32.2875 42.989 33.0617 44.8816 33.0633H44.8824H61.7844ZM42.5587 5.96711C43.1796 5.32845 44.016 4.9739 44.8829 4.97268H61.7839C62.6508 4.9739 63.4872 5.32845 64.1081 5.96711C64.73 6.60675 65.0841 7.47917 65.0852 8.39426V25.7772C65.0841 26.6923 64.73 27.5647 64.1081 28.2043C63.4871 28.8431 62.6505 29.1977 61.7833 29.1987H44.8835C44.0163 29.1977 43.1797 28.8431 42.5587 28.2043C41.937 27.5648 41.5828 26.6926 41.5816 25.7777V8.39369C41.5828 7.47881 41.937 6.60661 42.5587 5.96711Z" fill="#003D58" stroke="#003D58" stroke-width="1.78378"/>
<path d="M25.1177 68.8922H25.1184C27.011 68.8906 28.8204 68.1164 30.1508 66.748C31.4804 65.3804 32.2237 63.5313 32.2252 61.6078V61.6071V44.2221V44.2214C32.2237 42.2979 31.4804 40.4487 30.1508 39.0812C28.8204 37.7128 27.011 36.9385 25.1184 36.937H25.1177L8.21563 36.937L8.21489 36.937C6.32229 36.9385 4.5129 37.7128 3.18251 39.0812C1.85295 40.4487 1.10963 42.2979 1.10811 44.2214V44.2221L1.10811 61.6071L1.10811 61.6078C1.10963 63.5313 1.85295 65.3804 3.18251 66.748C4.51291 68.1164 6.32229 68.8906 8.21489 68.8922H8.21563H25.1177ZM5.89195 41.796C6.51286 41.1573 7.34923 40.8028 8.2162 40.8015H25.1171C25.9841 40.8028 26.8205 41.1573 27.4414 41.796C28.0633 42.4356 28.4174 43.308 28.4185 44.2231V61.606C28.4174 62.5211 28.0633 63.3935 27.4414 64.0332C26.8203 64.672 25.9838 65.0265 25.1166 65.0276H8.21673C7.34958 65.0265 6.51299 64.672 5.89195 64.0332L5.25246 64.6549L5.89195 64.0332C5.27021 63.3937 4.9161 62.5215 4.91488 61.6066V44.2226C4.9161 43.3077 5.27021 42.4355 5.89195 41.796Z" fill="#003D58" stroke="#003D58" stroke-width="1.78378"/>
<path d="M61.7844 68.8922H61.7852C63.6778 68.8906 65.4872 68.1164 66.8176 66.748C68.1471 65.3804 68.8905 63.5313 68.892 61.6078V61.6071V44.2221V44.2214C68.8905 42.2979 68.1471 40.4487 66.8176 39.0812C65.4872 37.7128 63.6778 36.9385 61.7852 36.937H61.7844L44.8824 36.937L44.8816 36.937C42.989 36.9385 41.1797 37.7128 39.8493 39.0812C38.5197 40.4487 37.7764 42.2979 37.7749 44.2214V44.2221L37.7749 61.6071L37.7749 61.6078C37.7764 63.5313 38.5197 65.3804 39.8493 66.7479L40.4887 66.1262L39.8493 66.748C41.1797 68.1164 42.989 68.8906 44.8816 68.8922H44.8824H61.7844ZM42.5587 41.796C43.1796 41.1573 44.016 40.8028 44.8829 40.8015H61.7839C62.6508 40.8028 63.4872 41.1573 64.1081 41.796C64.73 42.4356 65.0841 43.308 65.0852 44.2231V61.606C65.0841 62.5211 64.73 63.3935 64.1081 64.0332C63.4871 64.672 62.6505 65.0265 61.7833 65.0276H44.8835C44.0163 65.0265 43.1797 64.672 42.5587 64.0332L41.9192 64.6549L42.5587 64.0332C41.937 63.3937 41.5828 62.5215 41.5816 61.6066V44.2226C41.5828 43.3077 41.937 42.4355 42.5587 41.796Z" fill="#003D58" stroke="#003D58" stroke-width="1.78378"/>
</svg>
