<svg width="55" height="60" viewBox="0 0 55 60" fill="none" xmlns="http://www.w3.org/2000/svg">
<path d="M27.5 49.0909C28.0439 49.0909 28.5756 48.931 29.0278 48.6313C29.4801 48.3316 29.8325 47.9057 30.0407 47.4073C30.2488 46.909 30.3033 46.3606 30.1972 45.8316C30.0911 45.3025 29.8291 44.8166 29.4445 44.4352C29.0599 44.0537 28.5699 43.794 28.0365 43.6888C27.503 43.5835 26.9501 43.6375 26.4476 43.844C25.9451 44.0504 25.5156 44.3999 25.2135 44.8484C24.9113 45.2969 24.75 45.8242 24.75 46.3636C24.75 47.087 25.0397 47.7806 25.5555 48.2921C26.0712 48.8036 26.7707 49.0909 27.5 49.0909ZM41.25 49.0909C41.7939 49.0909 42.3256 48.931 42.7778 48.6313C43.2301 48.3316 43.5825 47.9057 43.7907 47.4073C43.9988 46.909 44.0533 46.3606 43.9472 45.8316C43.841 45.3025 43.5791 44.8166 43.1945 44.4352C42.81 44.0537 42.32 43.794 41.7865 43.6888C41.2531 43.5835 40.7001 43.6375 40.1976 43.844C39.6951 44.0504 39.2656 44.3999 38.9635 44.8484C38.6613 45.2969 38.5 45.8242 38.5 46.3636C38.5 47.087 38.7897 47.7806 39.3055 48.2921C39.8212 48.8036 40.5207 49.0909 41.25 49.0909ZM41.25 38.1818C41.7939 38.1818 42.3256 38.0219 42.7778 37.7222C43.2301 37.4225 43.5825 36.9966 43.7907 36.4982C43.9988 35.9999 44.0533 35.4515 43.9472 34.9225C43.841 34.3934 43.5791 33.9075 43.1945 33.5261C42.81 33.1447 42.32 32.8849 41.7865 32.7797C41.2531 32.6744 40.7001 32.7285 40.1976 32.9349C39.6951 33.1413 39.2656 33.4909 38.9635 33.9394C38.6613 34.3879 38.5 34.9151 38.5 35.4545C38.5 36.1779 38.7897 36.8716 39.3055 37.383C39.8212 37.8945 40.5207 38.1818 41.25 38.1818ZM27.5 38.1818C28.0439 38.1818 28.5756 38.0219 29.0278 37.7222C29.4801 37.4225 29.8325 36.9966 30.0407 36.4982C30.2488 35.9999 30.3033 35.4515 30.1972 34.9225C30.0911 34.3934 29.8291 33.9075 29.4445 33.5261C29.0599 33.1447 28.5699 32.8849 28.0365 32.7797C27.503 32.6744 26.9501 32.7285 26.4476 32.9349C25.9451 33.1413 25.5156 33.4909 25.2135 33.9394C24.9113 34.3879 24.75 34.9151 24.75 35.4545C24.75 36.1779 25.0397 36.8716 25.5555 37.383C26.0712 37.8945 26.7707 38.1818 27.5 38.1818ZM46.75 5.45455H44V2.72727C44 2.00396 43.7103 1.31026 43.1945 0.7988C42.6788 0.287337 41.9793 0 41.25 0C40.5207 0 39.8212 0.287337 39.3055 0.7988C38.7897 1.31026 38.5 2.00396 38.5 2.72727V5.45455H16.5V2.72727C16.5 2.00396 16.2103 1.31026 15.6945 0.7988C15.1788 0.287337 14.4793 0 13.75 0C13.0207 0 12.3212 0.287337 11.8055 0.7988C11.2897 1.31026 11 2.00396 11 2.72727V5.45455H8.25C6.06196 5.45455 3.96354 6.31656 2.41637 7.85094C0.869194 9.38533 0 11.4664 0 13.6364V51.8182C0 53.9881 0.869194 56.0692 2.41637 57.6036C3.96354 59.138 6.06196 60 8.25 60H46.75C48.938 60 51.0365 59.138 52.5836 57.6036C54.1308 56.0692 55 53.9881 55 51.8182V13.6364C55 11.4664 54.1308 9.38533 52.5836 7.85094C51.0365 6.31656 48.938 5.45455 46.75 5.45455ZM49.5 51.8182C49.5 52.5415 49.2103 53.2352 48.6945 53.7467C48.1788 54.2581 47.4793 54.5455 46.75 54.5455H8.25C7.52065 54.5455 6.82118 54.2581 6.30546 53.7467C5.78973 53.2352 5.5 52.5415 5.5 51.8182V27.2727H49.5V51.8182ZM49.5 21.8182H5.5V13.6364C5.5 12.913 5.78973 12.2194 6.30546 11.7079C6.82118 11.1964 7.52065 10.9091 8.25 10.9091H11V13.6364C11 14.3597 11.2897 15.0534 11.8055 15.5648C12.3212 16.0763 13.0207 16.3636 13.75 16.3636C14.4793 16.3636 15.1788 16.0763 15.6945 15.5648C16.2103 15.0534 16.5 14.3597 16.5 13.6364V10.9091H38.5V13.6364C38.5 14.3597 38.7897 15.0534 39.3055 15.5648C39.8212 16.0763 40.5207 16.3636 41.25 16.3636C41.9793 16.3636 42.6788 16.0763 43.1945 15.5648C43.7103 15.0534 44 14.3597 44 13.6364V10.9091H46.75C47.4793 10.9091 48.1788 11.1964 48.6945 11.7079C49.2103 12.2194 49.5 12.913 49.5 13.6364V21.8182ZM13.75 38.1818C14.2939 38.1818 14.8256 38.0219 15.2778 37.7222C15.7301 37.4225 16.0825 36.9966 16.2907 36.4982C16.4988 35.9999 16.5533 35.4515 16.4472 34.9225C16.3411 34.3934 16.0791 33.9075 15.6945 33.5261C15.3099 33.1447 14.8199 32.8849 14.2865 32.7797C13.7531 32.6744 13.2001 32.7285 12.6976 32.9349C12.1951 33.1413 11.7656 33.4909 11.4635 33.9394C11.1613 34.3879 11 34.9151 11 35.4545C11 36.1779 11.2897 36.8716 11.8055 37.383C12.3212 37.8945 13.0207 38.1818 13.75 38.1818ZM13.75 49.0909C14.2939 49.0909 14.8256 48.931 15.2778 48.6313C15.7301 48.3316 16.0825 47.9057 16.2907 47.4073C16.4988 46.909 16.5533 46.3606 16.4472 45.8316C16.3411 45.3025 16.0791 44.8166 15.6945 44.4352C15.3099 44.0537 14.8199 43.794 14.2865 43.6888C13.7531 43.5835 13.2001 43.6375 12.6976 43.844C12.1951 44.0504 11.7656 44.3999 11.4635 44.8484C11.1613 45.2969 11 45.8242 11 46.3636C11 47.087 11.2897 47.7806 11.8055 48.2921C12.3212 48.8036 13.0207 49.0909 13.75 49.0909Z" fill="#003D58"/>
</svg>
