<svg width="15" height="14" viewBox="0 0 15 14" fill="none" xmlns="http://www.w3.org/2000/svg">
<g clip-path="url(#clip0_565_668)">
<path d="M7.50017 0.583282C6.23107 0.583282 4.99047 0.959613 3.93526 1.66469C2.88004 2.36976 2.0576 3.3719 1.57194 4.5444C1.08628 5.71689 0.959205 7.00707 1.20679 8.25178C1.45438 9.49649 2.06551 10.6398 2.9629 11.5372C3.86028 12.4346 5.00362 13.0457 6.24834 13.2933C7.49305 13.5409 8.78323 13.4138 9.95572 12.9282C11.1282 12.4425 12.1304 11.6201 12.8354 10.5649C13.5405 9.50964 13.9168 8.26905 13.9168 6.99995C13.9148 5.29876 13.2381 3.66782 12.0352 2.4649C10.8323 1.26197 9.20136 0.585289 7.50017 0.583282ZM7.50017 12.25C6.46181 12.25 5.44678 11.942 4.58342 11.3652C3.72006 10.7883 3.04716 9.96835 2.6498 9.00904C2.25244 8.04973 2.14847 6.99413 2.35104 5.97573C2.55362 4.95732 3.05363 4.02186 3.78785 3.28764C4.52208 2.55341 5.45754 2.0534 6.47594 1.85083C7.49434 1.64825 8.54994 1.75222 9.50925 2.14958C10.4686 2.54694 11.2885 3.21985 11.8654 4.08321C12.4423 4.94656 12.7502 5.9616 12.7502 6.99995C12.7485 8.39181 12.1948 9.72619 11.2106 10.7104C10.2264 11.6946 8.89203 12.2483 7.50017 12.25ZM10.8468 5.14728C10.8985 5.20374 10.9387 5.26984 10.9649 5.34182C10.9912 5.4138 11.003 5.49024 10.9997 5.56678C10.9964 5.64332 10.978 5.71846 10.9457 5.78791C10.9133 5.85735 10.8676 5.91975 10.8112 5.97153L7.31117 9.17987C7.20035 9.28148 7.05459 9.33638 6.90428 9.33312C6.75397 9.32986 6.61072 9.26869 6.50442 9.16237L4.75442 7.41237C4.64504 7.30291 4.58362 7.15448 4.58367 6.99974C4.58373 6.845 4.64525 6.69662 4.75471 6.58724C4.86416 6.47786 5.01259 6.41644 5.16733 6.4165C5.32207 6.41655 5.47045 6.47808 5.57983 6.58753L6.93492 7.94262L10.0231 5.1117C10.1371 5.00729 10.2878 4.95239 10.4423 4.95906C10.5967 4.96573 10.7422 5.03343 10.8468 5.14728Z" fill="white"/>
</g>
<defs>
<clipPath id="clip0_565_668">
<rect width="14" height="14" fill="white" transform="translate(0.5 -6.10352e-05)"/>
</clipPath>
</defs>
</svg>
