<svg width="314" height="295" viewBox="0 0 314 295" fill="none" xmlns="http://www.w3.org/2000/svg">
<path d="M132.849 10.1186V106.37H153.166L207.552 10.1186H300.11L214.53 143.517L301.341 289.229H206.731L153.372 190.103H132.849V289.229H55.4779V10.1186H132.849Z" fill="#003D58"/>
<path d="M229.649 29.029L293.564 14.9204L237.572 100.8L263.952 32.6876L229.649 29.029Z" fill="#FE0000"/>
<rect x="0.772461" y="106.286" width="281.6" height="93.2571" fill="white"/>
<path d="M30.2918 122.091H59.0836C62.6287 122.091 65.8864 122.666 68.8566 123.815C71.8268 124.965 74.3818 126.578 76.5217 128.654C78.6934 130.698 80.3702 133.141 81.5519 135.984C82.7655 138.794 83.3723 141.876 83.3723 145.23C83.3723 148.87 82.7655 152.176 81.5519 155.146C80.3702 158.084 78.7094 160.592 76.5696 162.668C74.4617 164.744 71.9386 166.356 69.0003 167.506C66.062 168.624 62.8363 169.183 59.3232 169.183H48.3526V187.244H30.2918V122.091ZM58.2692 153.182C59.2274 153.182 60.1216 152.974 60.952 152.559C61.8143 152.144 62.5649 151.585 63.2036 150.883C63.8743 150.148 64.3853 149.302 64.7366 148.343C65.1199 147.385 65.3115 146.347 65.3115 145.23C65.3115 144.399 65.1199 143.569 64.7366 142.738C64.3853 141.876 63.8903 141.11 63.2515 140.439C62.6128 139.736 61.8622 139.177 60.9999 138.762C60.1695 138.315 59.2753 138.091 58.3171 138.091H48.3526V153.182H58.2692ZM121.746 188.825C116.827 188.825 112.196 187.93 107.853 186.142C103.509 184.353 99.7244 181.91 96.4987 178.812C93.273 175.714 90.718 172.089 88.8337 167.937C86.9813 163.753 86.0551 159.298 86.0551 154.571C86.0551 149.813 86.9813 145.373 88.8337 141.253C90.718 137.101 93.273 133.476 96.4987 130.378C99.7244 127.281 103.509 124.853 107.853 123.097C112.196 121.308 116.827 120.414 121.746 120.414C126.664 120.414 131.279 121.308 135.591 123.097C139.934 124.853 143.719 127.281 146.944 130.378C150.202 133.476 152.757 137.101 154.609 141.253C156.494 145.373 157.436 149.813 157.436 154.571C157.436 159.298 156.494 163.753 154.609 167.937C152.757 172.089 150.202 175.714 146.944 178.812C143.719 181.91 139.934 184.353 135.591 186.142C131.279 187.93 126.664 188.825 121.746 188.825ZM121.746 172.345C124.205 172.345 126.504 171.914 128.644 171.051C130.816 170.189 132.7 168.975 134.297 167.41C135.894 165.845 137.14 163.977 138.034 161.805C138.96 159.633 139.423 157.238 139.423 154.619C139.423 152 138.96 149.605 138.034 147.433C137.14 145.261 135.894 143.393 134.297 141.828C132.7 140.263 130.816 139.05 128.644 138.187C126.504 137.325 124.205 136.894 121.746 136.894C119.286 136.894 116.971 137.325 114.799 138.187C112.659 139.05 110.791 140.263 109.194 141.828C107.597 143.393 106.336 145.261 105.409 147.433C104.515 149.605 104.068 152 104.068 154.619C104.068 157.238 104.531 159.633 105.457 161.805C106.383 163.977 107.645 165.845 109.242 167.41C110.839 168.975 112.707 170.189 114.847 171.051C117.019 171.914 119.318 172.345 121.746 172.345ZM170.687 141.784C169.347 141.784 168.155 141.583 167.11 141.181C166.065 140.779 165.18 140.229 164.457 139.533C163.76 138.836 163.224 138.019 162.849 137.081C162.474 136.143 162.286 135.151 162.286 134.106C162.286 133.061 162.461 132.07 162.809 131.132C163.184 130.194 163.733 129.377 164.457 128.68C165.18 127.983 166.065 127.434 167.11 127.032C168.155 126.63 169.361 126.429 170.727 126.429C172.121 126.429 173.34 126.63 174.385 127.032C175.457 127.434 176.355 127.983 177.078 128.68C177.802 129.377 178.337 130.194 178.686 131.132C179.061 132.07 179.249 133.061 179.249 134.106C179.249 135.178 179.061 136.183 178.686 137.121C178.337 138.059 177.802 138.876 177.078 139.573C176.355 140.243 175.457 140.779 174.385 141.181C173.313 141.583 172.081 141.784 170.687 141.784ZM163.372 145.321H178.083V187.244H163.372V145.321ZM187.851 122.091H203.708L230.871 157.973V122.091H248.884V187.244H233.219L205.912 151.218V187.244H187.851V122.091ZM273.364 138.091H256.166V122.091H308.48V138.091H291.329V187.244H273.364V138.091Z" fill="#0092C8"/>
</svg>
