<svg width="55" height="60" viewBox="0 0 55 60" fill="none" xmlns="http://www.w3.org/2000/svg">
<path d="M51.9444 18.0502L33.6112 2.28906C31.9305 0.814956 29.7549 0 27.5001 0C25.2453 0 23.0696 0.814956 21.389 2.28906L3.05582 18.0502C2.08529 18.9014 1.31081 19.9456 0.783948 21.1133C0.257088 22.2809 -0.0100605 23.5453 0.000289647 24.8221V51.0108C0.000289647 53.3949 0.966054 55.6813 2.68513 57.3671C4.4042 59.0529 6.73576 60 9.16689 60H45.8333C48.2644 60 50.596 59.0529 52.3151 57.3671C54.0341 55.6813 54.9999 53.3949 54.9999 51.0108V24.7921C55.0059 23.5203 54.7367 22.2618 54.2099 21.0996C53.6832 19.9374 52.911 18.8981 51.9444 18.0502ZM33.6112 54.0072H21.389V39.0251C21.389 38.2304 21.7109 37.4683 22.284 36.9063C22.857 36.3444 23.6342 36.0287 24.4446 36.0287H30.5556C31.366 36.0287 32.1432 36.3444 32.7162 36.9063C33.2892 37.4683 33.6112 38.2304 33.6112 39.0251V54.0072ZM48.8888 51.0108C48.8888 51.8055 48.5669 52.5676 47.9939 53.1295C47.4209 53.6915 46.6437 54.0072 45.8333 54.0072H39.7222V39.0251C39.7222 36.641 38.7565 34.3546 37.0374 32.6687C35.3183 30.9829 32.9868 30.0359 30.5556 30.0359H24.4446C22.0134 30.0359 19.6819 30.9829 17.9628 32.6687C16.2437 34.3546 15.278 36.641 15.278 39.0251V54.0072H9.16689C8.35651 54.0072 7.57933 53.6915 7.0063 53.1295C6.43328 52.5676 6.11136 51.8055 6.11136 51.0108V24.7921C6.11191 24.3667 6.20484 23.9462 6.38396 23.5587C6.56309 23.1713 6.82431 22.8256 7.15024 22.5448L25.4834 6.81364C26.041 6.33326 26.7579 6.06833 27.5001 6.06833C28.2423 6.06833 28.9591 6.33326 29.5167 6.81364L47.8499 22.5448C48.1759 22.8256 48.4371 23.1713 48.6162 23.5587C48.7953 23.9462 48.8883 24.3667 48.8888 24.7921V51.0108Z" fill="#003D58"/>
</svg>
