<svg width="394" height="398" viewBox="0 0 394 398" fill="none" xmlns="http://www.w3.org/2000/svg">
<ellipse cx="197.086" cy="198.915" rx="196.571" ry="198.4" fill="white"/>
<path d="M161.849 56.1186V152.37H182.166L236.552 56.1186H329.11L243.53 189.517L330.341 335.229H235.731L182.372 236.103H161.849V335.229H84.4779V56.1186H161.849Z" fill="#003D58"/>
<path d="M258.649 75.029L322.564 60.9204L266.572 146.8L292.952 78.6876L258.649 75.029Z" fill="#FE0000"/>
<rect x="30" y="152" width="330" height="94" fill="white"/>
<path d="M60.6604 168.091H89.4523C92.9974 168.091 96.255 168.666 99.2253 169.815C102.195 170.965 104.75 172.578 106.89 174.654C109.062 176.698 110.739 179.141 111.921 181.984C113.134 184.794 113.741 187.876 113.741 191.23C113.741 194.87 113.134 198.176 111.921 201.146C110.739 204.084 109.078 206.592 106.938 208.668C104.83 210.744 102.307 212.356 99.369 213.506C96.4307 214.624 93.205 215.183 89.6918 215.183H78.7212V233.244H60.6604V168.091ZM88.6379 199.182C89.596 199.182 90.4903 198.974 91.3207 198.559C92.183 198.144 92.9335 197.585 93.5723 196.883C94.243 196.148 94.754 195.302 95.1053 194.343C95.4885 193.385 95.6802 192.347 95.6802 191.23C95.6802 190.399 95.4885 189.569 95.1053 188.738C94.754 187.876 94.2589 187.11 93.6202 186.439C92.9814 185.736 92.2309 185.177 91.3686 184.762C90.5382 184.315 89.6439 184.091 88.6858 184.091H78.7212V199.182H88.6379ZM152.114 234.825C147.196 234.825 142.565 233.93 138.221 232.142C133.878 230.353 130.093 227.91 126.867 224.812C123.642 221.714 121.087 218.089 119.202 213.937C117.35 209.753 116.424 205.298 116.424 200.571C116.424 195.813 117.35 191.373 119.202 187.253C121.087 183.101 123.642 179.476 126.867 176.378C130.093 173.281 133.878 170.853 138.221 169.097C142.565 167.308 147.196 166.414 152.114 166.414C157.033 166.414 161.648 167.308 165.959 169.097C170.303 170.853 174.087 173.281 177.313 176.378C180.571 179.476 183.126 183.101 184.978 187.253C186.862 191.373 187.805 195.813 187.805 200.571C187.805 205.298 186.862 209.753 184.978 213.937C183.126 218.089 180.571 221.714 177.313 224.812C174.087 227.91 170.303 230.353 165.959 232.142C161.648 233.93 157.033 234.825 152.114 234.825ZM152.114 218.345C154.573 218.345 156.873 217.914 159.013 217.051C161.184 216.189 163.069 214.975 164.666 213.41C166.263 211.845 167.508 209.977 168.402 207.805C169.329 205.633 169.792 203.238 169.792 200.619C169.792 198 169.329 195.605 168.402 193.433C167.508 191.261 166.263 189.393 164.666 187.828C163.069 186.263 161.184 185.05 159.013 184.187C156.873 183.325 154.573 182.894 152.114 182.894C149.655 182.894 147.339 183.325 145.168 184.187C143.028 185.05 141.16 186.263 139.563 187.828C137.966 189.393 136.704 191.261 135.778 193.433C134.884 195.605 134.437 198 134.437 200.619C134.437 203.238 134.9 205.633 135.826 207.805C136.752 209.977 138.014 211.845 139.611 213.41C141.207 214.975 143.076 216.189 145.216 217.051C147.387 217.914 149.687 218.345 152.114 218.345ZM201.056 187.784C199.716 187.784 198.523 187.583 197.478 187.181C196.433 186.779 195.549 186.229 194.826 185.533C194.129 184.836 193.593 184.019 193.218 183.081C192.843 182.143 192.655 181.151 192.655 180.106C192.655 179.061 192.829 178.07 193.178 177.132C193.553 176.194 194.102 175.377 194.826 174.68C195.549 173.983 196.433 173.434 197.478 173.032C198.523 172.63 199.729 172.429 201.096 172.429C202.489 172.429 203.709 172.63 204.754 173.032C205.825 173.434 206.723 173.983 207.447 174.68C208.17 175.377 208.706 176.194 209.054 177.132C209.43 178.07 209.617 179.061 209.617 180.106C209.617 181.178 209.43 182.183 209.054 183.121C208.706 184.059 208.17 184.876 207.447 185.573C206.723 186.243 205.825 186.779 204.754 187.181C203.682 187.583 202.449 187.784 201.056 187.784ZM193.74 191.321H208.452V233.244H193.74V191.321ZM218.22 168.091H234.077L261.24 203.973V168.091H279.253V233.244H263.587L236.281 197.218V233.244H218.22V168.091ZM303.733 184.091H286.535V168.091H338.849V184.091H321.698V233.244H303.733V184.091Z" fill="#0092C8"/>
</svg>
