<svg width="170" height="96" viewBox="0 0 170 96" fill="none" xmlns="http://www.w3.org/2000/svg">
<g clip-path="url(#clip0_114_2)">
<mask id="mask0_114_2" style="mask-type:luminance" maskUnits="userSpaceOnUse" x="-239" y="-157" width="450" height="314">
<path d="M-238.521 -156.859H210.98V156.837H-238.521V-156.859Z" fill="white"/>
</mask>
<g mask="url(#mask0_114_2)">
<path d="M3.17907 47.3324C3.17907 35.4956 7.9176 24.7369 15.6087 16.7839L78.5454 79.777C78.2966 80.0051 78.0473 80.2338 77.7926 80.4568C77.6682 80.5658 77.5406 80.6723 77.4151 80.7798C76.8444 81.2693 76.2603 81.7436 75.6649 82.2042C75.509 82.3243 75.3564 82.4477 75.1988 82.5657C74.9073 82.7854 74.6105 82.9983 74.3136 83.2107C74.0968 83.3656 73.879 83.519 73.6596 83.6702C73.3744 83.8668 73.0888 84.0623 72.7989 84.2525C72.5143 84.4391 72.2249 84.6188 71.9361 84.799C71.533 85.0504 71.1256 85.2954 70.7139 85.5347C70.3936 85.7201 70.0732 85.9051 69.7481 86.0832C69.4918 86.2234 69.2334 86.3599 68.9739 86.4953C68.6445 86.6676 68.3124 86.8352 67.9781 86.9996C67.7405 87.1161 67.5045 87.2347 67.2648 87.3469C66.7223 87.602 66.1756 87.8481 65.6214 88.0815C65.4393 88.1584 65.2541 88.2285 65.0709 88.3034C64.6459 88.4757 64.2183 88.6438 63.7874 88.8035C63.5647 88.8862 63.3416 88.9663 63.1179 89.0453C62.6704 89.2034 62.2203 89.3536 61.7665 89.4975C61.5946 89.5523 61.4237 89.6108 61.2507 89.6635C60.6362 89.8505 60.0158 90.0244 59.3906 90.1857C59.2261 90.2284 59.0595 90.2658 58.8946 90.3064C58.4012 90.4276 57.9057 90.5414 57.4065 90.6463C57.2084 90.6879 57.0104 90.729 56.8117 90.768C56.2431 90.8792 55.6713 90.9809 55.0957 91.071C55.005 91.0852 54.9153 91.1026 54.8245 91.1163C54.1566 91.2165 53.4833 91.2997 52.8063 91.3703C52.636 91.3882 52.4646 91.4019 52.2943 91.4178C51.763 91.4668 51.2291 91.5073 50.6925 91.5384C50.5072 91.549 50.3225 91.5606 50.1367 91.569C49.4453 91.6001 48.7512 91.6212 48.0517 91.6212C23.3089 91.6212 3.17907 71.7533 3.17907 47.3324ZM86.44 81.6946C85.9413 81.6946 85.4666 81.791 85.0294 81.9602L82.8862 79.8455C82.891 79.8407 82.8958 79.8355 82.9001 79.8302C91.0279 71.3449 96.0195 59.9038 96.0195 47.3329H92.9244C92.9244 53.8241 91.4903 59.9871 88.9376 65.5477C88.0647 67.4479 87.0604 69.2771 85.9354 71.024C85.9215 71.0456 85.9071 71.0677 85.8927 71.0893C85.0641 72.3714 84.1697 73.6088 83.2156 74.7971C83.1852 74.8345 83.1553 74.873 83.1249 74.9104C82.8195 75.2882 82.5077 75.6608 82.1905 76.0286C82.1435 76.0829 82.0949 76.1366 82.048 76.1909C81.608 76.6952 81.1542 77.1864 80.6923 77.6707L17.7647 14.6865C25.7526 7.4612 36.3883 3.0436 48.0517 3.0436L48.0523 -0.0107193C35.5436 -0.0107193 24.1429 4.74519 15.5943 12.5143L13.3566 10.2747C13.4687 9.91953 13.5323 9.54379 13.5323 9.15226C13.5323 7.04385 11.8008 5.33435 9.66404 5.33435C7.52783 5.33435 5.7958 7.04385 5.7958 9.15226C5.7958 11.2612 7.52783 12.9707 9.66404 12.9707C10.1627 12.9707 10.6374 12.8743 11.0752 12.7046L13.2178 14.8198C5.08195 23.3067 0.0844727 34.7541 0.0844727 47.3324C0.0844727 73.4375 21.6025 94.676 48.0517 94.676C48.8072 94.676 49.5585 94.6565 50.3049 94.6223C50.3492 94.6202 50.394 94.6191 50.4384 94.617C51.1565 94.5822 51.8698 94.5295 52.5794 94.4637C52.6493 94.4568 52.7198 94.4521 52.7903 94.4452C53.4822 94.3778 54.1694 94.294 54.8523 94.1981C54.9361 94.1859 55.0199 94.1754 55.1032 94.1633C55.7775 94.0647 56.4465 93.9514 57.1107 93.8255C57.1988 93.8086 57.2869 93.7923 57.3745 93.7754C58.036 93.6463 58.6927 93.503 59.3441 93.3475C59.4301 93.327 59.5155 93.3064 59.6009 93.2853C60.2555 93.1251 60.9048 92.9518 61.5487 92.7647C61.624 92.7431 61.6987 92.721 61.774 92.6988C62.4275 92.506 63.0751 92.3004 63.7164 92.0812C63.7746 92.0612 63.8328 92.0401 63.891 92.0201C64.5482 91.7924 65.1991 91.5527 65.843 91.2976C65.8766 91.2844 65.9103 91.2702 65.9444 91.257C66.6113 90.9914 67.2712 90.7121 67.9231 90.4181C67.9237 90.4181 67.9242 90.4181 67.9242 90.4181C71.2873 88.9009 74.4423 87.0102 77.3361 84.8016C77.3393 84.799 77.3431 84.7964 77.3463 84.7943C77.9202 84.3558 78.4835 83.9047 79.0361 83.442C79.0431 83.4363 79.05 83.4305 79.0569 83.4247C79.6079 82.963 80.1483 82.4893 80.6774 82.0034C80.6811 82.0008 80.6843 81.9976 80.6875 81.995L82.8408 84.1203C82.6694 84.5518 82.5717 85.0209 82.5717 85.5125C82.5717 87.6209 84.3038 89.3304 86.44 89.3304C88.5762 89.3304 90.3082 87.6209 90.3082 85.5125C90.3082 83.4041 88.5762 81.6946 86.44 81.6946Z" fill="#003D58"/>
</g>
<path d="M104.963 44.1707V28.8729H101.886V24.3035H102.174H110.456V44.1707H110.168H104.963Z" fill="#ED1D24"/>
<path d="M130.125 39.7997V44.1705H129.837H114.338L122.677 34.5775C123.425 33.726 123.971 33.0448 124.316 32.534C124.661 32.0231 124.882 31.5501 124.978 31.1149C124.997 31.0013 125.007 30.8973 125.007 30.8027C125.026 30.7081 125.036 30.604 125.036 30.4905C125.036 29.8282 124.834 29.2417 124.432 28.7308C124.029 28.2199 123.473 27.9456 122.764 27.9077C122.649 27.9267 122.486 27.9645 122.275 28.0213C122.083 28.0591 121.872 28.1442 121.642 28.2767C121.336 28.4659 121.048 28.797 120.78 29.2701C120.511 29.7242 120.377 30.3959 120.377 31.2852H120.089H115.057C115.057 30.9446 115.086 30.5851 115.143 30.2066C115.201 29.8282 115.278 29.4498 115.373 29.0714C115.738 27.7469 116.476 26.5265 117.588 25.4101C118.719 24.2938 120.435 23.7356 122.735 23.7356H123.023C125.457 23.7356 127.288 24.3979 128.515 25.7223C129.742 27.0468 130.355 28.5889 130.355 30.3486C130.355 30.7838 130.317 31.2095 130.24 31.6257C130.164 32.0231 130.049 32.4204 129.895 32.8178C129.493 33.7638 128.831 34.7666 127.911 35.8262C127.01 36.8858 125.774 38.2103 124.202 39.7997H130.125Z" fill="#ED1D24"/>
<path d="M141.656 44.1705H135.703L140.534 37.3305C140.343 37.3683 140.141 37.4061 139.931 37.444C139.72 37.4629 139.49 37.4724 139.24 37.4724H138.953C137.093 37.4724 135.627 36.848 134.553 35.5992C133.48 34.3315 132.943 32.7799 132.943 30.9446C132.943 28.9578 133.623 27.2644 134.985 25.8642C136.346 24.4451 138.272 23.7356 140.765 23.7356H141.052C143.41 23.7356 145.279 24.4073 146.659 25.7507C148.059 27.0752 148.759 28.8065 148.759 30.9446C148.759 31.7582 148.682 32.5245 148.529 33.2435C148.394 33.9436 148.164 34.6437 147.838 35.3437C147.666 35.7032 147.474 36.0722 147.263 36.4506C147.052 36.8101 146.813 37.1791 146.544 37.5575L141.943 44.1705H141.656ZM140.966 27.9077C140.122 27.9456 139.461 28.2577 138.982 28.8443C138.502 29.4119 138.263 30.0931 138.263 30.8878C138.263 31.6636 138.502 32.3447 138.982 32.9313C139.461 33.4989 140.122 33.8017 140.966 33.8395C141.828 33.8017 142.49 33.4989 142.95 32.9313C143.41 32.3447 143.64 31.6636 143.64 30.8878C143.64 30.112 143.41 29.4309 142.95 28.8443C142.49 28.2577 141.828 27.9456 140.966 27.9077Z" fill="#ED1D24"/>
<path d="M162.935 33.6124V33.6692C163.146 33.726 163.386 33.8111 163.654 33.9246C163.942 34.0382 164.22 34.1895 164.488 34.3788C165.063 34.7383 165.581 35.2586 166.041 35.9398C166.52 36.6209 166.76 37.548 166.76 38.7212C166.76 39.0428 166.731 39.4023 166.674 39.7997C166.616 40.197 166.501 40.6038 166.329 41.0201C165.945 41.9472 165.207 42.7987 164.114 43.5745C163.022 44.3313 161.315 44.7097 158.996 44.7097L158.708 44.7381C156.389 44.7192 154.682 44.3313 153.59 43.5745C152.497 42.7987 151.759 41.9472 151.375 41.0201C151.203 40.6038 151.088 40.197 151.03 39.7997C150.973 39.4023 150.944 39.0428 150.944 38.7212C150.944 37.5481 151.174 36.6209 151.634 35.9398C152.113 35.2586 152.641 34.7383 153.216 34.3788C153.484 34.1895 153.753 34.0382 154.021 33.9246C154.309 33.8111 154.558 33.726 154.769 33.6692V33.6125C154.002 33.3286 153.321 32.8272 152.727 32.1082C152.152 31.3892 151.864 30.4242 151.864 29.2133C151.864 27.6617 152.439 26.3656 153.59 25.325C154.759 24.2654 156.465 23.7356 158.708 23.7356H158.996C161.239 23.7356 162.935 24.2654 164.086 25.325C165.255 26.3656 165.84 27.6617 165.84 29.2133C165.84 30.4242 165.542 31.3892 164.948 32.1082C164.373 32.8272 163.702 33.3286 162.935 33.6124ZM158.852 40.566C159.619 40.5281 160.204 40.2632 160.606 39.7713C161.028 39.2604 161.239 38.6739 161.239 38.0116C161.239 37.3115 161.057 36.7723 160.692 36.3939C160.347 36.0154 159.964 35.76 159.542 35.6275C159.427 35.5897 159.312 35.5613 159.197 35.5424C159.082 35.5235 158.967 35.514 158.852 35.514C158.239 35.533 157.692 35.7695 157.213 36.2236C156.734 36.6587 156.494 37.2548 156.494 38.0116C156.494 38.6549 156.695 39.232 157.098 39.7429C157.52 40.2538 158.104 40.5281 158.852 40.566ZM158.852 31.9379C158.871 31.9379 158.89 31.9379 158.91 31.9379C158.948 31.9379 158.977 31.9284 158.996 31.9095C159.456 31.8717 159.868 31.6825 160.232 31.3419C160.616 31.0013 160.807 30.4904 160.807 29.8093C160.807 29.1849 160.664 28.7213 160.376 28.4186C160.088 28.0969 159.782 27.8793 159.456 27.7658C159.341 27.7279 159.235 27.6995 159.14 27.6806C159.044 27.6617 158.948 27.6522 158.852 27.6522C158.756 27.6522 158.641 27.6712 158.507 27.709C158.392 27.7279 158.277 27.7658 158.162 27.8225C157.855 27.9361 157.568 28.1442 157.299 28.4469C157.05 28.7497 156.925 29.2038 156.925 29.8093C156.925 30.4904 157.098 31.0013 157.443 31.3419C157.807 31.6635 158.2 31.8527 158.622 31.9095C158.66 31.9095 158.699 31.919 158.737 31.9379C158.775 31.9379 158.814 31.9379 158.852 31.9379Z" fill="#ED1D24"/>
<mask id="mask1_114_2" style="mask-type:luminance" maskUnits="userSpaceOnUse" x="-239" y="-157" width="450" height="314">
<path d="M-238.521 -156.859H210.98V156.837H-238.521V-156.859Z" fill="white"/>
</mask>
<g mask="url(#mask1_114_2)">
<path d="M167.656 47.1081H92.9045L92.9291 49.8525H167.656V47.1081Z" fill="#003D58"/>
<path d="M45.4768 47.3326H55.5492V85.409C53.1193 85.8727 50.612 86.1235 48.0444 86.1235C47.1805 86.1235 46.3263 86.0861 45.4768 86.0324V59.0282V47.3326Z" fill="#ED1D24"/>
<path d="M61.6716 35.4419V10.9399C76.6603 16.4093 87.3467 30.6381 87.3467 47.3325C87.3467 59.9698 81.2211 71.1917 71.744 78.2742V35.4419H61.6716Z" fill="#0092C8"/>
<path d="M32.047 11.9021V59.0286V82.7634C18.3167 76.7143 8.74194 63.1316 8.74194 47.3325C8.74194 31.5339 18.3167 17.9507 32.047 11.9021Z" fill="#0092C8"/>
<path d="M55.5494 35.4419V47.3325H45.4771V8.63333C46.3265 8.57905 47.1808 8.54163 48.0447 8.54163C52.8361 8.54163 57.4262 9.39058 61.6719 10.9399V35.4419H55.5494Z" fill="#003D58"/>
<path d="M45.4771 59.0284V86.032C40.7193 85.729 36.1949 84.5902 32.0469 82.7632V59.0284H45.4771Z" fill="white"/>
<path d="M45.4771 47.3327V59.0283H32.0469V11.9023C36.1949 10.0748 40.7193 8.93653 45.4771 8.633V47.3327Z" fill="#FEDA00"/>
<path d="M55.5493 35.442H61.6718H71.7441V78.2743C67.0553 81.7781 61.5452 84.2638 55.5493 85.4089V47.3326V35.442Z" fill="white"/>
</g>
<path d="M99.6735 54.9667H110.607V66.7029H107.354V57.8404H102.935V66.7029H99.6735V54.9667ZM113.695 54.9667H118.882C119.52 54.9667 120.107 55.0703 120.642 55.2774C121.177 55.4845 121.637 55.775 122.023 56.149C122.414 56.5172 122.716 56.9573 122.929 57.4693C123.148 57.9756 123.257 58.5307 123.257 59.1348C123.257 59.7906 123.148 60.3861 122.929 60.9211C122.716 61.4504 122.417 61.902 122.032 62.2759C121.652 62.6499 121.197 62.9404 120.668 63.1475C120.139 63.3489 119.558 63.4495 118.925 63.4495H116.949V66.7029H113.695V54.9667ZM118.735 60.5673C118.908 60.5673 119.069 60.5299 119.218 60.4551C119.374 60.3803 119.509 60.2796 119.624 60.1531C119.745 60.0208 119.837 59.8683 119.9 59.6957C119.969 59.5231 120.004 59.3361 120.004 59.1348C120.004 58.9852 119.969 58.8356 119.9 58.6861C119.837 58.5307 119.748 58.3926 119.633 58.2718C119.517 58.1453 119.382 58.0446 119.227 57.9698C119.077 57.8893 118.916 57.849 118.744 57.849H116.949V60.5673H118.735ZM131.23 66.9877C130.344 66.9877 129.509 66.8266 128.727 66.5044C127.945 66.1822 127.263 65.7421 126.682 65.1841C126.101 64.626 125.641 63.9731 125.301 63.2252C124.967 62.4715 124.801 61.669 124.801 60.8175C124.801 59.9603 124.967 59.1607 125.301 58.4185C125.641 57.6706 126.101 57.0177 126.682 56.4596C127.263 55.9016 127.945 55.4644 128.727 55.1479C129.509 54.8258 130.344 54.6647 131.23 54.6647C132.116 54.6647 132.947 54.8258 133.724 55.1479C134.506 55.4644 135.188 55.9016 135.769 56.4596C136.356 57.0177 136.816 57.6706 137.149 58.4185C137.489 59.1607 137.659 59.9603 137.659 60.8175C137.659 61.669 137.489 62.4715 137.149 63.2252C136.816 63.9731 136.356 64.626 135.769 65.1841C135.188 65.7421 134.506 66.1822 133.724 66.5044C132.947 66.8266 132.116 66.9877 131.23 66.9877ZM131.23 64.0191C131.673 64.0191 132.087 63.9414 132.472 63.7861C132.863 63.6308 133.203 63.4122 133.491 63.1303C133.778 62.8484 134.003 62.5118 134.164 62.1206C134.33 61.7294 134.414 61.2979 134.414 60.8262C134.414 60.3544 134.33 59.923 134.164 59.5317C134.003 59.1405 133.778 58.804 133.491 58.5221C133.203 58.2402 132.863 58.0216 132.472 57.8662C132.087 57.7109 131.673 57.6332 131.23 57.6332C130.787 57.6332 130.369 57.7109 129.978 57.8662C129.593 58.0216 129.256 58.2402 128.969 58.5221C128.681 58.804 128.454 59.1405 128.287 59.5317C128.126 59.923 128.045 60.3544 128.045 60.8262C128.045 61.2979 128.129 61.7294 128.296 62.1206C128.462 62.5118 128.69 62.8484 128.977 63.1303C129.265 63.4122 129.601 63.6308 129.987 63.7861C130.378 63.9414 130.792 64.0191 131.23 64.0191ZM144.449 65.7795C143.695 65.6817 143.008 65.5063 142.387 65.2531C141.771 65 141.242 64.6692 140.799 64.2607C140.356 63.8465 140.013 63.3546 139.772 62.7851C139.53 62.2098 139.409 61.5539 139.409 60.8175C139.409 60.0812 139.53 59.4282 139.772 58.8586C140.019 58.2891 140.361 57.8001 140.799 57.3916C141.242 56.9774 141.774 56.6437 142.395 56.3906C143.016 56.1375 143.701 55.962 144.449 55.8642V54.9667H147.685V55.8728C148.427 55.9706 149.106 56.1461 149.722 56.3992C150.343 56.6524 150.872 56.9832 151.309 57.3916C151.752 57.8001 152.095 58.2891 152.336 58.8586C152.584 59.4282 152.707 60.0812 152.707 60.8175C152.707 61.5482 152.584 62.2011 152.336 62.7764C152.095 63.346 151.752 63.8379 151.309 64.2521C150.872 64.6606 150.343 64.9942 149.722 65.2531C149.106 65.5063 148.427 65.6817 147.685 65.7795V66.7029H144.449V65.7795ZM144.449 58.8932C144.213 58.9334 143.989 58.9967 143.776 59.083C143.563 59.1693 143.373 59.2901 143.206 59.4455C143.045 59.595 142.916 59.7849 142.818 60.015C142.72 60.2394 142.671 60.5098 142.671 60.8262C142.671 61.1426 142.72 61.4159 142.818 61.646C142.916 61.8703 143.045 62.0602 143.206 62.2155C143.373 62.3651 143.563 62.483 143.776 62.5693C143.989 62.6556 144.213 62.7189 144.449 62.7592V58.8932ZM147.685 62.7592C147.921 62.7189 148.142 62.6556 148.35 62.5693C148.562 62.483 148.749 62.3651 148.91 62.2155C149.077 62.0602 149.207 61.8703 149.299 61.646C149.397 61.4159 149.445 61.1426 149.445 60.8262C149.445 60.5098 149.397 60.2394 149.299 60.015C149.207 59.7849 149.077 59.595 148.91 59.4455C148.749 59.2901 148.562 59.1693 148.35 59.083C148.142 58.9967 147.921 58.9334 147.685 58.8932V62.7592ZM162.898 66.7029V60.2135L157.979 66.7029H155.157V54.9667H158.402V61.4302L163.295 54.9667H166.151V66.7029H162.898ZM101.863 71.406V74.6121H102.54L104.351 71.406H107.434L104.583 75.8494L107.475 80.7029H104.324L102.546 77.4011H101.863V80.7029H99.2856V71.406H101.863ZM109.197 78.6589H109.498C109.804 78.6589 110.063 78.5951 110.278 78.4675C110.496 78.3354 110.683 78.1257 110.838 77.8386L110.968 77.5925L107.789 71.406H110.626L112.28 75.1316L113.962 71.406H116.792L113.231 78.5154C112.98 79.0167 112.718 79.4246 112.445 79.739C112.176 80.0535 111.902 80.2996 111.624 80.4773C111.351 80.655 111.075 80.7758 110.797 80.8396C110.524 80.9034 110.255 80.9353 109.99 80.9353H109.197V78.6589ZM117.934 71.406H122.042C122.548 71.406 123.013 71.488 123.436 71.6521C123.86 71.8162 124.225 72.0463 124.53 72.3425C124.84 72.6342 125.079 72.9828 125.248 73.3884C125.421 73.7895 125.508 74.2292 125.508 74.7078C125.508 75.2273 125.421 75.699 125.248 76.1228C125.079 76.5421 124.842 76.8998 124.537 77.196C124.236 77.4923 123.876 77.7224 123.457 77.8865C123.038 78.046 122.577 78.1257 122.076 78.1257H120.511V80.7029H117.934V71.406ZM121.926 75.8425C122.062 75.8425 122.19 75.8129 122.309 75.7537C122.432 75.6944 122.539 75.6147 122.63 75.5144C122.726 75.4096 122.798 75.2888 122.849 75.1521C122.903 75.0154 122.931 74.8673 122.931 74.7078C122.931 74.5893 122.903 74.4708 122.849 74.3523C122.798 74.2292 122.728 74.1199 122.637 74.0242C122.546 73.9239 122.438 73.8442 122.315 73.7849C122.197 73.7211 122.069 73.6892 121.933 73.6892H120.511V75.8425H121.926ZM129.295 71.406V74.6121H129.971L131.783 71.406H134.866L132.015 75.8494L134.907 80.7029H131.756L129.978 77.4011H129.295V80.7029H126.717V71.406H129.295ZM142.139 80.7029V75.5623L138.243 80.7029H136.007V71.406H138.578V76.5261L142.453 71.406H144.716V80.7029H142.139ZM146.637 71.406H149.214V74.8308H152.707V71.406H155.291V80.7029H152.707V77.1072H149.214V80.7029H146.637V71.406ZM161.758 80.9285C161.056 80.9285 160.395 80.8009 159.775 80.5457C159.155 80.2904 158.615 79.9418 158.155 79.4998C157.695 79.0577 157.33 78.5404 157.061 77.948C156.797 77.351 156.665 76.7153 156.665 76.0408C156.665 75.3617 156.797 74.7283 157.061 74.1404C157.33 73.5479 157.695 73.0307 158.155 72.5886C158.615 72.1466 159.155 71.8002 159.775 71.5496C160.395 71.2944 161.056 71.1667 161.758 71.1667C162.459 71.1667 163.118 71.2944 163.733 71.5496C164.353 71.8002 164.893 72.1466 165.353 72.5886C165.818 73.0307 166.183 73.5479 166.447 74.1404C166.716 74.7283 166.85 75.3617 166.85 76.0408C166.85 76.7153 166.716 77.351 166.447 77.948C166.183 78.5404 165.818 79.0577 165.353 79.4998C164.893 79.9418 164.353 80.2904 163.733 80.5457C163.118 80.8009 162.459 80.9285 161.758 80.9285ZM161.758 78.5769C162.109 78.5769 162.437 78.5154 162.742 78.3923C163.052 78.2693 163.321 78.0961 163.549 77.8728C163.777 77.6495 163.954 77.3829 164.082 77.073C164.214 76.7631 164.28 76.4213 164.28 76.0476C164.28 75.6739 164.214 75.3321 164.082 75.0222C163.954 74.7123 163.777 74.4457 163.549 74.2224C163.321 73.9991 163.052 73.8259 162.742 73.7029C162.437 73.5798 162.109 73.5183 161.758 73.5183C161.407 73.5183 161.076 73.5798 160.766 73.7029C160.461 73.8259 160.194 73.9991 159.967 74.2224C159.739 74.4457 159.559 74.7123 159.427 75.0222C159.299 75.3321 159.235 75.6739 159.235 76.0476C159.235 76.4213 159.301 76.7631 159.433 77.073C159.566 77.3829 159.746 77.6495 159.973 77.8728C160.201 78.0961 160.468 78.2693 160.773 78.3923C161.083 78.5154 161.411 78.5769 161.758 78.5769Z" fill="#003D58"/>
</g>
<defs>
<clipPath id="clip0_114_2">
<rect width="170" height="95.099" fill="white"/>
</clipPath>
</defs>
</svg>
