<svg width="343" height="156" viewBox="0 0 343 156" fill="none" xmlns="http://www.w3.org/2000/svg">
<g clip-path="url(#clip0_284_126)">
<mask id="mask0_284_126" style="mask-type:luminance" maskUnits="userSpaceOnUse" x="-388" y="-258" width="731" height="516">
<path d="M-387.927 -257.356H342.979V257.321H-387.927V-257.356Z" fill="white"/>
</mask>
<g mask="url(#mask0_284_126)">
<path d="M5.08564 77.6581C5.08564 58.2375 12.7907 40.5859 25.2967 27.5374L127.634 130.89C127.23 131.264 126.824 131.639 126.41 132.005C126.208 132.184 126 132.358 125.796 132.535C124.868 133.338 123.919 134.116 122.951 134.872C122.697 135.069 122.449 135.271 122.193 135.465C121.719 135.825 121.236 136.175 120.753 136.523C120.401 136.777 120.046 137.029 119.69 137.277C119.226 137.6 118.762 137.92 118.29 138.233C117.827 138.539 117.357 138.833 116.887 139.129C116.232 139.542 115.569 139.944 114.9 140.336C114.379 140.64 113.858 140.944 113.329 141.236C112.913 141.466 112.493 141.69 112.071 141.912C111.535 142.195 110.995 142.47 110.451 142.74C110.065 142.931 109.681 143.125 109.292 143.309C108.41 143.728 107.52 144.132 106.619 144.515C106.323 144.641 106.022 144.756 105.724 144.879C105.033 145.161 104.338 145.437 103.637 145.699C103.275 145.835 102.912 145.966 102.548 146.096C101.821 146.355 101.089 146.602 100.351 146.838C100.072 146.928 99.7938 147.024 99.5125 147.11C98.5132 147.417 97.5044 147.702 96.4878 147.967C96.2204 148.037 95.9495 148.098 95.6812 148.165C94.879 148.364 94.0734 148.551 93.2616 148.723C92.9395 148.791 92.6174 148.858 92.2945 148.922C91.3699 149.105 90.4401 149.272 89.5042 149.42C89.3566 149.443 89.2107 149.471 89.0631 149.494C87.9771 149.658 86.8823 149.795 85.7814 149.911C85.5045 149.94 85.2258 149.962 84.9489 149.988C84.085 150.069 83.2169 150.135 82.3443 150.186C82.0431 150.204 81.7427 150.223 81.4406 150.237C80.3163 150.288 79.1877 150.322 78.0504 150.322C37.8175 150.322 5.08564 117.725 5.08564 77.6581ZM140.471 134.036C139.66 134.036 138.888 134.194 138.177 134.472L134.693 131.002C134.7 130.994 134.708 130.985 134.715 130.977C147.931 117.055 156.048 98.2839 156.048 77.6589H151.015C151.015 88.309 148.683 98.4205 144.532 107.544C143.113 110.661 141.48 113.662 139.651 116.529C139.628 116.564 139.605 116.6 139.581 116.636C138.234 118.739 136.78 120.769 135.228 122.719C135.179 122.78 135.13 122.844 135.081 122.905C134.584 123.525 134.077 124.136 133.561 124.74C133.485 124.829 133.406 124.917 133.33 125.006C132.614 125.833 131.876 126.639 131.125 127.434L28.8024 24.0964C41.7911 12.2419 59.0851 4.99396 78.0504 4.99396L78.0512 -0.0172254C57.7117 -0.0172254 39.1736 7.78576 25.2733 20.5325L21.6348 16.858C21.8171 16.2752 21.9204 15.6588 21.9204 15.0164C21.9204 11.5571 19.1049 8.75238 15.6305 8.75238C12.1569 8.75238 9.34056 11.5571 9.34056 15.0164C9.34056 18.4765 12.1569 21.2812 15.6305 21.2812C16.4413 21.2812 17.2131 21.123 17.9251 20.8446L21.409 24.3151C8.17981 38.2394 0.0537109 57.021 0.0537109 77.6581C0.0537109 120.488 35.0428 155.334 78.0504 155.334C79.2788 155.334 80.5004 155.302 81.7141 155.246C81.7861 155.243 81.859 155.241 81.9311 155.237C83.0988 155.18 84.2587 155.094 85.4125 154.986C85.5262 154.975 85.6408 154.967 85.7554 154.956C86.8806 154.845 87.9979 154.707 89.1083 154.55C89.2446 154.53 89.3809 154.513 89.5163 154.493C90.6128 154.331 91.7007 154.145 92.7807 153.939C92.9239 153.911 93.0672 153.884 93.2095 153.857C94.2852 153.645 95.3531 153.41 96.4122 153.155C96.552 153.121 96.6909 153.087 96.8298 153.053C97.8942 152.79 98.9499 152.505 99.9969 152.198C100.119 152.163 100.241 152.127 100.363 152.09C101.426 151.774 102.479 151.437 103.522 151.077C103.616 151.044 103.711 151.01 103.806 150.977C104.874 150.603 105.933 150.21 106.98 149.791C107.034 149.77 107.089 149.746 107.145 149.725C108.229 149.289 109.302 148.831 110.362 148.348C110.363 148.348 110.364 148.348 110.364 148.348C115.832 145.859 120.962 142.757 125.668 139.133C125.673 139.129 125.679 139.125 125.684 139.121C126.618 138.402 127.534 137.662 128.432 136.903C128.443 136.893 128.455 136.884 128.466 136.874C129.362 136.117 130.241 135.34 131.101 134.542C131.107 134.538 131.112 134.533 131.117 134.529L134.619 138.016C134.34 138.724 134.181 139.493 134.181 140.3C134.181 143.759 136.998 146.564 140.471 146.564C143.945 146.564 146.761 143.759 146.761 140.3C146.761 136.841 143.945 134.036 140.471 134.036Z" fill="#003D58"/>
</g>
<mask id="mask1_284_126" style="mask-type:luminance" maskUnits="userSpaceOnUse" x="-388" y="-258" width="731" height="516">
<path d="M-387.927 -257.356H342.979V257.321H-387.927V-257.356Z" fill="white"/>
</mask>
<g mask="url(#mask1_284_126)">
<path d="M73.8633 77.6587H90.2414V140.13C86.2903 140.891 82.2134 141.302 78.0383 141.302C76.6336 141.302 75.2445 141.241 73.8633 141.153V96.8476V77.6587Z" fill="#ED1D24"/>
<path d="M100.197 58.1495V17.9492C124.569 26.9229 141.945 50.2678 141.945 77.6582C141.945 98.3921 131.985 116.804 116.575 128.424V58.1495H100.197Z" fill="#0092C8"/>
<path d="M52.0257 19.5281V96.848V135.789C29.6998 125.865 14.1309 103.58 14.1309 77.6583C14.1309 51.7377 29.6998 29.4519 52.0257 19.5281Z" fill="#0092C8"/>
<path d="M90.2414 58.1497V77.6584H73.8633V14.1651C75.2445 14.0761 76.6336 14.0147 78.0383 14.0147C85.8293 14.0147 93.293 15.4076 100.197 17.9495V58.1497H90.2414Z" fill="#003D58"/>
<path d="M73.8629 96.848V141.152C66.1266 140.655 58.7697 138.787 52.0249 135.789V96.848H73.8629Z" fill="white"/>
<path d="M73.8629 77.6586V96.8474H52.0249V19.5283C58.7697 16.5299 66.1266 14.6624 73.8629 14.1644V77.6586Z" fill="#FEDA00"/>
<path d="M90.2412 58.1499H100.197H116.575V128.424C108.95 134.173 99.9908 138.251 90.2412 140.13V77.6586V58.1499Z" fill="white"/>
</g>
<ellipse cx="77.8805" cy="78.2528" rx="57.9928" ry="59.0596" fill="white"/>
<path d="M67.5982 35.1488V63.6518H73.6148L89.7199 35.1488H117.129L91.7862 74.6519L117.494 117.801H89.4768L73.6756 88.4476H67.5982V117.801H44.6864V35.1488H67.5982Z" fill="#003D58"/>
<path d="M96.0435 41.3748L114.9 37.1749L98.381 62.7396L106.164 42.4638L96.0435 41.3748Z" fill="#FE0000"/>
</g>
<path d="M163.677 84.5459H176.079C177.606 84.5459 179.01 84.7935 180.289 85.2888C181.569 85.784 182.669 86.4788 183.591 87.373C184.526 88.2535 185.249 89.3059 185.758 90.5303C186.28 91.741 186.542 93.0686 186.542 94.5131C186.542 96.0814 186.28 97.5053 185.758 98.7848C185.249 100.05 184.533 101.13 183.611 102.025C182.703 102.919 181.617 103.614 180.351 104.109C179.085 104.59 177.696 104.831 176.182 104.831H171.457V112.611H163.677V84.5459ZM175.728 97.9387C176.141 97.9387 176.526 97.8493 176.884 97.6704C177.256 97.4916 177.579 97.2508 177.854 96.9482C178.143 96.6317 178.363 96.2672 178.514 95.8544C178.679 95.4417 178.762 94.9946 178.762 94.5131C178.762 94.1554 178.679 93.7977 178.514 93.44C178.363 93.0686 178.15 92.7384 177.875 92.4495C177.6 92.1468 177.276 91.9061 176.905 91.7272C176.547 91.5346 176.162 91.4383 175.749 91.4383H171.457V97.9387H175.728ZM203.071 113.292C200.953 113.292 198.958 112.907 197.087 112.136C195.216 111.366 193.586 110.313 192.196 108.979C190.807 107.645 189.706 106.083 188.894 104.295C188.096 102.492 187.697 100.573 187.697 98.5371C187.697 96.4873 188.096 94.575 188.894 92.8003C189.706 91.0118 190.807 89.4504 192.196 88.1159C193.586 86.7814 195.216 85.7359 197.087 84.9792C198.958 84.2088 200.953 83.8236 203.071 83.8236C205.19 83.8236 207.178 84.2088 209.035 84.9792C210.906 85.7359 212.536 86.7814 213.926 88.1159C215.329 89.4504 216.43 91.0118 217.228 92.8003C218.039 94.575 218.445 96.4873 218.445 98.5371C218.445 100.573 218.039 102.492 217.228 104.295C216.43 106.083 215.329 107.645 213.926 108.979C212.536 110.313 210.906 111.366 209.035 112.136C207.178 112.907 205.19 113.292 203.071 113.292ZM203.071 106.193C204.131 106.193 205.121 106.007 206.043 105.636C206.978 105.265 207.79 104.742 208.478 104.068C209.166 103.394 209.702 102.589 210.088 101.653C210.487 100.718 210.686 99.6859 210.686 98.5578C210.686 97.4297 210.487 96.3979 210.088 95.4624C209.702 94.5269 209.166 93.7221 208.478 93.0479C207.79 92.3738 206.978 91.851 206.043 91.4796C205.121 91.1081 204.131 90.9224 203.071 90.9224C202.012 90.9224 201.015 91.1081 200.079 91.4796C199.157 91.851 198.353 92.3738 197.665 93.0479C196.977 93.7221 196.433 94.5269 196.034 95.4624C195.649 96.3979 195.457 97.4297 195.457 98.5578C195.457 99.6859 195.656 100.718 196.055 101.653C196.454 102.589 196.997 103.394 197.685 104.068C198.373 104.742 199.178 105.265 200.1 105.636C201.035 106.007 202.026 106.193 203.071 106.193ZM224.153 93.0287C223.576 93.0287 223.062 92.9422 222.612 92.769C222.162 92.5959 221.781 92.3593 221.47 92.0591C221.169 91.759 220.939 91.407 220.777 91.003C220.615 90.599 220.535 90.1719 220.535 89.7217C220.535 89.2716 220.61 88.8445 220.76 88.4405C220.921 88.0365 221.158 87.6845 221.47 87.3843C221.781 87.0842 222.162 86.8476 222.612 86.6745C223.062 86.5013 223.582 86.4148 224.171 86.4148C224.771 86.4148 225.296 86.5013 225.746 86.6745C226.208 86.8476 226.595 87.0842 226.906 87.3843C227.218 87.6845 227.449 88.0365 227.599 88.4405C227.76 88.8445 227.841 89.2716 227.841 89.7217C227.841 90.1835 227.76 90.6163 227.599 91.0203C227.449 91.4243 227.218 91.7763 226.906 92.0765C226.595 92.365 226.208 92.5959 225.746 92.769C225.284 92.9422 224.753 93.0287 224.153 93.0287ZM221.002 94.5524H227.339V112.611H221.002V94.5524ZM231.547 84.5459H238.377L250.078 100.002V84.5459H257.837V112.611H251.089L239.327 97.0926V112.611H231.547V84.5459ZM268.382 91.4383H260.974V84.5459H283.508V91.4383H276.121V112.611H268.382V91.4383Z" fill="#0092C8"/>
<path d="M166.123 45.8149L161.609 47.4106L161.588 40.5659L167.53 38.4243H174.039V67H166.123V45.8149ZM188.631 62.7168L196.903 55.2212C197.855 54.3534 198.681 53.5695 199.381 52.8696C200.095 52.1558 200.69 51.4979 201.166 50.896C201.641 50.2801 201.991 49.6992 202.215 49.1533C202.453 48.6074 202.572 48.0685 202.572 47.5366C202.572 46.8228 202.341 46.2209 201.879 45.731C201.431 45.241 200.746 44.9961 199.822 44.9961C199.36 44.9961 198.919 45.0591 198.499 45.1851C198.079 45.311 197.701 45.563 197.365 45.9409C197.043 46.3188 196.784 46.8507 196.588 47.5366C196.406 48.2225 196.315 49.1253 196.315 50.2451H188.505C188.505 49.3213 188.575 48.3765 188.715 47.4106C188.855 46.4308 189.086 45.479 189.408 44.5552C189.744 43.6313 190.185 42.7565 190.73 41.9307C191.276 41.1048 191.962 40.384 192.788 39.7681C193.614 39.1522 194.587 38.6693 195.707 38.3193C196.826 37.9554 198.128 37.7734 199.612 37.7734C201.445 37.7734 203.041 38.0394 204.399 38.5713C205.757 39.0892 206.883 39.7961 207.779 40.6919C208.689 41.5877 209.368 42.6305 209.816 43.8203C210.264 44.9961 210.488 46.2349 210.488 47.5366C210.488 49.3003 210.054 50.959 209.186 52.5127C208.318 54.0524 207.058 55.5151 205.407 56.9009L200.452 61.0371L203.727 60.2393H211.139V67H188.631V62.7168ZM234.927 37.7524C236.677 37.7524 238.245 38.0184 239.63 38.5503C241.03 39.0682 242.213 39.7891 243.179 40.7129C244.145 41.6227 244.879 42.6935 245.383 43.9253C245.901 45.1431 246.16 46.4518 246.16 47.8516C246.16 48.6214 246.104 49.3353 245.992 49.9932C245.88 50.651 245.691 51.3229 245.425 52.0088C245.173 52.6947 244.83 53.4295 244.396 54.2134C243.977 54.9832 243.459 55.8651 242.843 56.8589L236.544 67H227.453L234.003 56.9849C233.528 57.1668 233.094 57.2578 232.702 57.2578C231.554 57.2578 230.434 57.0339 229.342 56.5859C228.264 56.138 227.306 55.5011 226.466 54.6753C225.626 53.8494 224.947 52.8626 224.429 51.7148C223.925 50.5531 223.673 49.2653 223.673 47.8516C223.673 46.4518 223.932 45.1431 224.45 43.9253C224.968 42.6935 225.71 41.6227 226.676 40.7129C227.642 39.7891 228.817 39.0682 230.203 38.5503C231.603 38.0184 233.178 37.7524 234.927 37.7524ZM234.885 44.8911C234.003 44.8911 233.325 45.1431 232.849 45.647C232.373 46.1509 232.135 46.8507 232.135 47.7466C232.135 48.6564 232.373 49.3703 232.849 49.8882C233.325 50.3921 234.003 50.644 234.885 50.644C235.781 50.644 236.474 50.3921 236.964 49.8882C237.468 49.3703 237.72 48.6564 237.72 47.7466C237.72 46.8507 237.468 46.1509 236.964 45.647C236.474 45.1431 235.781 44.8911 234.885 44.8911ZM270.054 67.7349C268.206 67.7349 266.568 67.4969 265.141 67.021C263.727 66.5591 262.537 65.9222 261.571 65.1104C260.619 64.2845 259.899 63.3117 259.409 62.1919C258.919 61.0721 258.674 59.8543 258.674 58.5386C258.674 57.5308 258.807 56.6349 259.073 55.8511C259.339 55.0532 259.682 54.3674 260.102 53.7935C260.521 53.2056 260.99 52.7297 261.508 52.3657C262.026 51.9878 262.537 51.7218 263.041 51.5679C262.635 51.4139 262.236 51.1549 261.844 50.791C261.452 50.4131 261.102 49.9722 260.794 49.4683C260.5 48.9644 260.256 48.4115 260.06 47.8096C259.878 47.1937 259.787 46.5848 259.787 45.9829C259.787 44.5832 260.06 43.3654 260.605 42.3296C261.165 41.2938 261.914 40.4329 262.852 39.7471C263.79 39.0612 264.875 38.5503 266.106 38.2144C267.352 37.8784 268.668 37.7104 270.054 37.7104C271.495 37.7104 272.832 37.8784 274.064 38.2144C275.31 38.5503 276.388 39.0612 277.297 39.7471C278.221 40.4189 278.942 41.2728 279.46 42.3086C279.992 43.3444 280.258 44.5622 280.258 45.9619C280.258 46.5778 280.16 47.1937 279.964 47.8096C279.782 48.4255 279.537 48.9924 279.229 49.5103C278.935 50.0282 278.585 50.4761 278.179 50.854C277.787 51.2179 277.381 51.4629 276.961 51.5889C277.493 51.7288 278.018 51.9878 278.536 52.3657C279.068 52.7297 279.544 53.2056 279.964 53.7935C280.384 54.3674 280.72 55.0532 280.972 55.8511C281.238 56.6349 281.371 57.5308 281.371 58.5386C281.371 59.8543 281.119 61.0721 280.615 62.1919C280.125 63.3117 279.397 64.2845 278.431 65.1104C277.479 65.9222 276.297 66.5591 274.883 67.021C273.483 67.4969 271.873 67.7349 270.054 67.7349ZM270.012 48.7334C270.404 48.7334 270.754 48.6704 271.062 48.5444C271.383 48.4045 271.649 48.2225 271.859 47.9985C272.083 47.7746 272.251 47.5226 272.363 47.2427C272.475 46.9627 272.531 46.6688 272.531 46.3608C272.531 46.0669 272.468 45.7799 272.342 45.5C272.23 45.2201 272.062 44.9751 271.838 44.7651C271.628 44.5412 271.369 44.3662 271.062 44.2402C270.754 44.1003 270.404 44.0303 270.012 44.0303C269.62 44.0303 269.263 44.1003 268.941 44.2402C268.619 44.3662 268.346 44.5412 268.122 44.7651C267.898 44.9751 267.723 45.2201 267.597 45.5C267.485 45.7799 267.429 46.0669 267.429 46.3608C267.429 46.6688 267.485 46.9627 267.597 47.2427C267.723 47.5226 267.898 47.7746 268.122 47.9985C268.346 48.2225 268.619 48.4045 268.941 48.5444C269.263 48.6704 269.62 48.7334 270.012 48.7334ZM270.012 61.373C270.516 61.373 270.985 61.2961 271.418 61.1421C271.866 60.9881 272.251 60.7712 272.573 60.4912C272.909 60.1973 273.175 59.8613 273.371 59.4834C273.567 59.0915 273.665 58.6646 273.665 58.2026C273.665 57.7267 273.567 57.2998 273.371 56.9219C273.175 56.5299 272.909 56.201 272.573 55.9351C272.251 55.6551 271.866 55.4451 271.418 55.3052C270.985 55.1512 270.516 55.0742 270.012 55.0742C269.508 55.0742 269.032 55.1512 268.584 55.3052C268.15 55.4451 267.765 55.6551 267.429 55.9351C267.107 56.201 266.848 56.5299 266.652 56.9219C266.456 57.2998 266.358 57.7267 266.358 58.2026C266.358 58.6646 266.456 59.0915 266.652 59.4834C266.848 59.8613 267.107 60.1973 267.429 60.4912C267.765 60.7712 268.15 60.9881 268.584 61.1421C269.032 61.2961 269.508 61.373 270.012 61.373Z" fill="#FE0000"/>
<rect x="151" y="74" width="133" height="4" fill="#003D58"/>
<defs>
<clipPath id="clip0_284_126">
<rect width="156" height="156" fill="white"/>
</clipPath>
</defs>
</svg>
