<svg width="550" height="313" viewBox="0 0 550 313" fill="none" xmlns="http://www.w3.org/2000/svg">
<g clip-path="url(#clip0_205_1402)">
<mask id="mask0_205_1402" style="mask-type:luminance" maskUnits="userSpaceOnUse" x="-783" y="-517" width="1476" height="1034">
<path d="M-782.908 -516.27H692.512V516.198H-782.908V-516.27Z" fill="white"/>
</mask>
<g mask="url(#mask0_205_1402)">
<path d="M10.4349 155.785C10.4349 116.827 25.9884 81.4166 51.2333 55.2407L257.814 262.57C256.997 263.321 256.179 264.074 255.343 264.808C254.935 265.167 254.516 265.517 254.104 265.871C252.23 267.482 250.313 269.043 248.359 270.559C247.847 270.954 247.346 271.36 246.829 271.749C245.872 272.472 244.898 273.173 243.924 273.872C243.212 274.382 242.497 274.886 241.777 275.384C240.841 276.031 239.903 276.675 238.952 277.301C238.018 277.915 237.068 278.506 236.12 279.099C234.796 279.927 233.459 280.733 232.108 281.521C231.057 282.131 230.005 282.74 228.938 283.326C228.097 283.787 227.248 284.237 226.397 284.682C225.315 285.25 224.225 285.801 223.128 286.342C222.348 286.726 221.574 287.116 220.787 287.485C219.006 288.325 217.212 289.135 215.393 289.903C214.795 290.156 214.187 290.387 213.586 290.633C212.191 291.2 210.787 291.754 209.373 292.279C208.642 292.552 207.909 292.815 207.175 293.075C205.707 293.596 204.229 294.09 202.74 294.563C202.175 294.744 201.614 294.936 201.047 295.11C199.029 295.726 196.993 296.298 194.941 296.829C194.401 296.969 193.854 297.092 193.313 297.226C191.693 297.625 190.067 297.999 188.429 298.345C187.778 298.482 187.128 298.617 186.476 298.745C184.61 299.111 182.733 299.446 180.844 299.742C180.546 299.789 180.251 299.847 179.953 299.892C177.761 300.221 175.551 300.495 173.329 300.728C172.77 300.787 172.207 300.832 171.648 300.884C169.905 301.045 168.152 301.179 166.391 301.281C165.783 301.316 165.176 301.354 164.566 301.381C162.297 301.484 160.019 301.553 157.723 301.553C76.508 301.553 10.4349 236.162 10.4349 155.785ZM283.727 268.882C282.09 268.882 280.532 269.199 279.096 269.756L272.062 262.796C272.078 262.78 272.093 262.763 272.107 262.745C298.786 234.818 315.17 197.162 315.17 155.787H305.011C305.011 177.152 300.304 197.436 291.925 215.737C289.059 221.992 285.763 228.012 282.07 233.761C282.025 233.833 281.978 233.905 281.93 233.977C279.21 238.196 276.275 242.269 273.143 246.18C273.043 246.303 272.945 246.43 272.845 246.553C271.843 247.796 270.819 249.023 269.778 250.233C269.624 250.412 269.465 250.589 269.31 250.768C267.866 252.427 266.377 254.044 264.861 255.638L58.31 48.3377C84.5293 24.557 119.439 10.0173 157.723 10.0173L157.725 -0.0354357C116.667 -0.0354357 79.2454 15.6178 51.186 41.1884L43.8412 33.8171C44.2093 32.6481 44.4178 31.4114 44.4178 30.1227C44.4178 23.1833 38.7344 17.5568 31.7209 17.5568C24.7091 17.5568 19.0239 23.1833 19.0239 30.1227C19.0239 37.0639 24.7091 42.6904 31.7209 42.6904C33.3577 42.6904 34.9157 42.373 36.3528 41.8145L43.3856 48.7765C16.6808 76.7094 0.277344 114.386 0.277344 155.785C0.277344 241.705 70.907 311.608 157.723 311.608C160.203 311.608 162.668 311.543 165.118 311.431C165.264 311.424 165.411 311.42 165.557 311.413C167.914 311.299 170.255 311.125 172.584 310.909C172.814 310.886 173.045 310.871 173.276 310.848C175.548 310.626 177.803 310.35 180.045 310.035C180.32 309.995 180.595 309.96 180.868 309.92C183.082 309.596 185.278 309.223 187.458 308.808C187.747 308.753 188.036 308.699 188.323 308.644C190.495 308.219 192.65 307.747 194.788 307.235C195.071 307.168 195.351 307.1 195.631 307.031C197.78 306.503 199.911 305.933 202.025 305.317C202.272 305.246 202.517 305.173 202.764 305.1C204.909 304.465 207.035 303.789 209.14 303.067C209.331 303.001 209.522 302.932 209.713 302.866C211.87 302.117 214.006 301.328 216.12 300.488C216.23 300.445 216.341 300.398 216.453 300.355C218.642 299.481 220.808 298.561 222.948 297.594C222.95 297.594 222.951 297.594 222.951 297.594C233.99 292.6 244.346 286.377 253.845 279.108C253.855 279.099 253.867 279.091 253.878 279.084C255.762 277.641 257.611 276.156 259.425 274.633C259.447 274.614 259.47 274.595 259.493 274.576C261.301 273.057 263.075 271.497 264.812 269.898C264.824 269.89 264.835 269.879 264.845 269.87L271.913 276.865C271.35 278.286 271.03 279.83 271.03 281.448C271.03 288.387 276.715 294.014 283.727 294.014C290.738 294.014 296.424 288.387 296.424 281.448C296.424 274.508 290.738 268.882 283.727 268.882Z" fill="white"/>
</g>
<path d="M344.528 145.379V95.0295H334.429V79.99H335.373H362.556V145.379H361.612H344.528Z" fill="#ED1D24"/>
<path d="M427.118 130.993V145.378H426.174H375.299L402.672 113.805C405.126 111.002 406.919 108.76 408.052 107.079C409.184 105.398 409.908 103.841 410.222 102.408C410.286 102.035 410.318 101.692 410.318 101.381C410.381 101.069 410.413 100.727 410.413 100.353C410.413 98.1736 409.752 96.2431 408.431 94.5616C407.109 92.8802 405.284 91.9772 402.956 91.8526C402.579 91.9149 402.044 92.0395 401.351 92.2263C400.722 92.3508 400.03 92.6311 399.275 93.067C398.268 93.6897 397.324 94.7796 396.443 96.3365C395.562 97.8311 395.122 100.042 395.122 102.969H394.178H377.66C377.66 101.848 377.755 100.665 377.943 99.4191C378.132 98.1735 378.384 96.9281 378.699 95.6826C379.894 91.3233 382.317 87.3065 385.966 83.6323C389.679 79.958 395.311 78.1208 402.862 78.1208H403.805C411.797 78.1208 417.806 80.3006 421.834 84.6598C425.861 89.0191 427.874 94.0946 427.874 99.8862C427.874 101.319 427.748 102.72 427.497 104.09C427.245 105.398 426.868 106.705 426.364 108.013C425.043 111.127 422.872 114.427 419.851 117.915C416.894 121.402 412.835 125.762 407.676 130.993H427.118Z" fill="#ED1D24"/>
<path d="M464.965 145.378H445.428L461.284 122.866C460.655 122.99 459.994 123.115 459.302 123.239C458.61 123.302 457.855 123.333 457.037 123.333H456.093C449.989 123.333 445.176 121.278 441.652 117.168C438.128 112.995 436.366 107.888 436.366 101.848C436.366 95.3089 438.6 89.7352 443.068 85.1268C447.535 80.4561 453.859 78.1208 462.04 78.1208H462.983C470.723 78.1208 476.858 80.3316 481.389 84.7532C485.982 89.1125 488.279 94.8107 488.279 101.848C488.279 104.526 488.028 107.048 487.524 109.414C487.084 111.718 486.328 114.023 485.259 116.327C484.692 117.51 484.063 118.724 483.371 119.97C482.679 121.153 481.892 122.368 481.011 123.613L465.909 145.378H464.965ZM462.7 91.8526C459.931 91.9771 457.761 93.0046 456.187 94.9352C454.614 96.8034 453.828 99.0454 453.828 101.661C453.828 104.214 454.614 106.456 456.187 108.387C457.761 110.255 459.931 111.251 462.7 111.376C465.532 111.251 467.703 110.255 469.213 108.387C470.723 106.456 471.478 104.214 471.478 101.661C471.478 99.1076 470.723 96.8657 469.213 94.9352C467.703 93.0046 465.532 91.9771 462.7 91.8526Z" fill="#ED1D24"/>
<path d="M534.813 110.629V110.815C535.505 111.002 536.291 111.282 537.172 111.656C538.116 112.03 539.029 112.528 539.91 113.151C541.797 114.334 543.496 116.047 545.006 118.288C546.58 120.53 547.366 123.582 547.366 127.443C547.366 128.502 547.272 129.685 547.083 130.993C546.894 132.3 546.517 133.639 545.95 135.009C544.692 138.061 542.269 140.863 538.683 143.417C535.096 145.908 529.495 147.153 521.882 147.153L520.938 147.247C513.324 147.184 507.724 145.908 504.137 143.417C500.55 140.863 498.127 138.061 496.869 135.009C496.303 133.639 495.925 132.3 495.736 130.993C495.547 129.685 495.453 128.502 495.453 127.443C495.453 123.582 496.208 120.53 497.718 118.288C499.291 116.047 501.022 114.334 502.91 113.151C503.791 112.528 504.672 112.03 505.553 111.656C506.497 111.282 507.315 111.002 508.007 110.815V110.629C505.49 109.695 503.256 108.044 501.305 105.678C499.417 103.311 498.474 100.135 498.474 96.1496C498.474 91.043 500.361 86.7771 504.137 83.352C507.975 79.8646 513.576 78.1208 520.938 78.1208H521.882C529.244 78.1208 534.812 79.8646 538.588 83.352C542.426 86.7771 544.346 91.043 544.346 96.1496C544.346 100.135 543.37 103.311 541.42 105.678C539.532 108.044 537.33 109.694 534.813 110.629ZM521.41 133.515C523.927 133.39 525.846 132.518 527.167 130.899C528.552 129.218 529.244 127.287 529.244 125.108C529.244 122.803 528.646 121.029 527.451 119.783C526.318 118.538 525.059 117.697 523.675 117.261C523.297 117.136 522.92 117.043 522.542 116.981C522.165 116.918 521.787 116.887 521.41 116.887C519.396 116.95 517.603 117.728 516.029 119.223C514.456 120.655 513.67 122.617 513.67 125.108C513.67 127.225 514.33 129.124 515.652 130.806C517.036 132.487 518.956 133.39 521.41 133.515ZM521.41 105.117C521.472 105.117 521.535 105.117 521.598 105.117C521.724 105.117 521.819 105.086 521.882 105.024C523.392 104.899 524.745 104.276 525.94 103.155C527.199 102.035 527.828 100.353 527.828 98.1112C527.828 96.0561 527.356 94.5304 526.412 93.534C525.468 92.4753 524.462 91.7591 523.392 91.3854C523.014 91.2609 522.668 91.1674 522.354 91.1052C522.039 91.0429 521.724 91.0117 521.41 91.0117C521.095 91.0117 520.717 91.074 520.277 91.1986C519.899 91.2609 519.522 91.3854 519.144 91.5722C518.138 91.9459 517.194 92.6309 516.313 93.6273C515.495 94.6237 515.086 96.1184 515.086 98.1112C515.086 100.353 515.652 102.035 516.785 103.155C517.98 104.214 519.27 104.837 520.654 105.024C520.78 105.024 520.906 105.055 521.032 105.117C521.158 105.117 521.284 105.117 521.41 105.117Z" fill="#ED1D24"/>
<mask id="mask1_205_1402" style="mask-type:luminance" maskUnits="userSpaceOnUse" x="-783" y="-517" width="1476" height="1034">
<path d="M-782.908 -516.27H692.512V516.198H-782.908V-516.27Z" fill="white"/>
</mask>
<g mask="url(#mask1_205_1402)">
<path d="M550.306 155.047H304.944L305.025 164.08H550.306V155.047Z" fill="white"/>
<path d="M149.27 155.786H182.331V281.107C174.355 282.633 166.125 283.458 157.697 283.458C154.862 283.458 152.058 283.335 149.27 283.158V194.28V155.786Z" fill="#ED1D24"/>
<path d="M202.427 116.65V36.006C251.625 54.0076 286.701 100.839 286.701 155.785C286.701 197.379 266.595 234.313 235.488 257.624V116.65H202.427Z" fill="#0092C8"/>
<path d="M105.188 39.1731V194.281V272.399C60.1206 252.49 28.6929 207.785 28.6929 155.785C28.6929 103.787 60.1206 59.0808 105.188 39.1731Z" fill="#0092C8"/>
<path d="M182.331 116.65V155.785H149.27V28.4145C152.058 28.2359 154.862 28.1127 157.697 28.1127C173.424 28.1127 188.491 30.9069 202.427 36.0061V116.65H182.331Z" fill="#003D58"/>
<path d="M149.27 194.28V283.157C133.653 282.16 118.802 278.412 105.187 272.399V194.28H149.27Z" fill="white"/>
<path d="M149.27 155.786V194.28H105.187V39.1737C118.802 33.1587 133.653 29.4123 149.27 28.4133V155.786Z" fill="#FEDA00"/>
<path d="M182.331 116.65H202.427H235.488V257.624C220.097 269.156 202.011 277.338 182.331 281.106V155.786V116.65Z" fill="white"/>
</g>
<path d="M327.022 179.933H363.417V219H352.587V189.499H337.88V219H327.022V179.933ZM373.697 179.933H390.962C393.087 179.933 395.041 180.278 396.822 180.967C398.603 181.657 400.135 182.624 401.418 183.868C402.72 185.094 403.725 186.559 404.434 188.264C405.162 189.949 405.525 191.797 405.525 193.808C405.525 195.991 405.162 197.973 404.434 199.754C403.725 201.516 402.73 203.019 401.446 204.264C400.183 205.508 398.67 206.476 396.908 207.165C395.146 207.835 393.212 208.17 391.105 208.17H384.527V219H373.697V179.933ZM390.473 198.576C391.048 198.576 391.584 198.452 392.082 198.203C392.599 197.954 393.049 197.619 393.432 197.197C393.834 196.757 394.141 196.249 394.351 195.675C394.581 195.1 394.696 194.478 394.696 193.808C394.696 193.31 394.581 192.812 394.351 192.314C394.141 191.797 393.844 191.337 393.461 190.935C393.078 190.514 392.628 190.179 392.111 189.93C391.613 189.661 391.076 189.527 390.502 189.527H384.527V198.576H390.473ZM432.065 219.948C429.115 219.948 426.339 219.412 423.734 218.339C421.13 217.267 418.86 215.802 416.926 213.944C414.992 212.087 413.46 209.913 412.33 207.424C411.219 204.915 410.664 202.243 410.664 199.409C410.664 196.556 411.219 193.894 412.33 191.423C413.46 188.934 414.992 186.76 416.926 184.903C418.86 183.045 421.13 181.59 423.734 180.536C426.339 179.464 429.115 178.928 432.065 178.928C435.014 178.928 437.781 179.464 440.366 180.536C442.971 181.59 445.24 183.045 447.174 184.903C449.128 186.76 450.66 188.934 451.77 191.423C452.9 193.894 453.465 196.556 453.465 199.409C453.465 202.243 452.9 204.915 451.77 207.424C450.66 209.913 449.128 212.087 447.174 213.944C445.24 215.802 442.971 217.267 440.366 218.339C437.781 219.412 435.014 219.948 432.065 219.948ZM432.065 210.066C433.539 210.066 434.918 209.808 436.201 209.291C437.503 208.774 438.633 208.046 439.591 207.108C440.548 206.169 441.295 205.049 441.831 203.747C442.387 202.444 442.664 201.008 442.664 199.438C442.664 197.867 442.387 196.431 441.831 195.129C441.295 193.827 440.548 192.706 439.591 191.768C438.633 190.83 437.503 190.102 436.201 189.585C434.918 189.068 433.539 188.809 432.065 188.809C430.59 188.809 429.202 189.068 427.899 189.585C426.616 190.102 425.496 190.83 424.538 191.768C423.581 192.706 422.824 193.827 422.269 195.129C421.733 196.431 421.465 197.867 421.465 199.438C421.465 201.008 421.742 202.444 422.298 203.747C422.853 205.049 423.61 206.169 424.567 207.108C425.525 208.046 426.645 208.774 427.928 209.291C429.23 209.808 430.609 210.066 432.065 210.066ZM476.069 215.926C473.56 215.601 471.272 215.017 469.203 214.174C467.154 213.331 465.393 212.23 463.918 210.871C462.443 209.492 461.304 207.854 460.5 205.959C459.695 204.043 459.293 201.86 459.293 199.409C459.293 196.958 459.695 194.784 460.5 192.888C461.323 190.992 462.463 189.365 463.918 188.005C465.393 186.626 467.164 185.515 469.232 184.673C471.3 183.83 473.579 183.246 476.069 182.921V179.933H486.841V182.949C489.311 183.275 491.571 183.859 493.62 184.702C495.689 185.544 497.45 186.645 498.906 188.005C500.38 189.365 501.52 190.992 502.324 192.888C503.148 194.784 503.559 196.958 503.559 199.409C503.559 201.841 503.148 204.015 502.324 205.93C501.52 207.826 500.38 209.463 498.906 210.842C497.45 212.202 495.689 213.312 493.62 214.174C491.571 215.017 489.311 215.601 486.841 215.926V219H476.069V215.926ZM476.069 193.003C475.284 193.137 474.537 193.348 473.828 193.635C473.12 193.922 472.488 194.325 471.932 194.842C471.396 195.34 470.965 195.972 470.64 196.738C470.314 197.484 470.151 198.385 470.151 199.438C470.151 200.491 470.314 201.401 470.64 202.167C470.965 202.914 471.396 203.546 471.932 204.063C472.488 204.561 473.12 204.953 473.828 205.24C474.537 205.528 475.284 205.738 476.069 205.872V193.003ZM486.841 205.872C487.626 205.738 488.364 205.528 489.053 205.24C489.761 204.953 490.384 204.561 490.92 204.063C491.475 203.546 491.906 202.914 492.213 202.167C492.538 201.401 492.701 200.491 492.701 199.438C492.701 198.385 492.538 197.484 492.213 196.738C491.906 195.972 491.475 195.34 490.92 194.842C490.384 194.325 489.761 193.922 489.053 193.635C488.364 193.348 487.626 193.137 486.841 193.003V205.872ZM537.481 219V197.398L521.107 219H511.714V179.933H522.515V201.449L538.802 179.933H548.311V219H537.481Z" fill="white"/>
<path d="M312.721 236.621V247.681H315.056L321.305 236.621H331.941L322.107 251.95L332.083 268.694H321.211L315.079 257.304H312.721V268.694H303.83V236.621H312.721ZM339.957 261.643H340.995C342.048 261.643 342.944 261.423 343.683 260.983C344.438 260.527 345.082 259.803 345.617 258.813L346.065 257.964L335.099 236.621H344.886L350.593 249.474L356.395 236.621H366.158L353.871 261.148C353.007 262.877 352.102 264.284 351.159 265.369C350.232 266.454 349.288 267.303 348.329 267.916C347.386 268.529 346.435 268.946 345.476 269.166C344.532 269.386 343.605 269.496 342.693 269.496H339.957V261.643ZM372.028 236.621H386.201C387.947 236.621 389.55 236.904 391.012 237.47C392.475 238.036 393.732 238.83 394.786 239.852C395.855 240.858 396.68 242.061 397.262 243.46C397.859 244.844 398.158 246.361 398.158 248.012C398.158 249.804 397.859 251.431 397.262 252.893C396.68 254.34 395.863 255.574 394.809 256.596C393.772 257.618 392.53 258.412 391.083 258.978C389.637 259.528 388.049 259.803 386.319 259.803H380.919V268.694H372.028V236.621ZM385.8 251.927C386.272 251.927 386.712 251.824 387.121 251.62C387.546 251.416 387.915 251.14 388.23 250.795C388.56 250.433 388.811 250.016 388.984 249.545C389.173 249.073 389.267 248.562 389.267 248.012C389.267 247.603 389.173 247.194 388.984 246.785C388.811 246.361 388.568 245.983 388.253 245.653C387.939 245.307 387.569 245.032 387.145 244.828C386.736 244.608 386.296 244.498 385.824 244.498H380.919V251.927H385.8ZM413.154 236.621V247.681H415.489L421.739 236.621H432.375L422.541 251.95L432.516 268.694H421.644L415.513 257.304H413.154V268.694H404.263V236.621H413.154ZM459.399 268.694V250.96L445.956 268.694H438.244V236.621H447.112V254.285L460.484 236.621H468.29V268.694H459.399ZM476.848 236.621H485.739V248.436H497.79V236.621H506.704V268.694H497.79V256.289H485.739V268.694H476.848V236.621ZM530.945 269.473C528.524 269.473 526.244 269.032 524.106 268.152C521.968 267.271 520.105 266.069 518.517 264.544C516.929 263.019 515.671 261.234 514.743 259.19C513.831 257.131 513.376 254.937 513.376 252.61C513.376 250.268 513.831 248.082 514.743 246.054C515.671 244.01 516.929 242.226 518.517 240.701C520.105 239.176 521.968 237.981 524.106 237.116C526.244 236.236 528.524 235.795 530.945 235.795C533.366 235.795 535.638 236.236 537.761 237.116C539.899 237.981 541.762 239.176 543.35 240.701C544.954 242.226 546.212 244.01 547.123 246.054C548.051 248.082 548.515 250.268 548.515 252.61C548.515 254.937 548.051 257.131 547.123 259.19C546.212 261.234 544.954 263.019 543.35 264.544C541.762 266.069 539.899 267.271 537.761 268.152C535.638 269.032 533.366 269.473 530.945 269.473ZM530.945 261.36C532.156 261.36 533.288 261.148 534.341 260.723C535.41 260.299 536.338 259.701 537.124 258.931C537.91 258.16 538.523 257.241 538.964 256.172C539.419 255.102 539.647 253.923 539.647 252.634C539.647 251.345 539.419 250.166 538.964 249.096C538.523 248.027 537.91 247.108 537.124 246.337C536.338 245.567 535.41 244.969 534.341 244.545C533.288 244.12 532.156 243.908 530.945 243.908C529.735 243.908 528.595 244.12 527.526 244.545C526.472 244.969 525.552 245.567 524.766 246.337C523.98 247.108 523.359 248.027 522.903 249.096C522.463 250.166 522.243 251.345 522.243 252.634C522.243 253.923 522.471 255.102 522.927 256.172C523.383 257.241 524.004 258.16 524.79 258.931C525.576 259.701 526.496 260.299 527.549 260.723C528.618 261.148 529.75 261.36 530.945 261.36Z" fill="white"/>
</g>
<defs>
<clipPath id="clip0_205_1402">
<rect width="550" height="313" fill="white"/>
</clipPath>
</defs>
</svg>
