<svg width="65" height="105" viewBox="0 0 65 105" fill="none" xmlns="http://www.w3.org/2000/svg">
<path d="M24.24 69.6532C24.24 67.0406 24.6097 64.6253 25.3491 62.4071C26.0884 60.1396 27.0743 58.02 28.3066 56.0483C29.539 54.0765 30.9438 52.228 32.5212 50.5028C34.1479 48.7775 35.8485 47.1262 37.623 45.5488C39.3483 43.9714 41.0489 42.468 42.7249 41.0385C44.4009 39.5597 45.8796 38.1056 47.1613 36.6761C48.4429 35.1973 49.4781 33.7185 50.2667 32.2397C51.0554 30.7116 51.4498 29.1096 51.4498 27.4336C51.4498 22.8493 49.8724 19.1523 46.7176 16.3426C43.5629 13.4836 38.8307 12.0541 32.5212 12.0541C26.606 12.0541 21.9971 13.5083 18.6945 16.4166C15.4411 19.2756 13.8145 23.2683 13.8145 28.3948H0.948939C0.948939 24.3528 1.63904 20.6065 3.01925 17.156C4.39946 13.7054 6.42048 10.7232 9.08231 8.20926C11.7934 5.69531 15.1454 3.74823 19.1381 2.36802C23.1309 0.938522 27.7151 0.223771 32.8909 0.223771C37.5245 0.223771 41.7637 0.864582 45.6085 2.1462C49.4534 3.42783 52.756 5.22703 55.5165 7.5438C58.2769 9.86058 60.4211 12.6456 61.9492 15.899C63.4773 19.1523 64.2414 22.7754 64.2414 26.7681C64.2414 29.9229 63.7238 32.7573 62.6886 35.2712C61.6535 37.7852 60.2979 40.1019 58.6219 42.2215C56.946 44.3411 55.0728 46.2882 53.0025 48.0628C50.9322 49.8373 48.8865 51.5379 46.8655 53.1646C43.6122 55.7772 41.0489 58.3897 39.1758 61.0022C37.3519 63.5655 36.44 66.5477 36.44 69.9489V74.0156H24.24V69.6532ZM30.8945 104.553C29.6622 104.553 28.5285 104.331 27.4933 103.887C26.5074 103.493 25.6448 102.951 24.9054 102.261C24.166 101.521 23.5745 100.683 23.1309 99.7467C22.7365 98.7608 22.5393 97.7256 22.5393 96.6412C22.5393 94.423 23.3034 92.5499 24.8315 91.0218C26.3596 89.4444 28.3806 88.6557 30.8945 88.6557C32.1269 88.6557 33.2606 88.8775 34.2958 89.3211C35.3309 89.7155 36.2182 90.2824 36.9576 91.0218C37.697 91.7612 38.2639 92.6238 38.6582 93.6097C39.1018 94.5462 39.3237 95.5567 39.3237 96.6412C39.3237 98.8594 38.535 100.733 36.9576 102.261C35.4295 103.789 33.4085 104.553 30.8945 104.553Z" fill="white"/>
</svg>
