<svg width="96" height="141" viewBox="0 0 96 141" fill="none" xmlns="http://www.w3.org/2000/svg">
<path d="M27.1602 90.2227C27.1602 86.2513 27.4531 82.7357 28.0391 79.6758C28.6901 76.6159 29.569 73.849 30.6758 71.375C31.7826 68.8359 33.1497 66.5247 34.7773 64.4414C36.4049 62.3581 38.2279 60.3398 40.2461 58.3867C42.6549 56.1081 45.0312 54.1224 47.375 52.4297C49.7188 50.737 51.8021 49.1745 53.625 47.7422C55.513 46.3099 57.0104 45.0078 58.1172 43.8359C59.2891 42.599 59.875 41.3294 59.875 40.0273C59.875 39.3763 59.7122 38.6602 59.3867 37.8789C59.1263 37.0977 58.5729 36.3815 57.7266 35.7305C56.8802 35.0143 55.6758 34.4284 54.1133 33.9727C52.6159 33.5169 50.6302 33.2891 48.1562 33.2891C44.0547 33.2891 41.125 34.2331 39.3672 36.1211C37.6094 38.0091 36.7305 40.3529 36.7305 43.1523H0.890625C0.890625 37.293 1.83464 31.7917 3.72266 26.6484C5.67578 21.4401 8.60547 16.9154 12.5117 13.0742C16.4831 9.23307 21.5286 6.20573 27.6484 3.99219C33.7682 1.77865 41.0273 0.671875 49.4258 0.671875C55.7409 0.671875 61.6979 1.55078 67.2969 3.30859C72.9609 5.06641 77.8763 7.57292 82.043 10.8281C86.2747 14.0182 89.5951 17.9245 92.0039 22.5469C94.4779 27.1042 95.7148 32.1823 95.7148 37.7812C95.7148 42.4688 94.9987 46.6029 93.5664 50.1836C92.1992 53.7643 90.3763 56.987 88.0977 59.8516C85.8841 62.651 83.3776 65.1901 80.5781 67.4688C77.7786 69.7474 74.9792 71.8958 72.1797 73.9141C69.9661 75.4766 68.1432 76.8763 66.7109 78.1133C65.2786 79.3503 64.1393 80.5872 63.293 81.8242C62.4466 82.9961 61.8281 84.2656 61.4375 85.6328C61.112 87 60.9492 88.5625 60.9492 90.3203V93.7383H27.1602V90.2227ZM44.6406 140.125C41.8411 140.125 39.2695 139.637 36.9258 138.66C34.582 137.749 32.5964 136.512 30.9688 134.949C29.3411 133.322 28.0716 131.466 27.1602 129.383C26.2487 127.234 25.793 124.956 25.793 122.547C25.793 120.138 26.2161 117.859 27.0625 115.711C27.974 113.562 29.2435 111.707 30.8711 110.145C32.5638 108.517 34.582 107.247 36.9258 106.336C39.2695 105.359 41.8737 104.871 44.7383 104.871C47.6029 104.871 50.207 105.359 52.5508 106.336C54.8945 107.247 56.8802 108.517 58.5078 110.145C60.2005 111.707 61.5026 113.562 62.4141 115.711C63.3255 117.859 63.7812 120.138 63.7812 122.547C63.7812 124.956 63.3255 127.234 62.4141 129.383C61.5026 131.531 60.2005 133.419 58.5078 135.047C56.8802 136.609 54.8945 137.846 52.5508 138.758C50.207 139.669 47.5703 140.125 44.6406 140.125Z" fill="#919191"/>
</svg>
