<svg width="55" height="60" viewBox="0 0 55 60" fill="none" xmlns="http://www.w3.org/2000/svg">
<path fill-rule="evenodd" clip-rule="evenodd" d="M45.5479 54H9.45478C7.51331 54 6.07782 51.9089 6.81206 49.9859C10.211 41.0939 18.1969 36 27.5 36C36.8058 36 44.7917 41.0939 48.1906 49.9859C48.9248 51.9089 47.4894 54 45.5479 54ZM16.2719 18C16.2719 11.382 21.3098 5.99995 27.5 5.99995C33.6928 5.99995 38.728 11.382 38.728 18C38.728 24.618 33.6928 30 27.5 30C21.3098 30 16.2719 24.618 16.2719 18ZM54.8785 52.9079C52.838 42.8309 46.4526 35.3939 38.0515 32.0189C42.5037 28.1879 45.0997 21.9928 44.1454 15.2098C43.0399 7.34079 36.913 1.04393 29.5212 0.125931C19.3134 -1.14307 10.6565 7.34695 10.6565 18C10.6565 23.67 13.115 28.7219 16.9511 32.0189C8.54454 35.3939 2.16464 42.8309 0.121429 52.9079C-0.621058 56.5709 2.14265 60 5.64884 60H49.3511C52.86 60 55.621 56.5709 54.8785 52.9079Z" fill="#003D58"/>
</svg>
