<svg width="60" height="60" viewBox="0 0 60 60" fill="none" xmlns="http://www.w3.org/2000/svg">
<path d="M57.2727 0H2.72727C2.00396 0 1.31026 0.31607 0.7988 0.87868C0.287337 1.44129 0 2.20435 0 3V15C0.00474412 16.8568 0.531487 18.6666 1.50801 20.1812C2.48454 21.6958 3.86305 22.8411 5.45455 23.46V57C5.45455 57.7957 5.74188 58.5587 6.25335 59.1213C6.76481 59.6839 7.4585 60 8.18182 60H51.8182C52.5415 60 53.2352 59.6839 53.7467 59.1213C54.2581 58.5587 54.5455 57.7957 54.5455 57V23.46C56.137 22.8411 57.5155 21.6958 58.492 20.1812C59.4685 18.6666 59.9953 16.8568 60 15V3C60 2.20435 59.7127 1.44129 59.2012 0.87868C58.6897 0.31607 57.996 0 57.2727 0ZM38.1818 6H43.6364V15C43.6364 15.7956 43.349 16.5587 42.8376 17.1213C42.3261 17.6839 41.6324 18 40.9091 18C40.1858 18 39.4921 17.6839 38.9806 17.1213C38.4692 16.5587 38.1818 15.7956 38.1818 15V6ZM27.2727 6H32.7273V15C32.7273 15.7956 32.4399 16.5587 31.9285 17.1213C31.417 17.6839 30.7233 18 30 18C29.2767 18 28.583 17.6839 28.0715 17.1213C27.5601 16.5587 27.2727 15.7956 27.2727 15V6ZM16.3636 6H21.8182V15C21.8182 15.7956 21.5308 16.5587 21.0194 17.1213C20.5079 17.6839 19.8142 18 19.0909 18C18.3676 18 17.6739 17.6839 17.1624 17.1213C16.651 16.5587 16.3636 15.7956 16.3636 15V6ZM8.18182 18C7.4585 18 6.76481 17.6839 6.25335 17.1213C5.74188 16.5587 5.45455 15.7956 5.45455 15V6H10.9091V15C10.9091 15.7956 10.6218 16.5587 10.1103 17.1213C9.59883 17.6839 8.90514 18 8.18182 18ZM35.4545 54H24.5455V42C24.5455 40.4087 25.1201 38.8826 26.1431 37.7574C27.166 36.6321 28.5534 36 30 36C31.4466 36 32.834 36.6321 33.8569 37.7574C34.8799 38.8826 35.4545 40.4087 35.4545 42V54ZM49.0909 54H40.9091V42C40.9091 38.8174 39.7597 35.7652 37.7139 33.5147C35.668 31.2643 32.8933 30 30 30C27.1067 30 24.332 31.2643 22.2861 33.5147C20.2403 35.7652 19.0909 38.8174 19.0909 42V54H10.9091V23.46C11.9116 23.0507 12.8363 22.4404 13.6364 21.66C15.1364 23.1359 17.0784 23.9518 19.0909 23.9518C21.1035 23.9518 23.0454 23.1359 24.5455 21.66C26.0455 23.1359 27.9875 23.9518 30 23.9518C32.0125 23.9518 33.9545 23.1359 35.4545 21.66C36.9546 23.1359 38.8965 23.9518 40.9091 23.9518C42.9216 23.9518 44.8636 23.1359 46.3636 21.66C47.1637 22.4404 48.0884 23.0507 49.0909 23.46V54ZM54.5455 15C54.5455 15.7956 54.2581 16.5587 53.7467 17.1213C53.2352 17.6839 52.5415 18 51.8182 18C51.0949 18 50.4012 17.6839 49.8897 17.1213C49.3782 16.5587 49.0909 15.7956 49.0909 15V6H54.5455V15Z" fill="#003D58"/>
</svg>
