<svg width="110" height="110" viewBox="0 0 110 110" fill="none" xmlns="http://www.w3.org/2000/svg">
<path d="M107.923 42.7583C107.618 41.7924 107.058 40.9336 106.306 40.2791C105.554 39.6245 104.64 39.2002 103.666 39.0541L73.6071 34.5436L60.1677 6.4132C59.7097 5.53865 59.0238 4.81393 58.1877 4.32104C57.3516 3.82814 56.3986 3.58674 55.4365 3.62413V92.3079L82.3205 106.901C83.1916 107.374 84.1734 107.586 85.1549 107.513C86.1365 107.44 87.0787 107.085 87.8749 106.487C88.6711 105.89 89.2897 105.074 89.6606 104.133C90.0315 103.192 90.14 102.162 89.9738 101.16L84.8417 70.2404L106.588 48.3419C107.293 47.6324 107.791 46.7335 108.027 45.7468C108.263 44.7601 108.227 43.7249 107.923 42.7583Z" fill="#B2B1FF"/>
<path d="M50.7052 6.41326L37.2659 34.5437L7.20666 39.0541C6.23247 39.2002 5.31731 39.625 4.56471 40.2803C3.81211 40.9357 3.25211 41.7955 2.94807 42.7625C2.64402 43.7295 2.60807 44.765 2.84426 45.752C3.08046 46.739 3.57939 47.638 4.28461 48.3474L26.0312 70.2405L20.8992 101.16C20.7337 102.161 20.8424 103.19 21.2132 104.131C21.5839 105.071 22.2018 105.886 22.9972 106.483C23.7925 107.08 24.7337 107.436 25.7144 107.51C26.6951 107.584 27.6763 107.373 28.5472 106.902L55.4364 92.3025V3.7168C53.5587 3.72224 51.7285 4.62651 50.7052 6.41326Z" fill="#6563FF"/>
</svg>
