<svg width="73" height="64" viewBox="0 0 73 64" fill="none" xmlns="http://www.w3.org/2000/svg">
<path d="M0 0C1.65 0 3.3 0 5 0C5 19.47 5 38.94 5 59C5.99 59 6.98 59 8 59C8 45.47 8 31.94 8 18C12.62 18 17.24 18 22 18C23 19 23 19 23.1135 22.7854C23.1134 24.4728 23.1077 26.1603 23.0977 27.8477C23.0962 28.7341 23.0948 29.6205 23.0934 30.5338C23.0878 33.3767 23.0752 36.2196 23.0625 39.0625C23.0575 40.985 23.0529 42.9076 23.0488 44.8301C23.0378 49.5534 23.0205 54.2767 23 59C24.65 59 26.3 59 28 59C28 41.51 28 24.02 28 6C32.62 6 37.24 6 42 6C43 7 43 7 43.1203 9.09438C43.118 10.0159 43.1158 10.9375 43.1135 11.887C43.1134 12.928 43.1134 13.969 43.1133 15.0415C43.1081 16.1738 43.103 17.3061 43.0977 18.4727C43.0962 19.6254 43.0948 20.7782 43.0934 21.9659C43.0878 25.6648 43.0752 29.3636 43.0625 33.0625C43.0575 35.5632 43.0529 38.0638 43.0488 40.5645C43.0378 46.7097 43.021 52.8548 43 59C44.65 59 46.3 59 48 59C48 43.49 48 27.98 48 12C52.62 12 57.24 12 62 12C63 13 63 13 63.1203 14.8666C63.118 15.6816 63.1158 16.4965 63.1135 17.3362C63.1134 18.2571 63.1134 19.1779 63.1133 20.1267C63.1081 21.1278 63.103 22.1288 63.0977 23.1602C63.0962 24.1798 63.0948 25.1994 63.0934 26.2499C63.0878 29.5208 63.0752 32.7916 63.0625 36.0625C63.0575 38.2741 63.0529 40.4857 63.0488 42.6973C63.0378 48.1315 63.0205 53.5658 63 59C65.97 59 68.94 59 72 59C72.495 61.475 72.495 61.475 73 64C48.91 64 24.82 64 0 64C0 42.88 0 21.76 0 0Z" fill="#1E88E4"/>
</svg>
