<svg width="53" height="47" viewBox="0 0 53 47" fill="none" xmlns="http://www.w3.org/2000/svg">
<g clip-path="url(#clip0_772_22)">
<path d="M25.6759 0.0834797C25.5062 0.12522 25.208 0.23792 25.0134 0.338098C24.7236 0.48419 24.5787 0.59689 24.2391 0.939164C23.9866 1.18961 23.7257 1.49849 23.5891 1.71137C23.2371 2.26234 20.7693 6.64511 11.3245 23.4791C8.04102 29.3312 4.2275 36.1349 2.84867 38.5893C1.46984 41.0478 0.293906 43.1724 0.235938 43.3101C-0.0911717 44.0907 -0.0621873 44.9547 0.31461 45.6434C0.376719 45.7603 0.57961 46.0024 0.761797 46.1861C1.13859 46.5617 1.49469 46.7663 2.02883 46.9165L2.34352 47L26.6863 46.9917L51.0331 46.9791L51.3685 46.8664C52.8716 46.3488 53.414 44.7836 52.6273 43.2016C52.5403 43.0221 48.9048 36.6066 44.5489 28.9388C40.193 21.2752 34.9923 12.1215 32.9924 8.59858C30.9884 5.07566 29.2286 2.00355 29.0754 1.77398C28.5868 1.03517 27.9657 0.475842 27.3405 0.21705C26.8229 -1.61305e-06 26.2142 -0.0500904 25.6759 0.0834797ZM32.3299 14.3171C35.6134 20.0898 40.6898 29.0223 43.609 34.1647L48.9214 43.5147L37.692 43.5272C31.5142 43.5313 21.4028 43.5313 15.2209 43.5272L3.97906 43.5147L10.8773 31.222C24.0777 7.69281 26.3012 3.74414 26.3384 3.79005C26.355 3.80675 29.0505 8.54431 32.3299 14.3171Z" fill="#B20000"/>
<path d="M26.0443 14.1334C25.9864 14.1459 25.7918 14.1918 25.6137 14.2377C23.9989 14.6468 22.6904 16.2162 22.6904 17.7314C22.6904 17.9234 22.7815 18.7916 22.8975 19.6557C23.0093 20.5197 23.3654 23.2328 23.6842 25.6914C24.5164 32.0986 24.5082 32.0234 24.5786 32.2906C24.7525 32.9793 25.1624 33.5303 25.7007 33.7974C25.9781 33.9352 26.0568 33.956 26.3963 33.9685C27.0257 33.9978 27.4149 33.8433 27.8372 33.4009C28.2471 32.9626 28.4335 32.4659 28.566 31.4641C28.6115 31.1135 28.8186 29.5357 29.0256 27.9537C29.2285 26.3759 29.568 23.7963 29.7709 22.2144C29.9779 20.6366 30.185 19.0588 30.2305 18.7082C30.3299 17.9485 30.334 17.4351 30.2471 17.0928C29.9075 15.7446 28.7564 14.5925 27.3776 14.2294C27.0671 14.1459 26.2762 14.0916 26.0443 14.1334Z" fill="#B20000"/>
<path d="M26.1768 35.5672C24.7483 35.7509 23.7173 37.1158 23.8912 38.5976C23.974 39.2905 24.2473 39.854 24.7359 40.309C25.2079 40.7556 25.7172 40.9768 26.3549 41.0186C27.1292 41.0645 27.7461 40.8224 28.3217 40.238C28.8765 39.6787 29.1167 39.0985 29.1208 38.2971C29.125 37.8129 29.067 37.5332 28.8807 37.1283C28.3838 36.0389 27.3114 35.4211 26.1768 35.5672Z" fill="#B20000"/>
</g>
<defs>
<clipPath id="clip0_772_22">
<rect width="53" height="47" fill="white"/>
</clipPath>
</defs>
</svg>
