<?xml version="1.0" encoding="utf-8"?><svg version="1.1" id="Layer_1" xmlns="http://www.w3.org/2000/svg" xmlns:xlink="http://www.w3.org/1999/xlink" x="0px" y="0px" viewBox="0 0 113.53 96.07" style="enable-background:new 0 0 113.53 96.07" xml:space="preserve"><style type="text/css"><![CDATA[
	.st0{fill-rule:evenodd;clip-rule:evenodd;fill:#4BA042;}
	.st1{fill:#393939;}
]]></style><g><path class="st1" d="M3.49,7.06C1.61,7.06,0,5.45,0,3.49C0,1.61,1.61,0,3.49,0h9.12c0.09,0,0.27,0,0.36,0 c3.22,0.09,6.08,0.71,8.49,2.23c2.68,1.7,4.65,4.29,5.72,8.13c0,0.09,0,0.18,0.09,0.27l0.89,3.57h34.01 c-6.79,16.17-0.71,38.05,18.25,43.97H39.95c1.25,4.65,2.5,7.15,4.2,8.31c2.06,1.34,5.63,1.43,11.62,1.34h0.09l0,0h40.4 c1.97,0,3.48,1.61,3.48,3.49c0,1.96-1.61,3.48-3.48,3.48h-40.4l0,0c-7.42,0.09-11.98-0.09-15.64-2.5 c-3.75-2.5-5.72-6.79-7.69-14.57l0,0L20.56,12.42c0-0.09,0-0.09-0.09-0.18c-0.54-1.97-1.43-3.31-2.68-4.02 c-1.25-0.8-2.95-1.16-4.92-1.16c-0.09,0-0.18,0-0.27,0H3.49L3.49,7.06L3.49,7.06z M85.79,78.91c4.74,0,8.58,3.84,8.58,8.58 c0,4.74-3.84,8.58-8.58,8.58s-8.58-3.84-8.58-8.58C77.22,82.76,81.06,78.91,85.79,78.91L85.79,78.91L85.79,78.91z M48.17,78.91 c4.74,0,8.58,3.84,8.58,8.58c0,4.74-3.84,8.58-8.58,8.58c-4.74,0-8.58-3.84-8.58-8.58C39.59,82.76,43.43,78.91,48.17,78.91 L48.17,78.91L48.17,78.91z"/><path class="st0" d="M91.02,5.28c12.43,0,22.51,10.08,22.51,22.51c0,12.43-10.08,22.51-22.51,22.51 C61.42,50.3,61.42,5.28,91.02,5.28L91.02,5.28L91.02,5.28z M81.06,28.39c0.3-1.75,2.3-2.73,3.88-1.78c0.14,0.09,0.28,0.19,0.41,0.3 l0.01,0.01c0.71,0.68,1.5,1.39,2.28,2.08l0.68,0.6l8-8.39c0.48-0.5,0.83-0.83,1.55-0.99c2.45-0.54,4.18,2.46,2.45,4.29L90.34,35 c-0.94,1-2.62,1.09-3.63,0.13c-0.58-0.53-1.21-1.08-1.84-1.64c-1.1-0.96-2.22-1.94-3.14-2.9C81.17,30.05,80.93,29.14,81.06,28.39 L81.06,28.39L81.06,28.39L81.06,28.39z"/></g></svg>