<svg width="55" height="56" viewBox="0 0 55 56" fill="none" xmlns="http://www.w3.org/2000/svg">
<path fill-rule="evenodd" clip-rule="evenodd" d="M55 0H28C12.536 0 0 12.536 0 28C0 43.464 12.536 56 28 56H55V0Z" fill="#AE6CD1"/>
<g clip-path="url(#clip0_541_43)">
<path d="M38.5199 41H23.5199C22.6854 40.9998 21.8619 40.8091 21.1124 40.4423C20.3628 40.0755 19.7069 39.5423 19.1947 38.8835C18.6825 38.2247 18.3275 37.4576 18.1568 36.6407C17.9862 35.8238 18.0043 34.9788 18.2099 34.17L21.2499 21.76C21.3047 21.5381 21.4338 21.3417 21.6157 21.2034C21.7976 21.0651 22.0215 20.9933 22.2499 21H38.9999C39.2205 20.9899 39.4382 21.0531 39.6191 21.1797C39.8 21.3064 39.9339 21.4893 39.9999 21.7L43.7799 33.86C44.0383 34.6859 44.0979 35.5612 43.9536 36.4145C43.8094 37.2678 43.4654 38.0749 42.9499 38.77C42.4428 39.468 41.7761 40.0346 41.0055 40.4226C40.2349 40.8105 39.3826 41.0085 38.5199 41ZM22.9999 23L20.1099 34.65C19.9812 35.164 19.9709 35.7005 20.0797 36.2191C20.1886 36.7376 20.4138 37.2247 20.7383 37.6436C21.0628 38.0625 21.4781 38.4022 21.9531 38.6372C22.428 38.8721 22.9501 38.9962 23.4799 39H38.4799C39.0241 39.0009 39.5608 38.8726 40.0458 38.6258C40.5308 38.3789 40.9503 38.0205 41.2699 37.58C41.5987 37.137 41.8181 36.6225 41.9102 36.0785C42.0023 35.5346 41.9645 34.9766 41.7999 34.45L38.2799 23H22.9999Z" fill="white"/>
<path d="M35 29C34.7348 29 34.4804 28.8946 34.2929 28.7071C34.1054 28.5196 34 28.2652 34 28V20C34 19.2044 33.6839 18.4413 33.1213 17.8787C32.5587 17.3161 31.7956 17 31 17C30.2044 17 29.4413 17.3161 28.8787 17.8787C28.3161 18.4413 28 19.2044 28 20V28C28 28.2652 27.8946 28.5196 27.7071 28.7071C27.5196 28.8946 27.2652 29 27 29C26.7348 29 26.4804 28.8946 26.2929 28.7071C26.1054 28.5196 26 28.2652 26 28V20C26 18.6739 26.5268 17.4021 27.4645 16.4645C28.4021 15.5268 29.6739 15 31 15C32.3261 15 33.5979 15.5268 34.5355 16.4645C35.4732 17.4021 36 18.6739 36 20V28C36 28.2652 35.8946 28.5196 35.7071 28.7071C35.5196 28.8946 35.2652 29 35 29Z" fill="white"/>
</g>
<defs>
<clipPath id="clip0_541_43">
<rect width="32" height="32" fill="white" transform="translate(15 12)"/>
</clipPath>
</defs>
</svg>
