<svg width="24" height="24" viewBox="0 0 24 24" fill="none" xmlns="http://www.w3.org/2000/svg">
<g clip-path="url(#clip0_671_47)">
<path fill-rule="evenodd" clip-rule="evenodd" d="M19.5 3H17.25V2.25C17.25 1.83579 16.9142 1.5 16.5 1.5C16.0858 1.5 15.75 1.83579 15.75 2.25V3H8.25V2.25C8.25 1.83579 7.91421 1.5 7.5 1.5C7.08579 1.5 6.75 1.83579 6.75 2.25V3H4.5C3.67157 3 3 3.67157 3 4.5V19.5C3 20.3284 3.67157 21 4.5 21H19.5C20.3284 21 21 20.3284 21 19.5V4.5C21 3.67157 20.3284 3 19.5 3ZM6.75 4.5V5.25C6.75 5.66421 7.08579 6 7.5 6C7.91421 6 8.25 5.66421 8.25 5.25V4.5H15.75V5.25C15.75 5.66421 16.0858 6 16.5 6C16.9142 6 17.25 5.66421 17.25 5.25V4.5H19.5V7.5H4.5V4.5H6.75ZM19.5 19.5H4.5V9H19.5V19.5ZM10.5 11.25V17.25C10.5 17.6642 10.1642 18 9.75 18C9.33579 18 9 17.6642 9 17.25V12.4631L8.58562 12.6713C8.2149 12.8566 7.76411 12.7063 7.57875 12.3356C7.39339 11.9649 7.54365 11.5141 7.91437 11.3287L9.41438 10.5787C9.64695 10.4624 9.92322 10.4748 10.1444 10.6116C10.3656 10.7483 10.5002 10.9899 10.5 11.25ZM16.0462 14.1047L14.25 16.5H15.75C16.1642 16.5 16.5 16.8358 16.5 17.25C16.5 17.6642 16.1642 18 15.75 18H12.75C12.4659 18 12.2062 17.8395 12.0792 17.5854C11.9521 17.3313 11.9796 17.0273 12.15 16.8L14.8481 13.2028C15.0153 12.9802 15.0455 12.6833 14.9264 12.4316C14.8073 12.1799 14.5586 12.0149 14.2804 12.003C14.0023 11.9912 13.7404 12.1344 13.6003 12.375C13.4702 12.6146 13.2203 12.7647 12.9476 12.7671C12.675 12.7694 12.4226 12.6236 12.2884 12.3863C12.1542 12.1489 12.1593 11.8574 12.3019 11.625C12.8112 10.7435 13.849 10.3139 14.8324 10.5774C15.8158 10.8409 16.4997 11.7319 16.5 12.75C16.5016 13.2391 16.3421 13.7152 16.0462 14.1047Z" fill="#141C24"/>
</g>
<defs>
<clipPath id="clip0_671_47">
<rect width="24" height="24" fill="white"/>
</clipPath>
</defs>
</svg>
