<svg width="82" height="82" viewBox="0 0 82 82" fill="none" xmlns="http://www.w3.org/2000/svg">
<path fill-rule="evenodd" clip-rule="evenodd" d="M73.9346 41.1492C72.5077 40.994 61.464 36.623 60.016 36.6214C57.8131 36.6269 53.2369 34.6018 49.9463 35.0036C47.3337 35.3226 45.9242 38.0079 44.3608 38.5009L44.3711 44.2678C46.3524 44.8926 47.9093 47.6724 49.9288 48.2989C51.51 48.7893 53.5232 47.2123 55.2585 47.2168C56.7075 47.2083 61.6583 45.718 63.0842 45.5559L73.9346 41.1492Z" fill="#FEDA00"/>
<path fill-rule="evenodd" clip-rule="evenodd" d="M73.9346 41.1492C72.5077 40.994 61.464 36.623 60.016 36.6214C57.8131 36.6269 53.2369 34.6018 49.9463 35.0036C47.3337 35.3226 45.9242 38.0079 44.3608 38.5009L44.3711 44.2678C46.3524 44.8926 47.9093 47.6724 49.9288 48.2989C51.51 48.7893 53.5232 47.2123 55.2585 47.2168C56.7075 47.2083 61.6583 45.718 63.0842 45.5559L73.9346 41.1492Z" fill="#FEDA00"/>
<path d="M41.845 8.47206C33.3428 8.47206 25.594 11.7707 19.7835 17.1591L18.2627 15.6056C18.3389 15.3592 18.3821 15.0988 18.3821 14.8272C18.3821 13.3649 17.2053 12.1791 15.753 12.1791C14.301 12.1791 13.1235 13.3649 13.1235 14.8272C13.1235 16.2899 14.301 17.4754 15.753 17.4754C16.0919 17.4754 16.4144 17.4084 16.712 17.2907L18.1682 18.7579C12.6382 24.6441 9.2417 32.5838 9.2417 41.3077C9.2417 59.4133 23.8673 74.1436 41.845 74.1436H41.8456C42.3591 74.1436 42.8691 74.13 43.3765 74.1062C43.4066 74.1047 43.4371 74.1042 43.4672 74.1027C43.9553 74.0786 44.4401 74.0418 44.9224 73.9961C44.97 73.9914 45.0179 73.9882 45.0658 73.9834C45.5361 73.9366 46.0033 73.8786 46.4675 73.8121C46.5245 73.8037 46.5813 73.7964 46.6379 73.788C47.0963 73.7196 47.551 73.6408 48.0024 73.5535C48.0623 73.5418 48.1222 73.5306 48.1817 73.5189C48.6313 73.4294 49.0779 73.33 49.5207 73.2222C49.5791 73.208 49.6372 73.1937 49.6952 73.1791C50.1401 73.068 50.5814 72.9477 51.0191 72.818C51.0703 72.803 51.121 72.7877 51.1722 72.7723C51.6164 72.6385 52.0564 72.496 52.4923 72.3439C52.5319 72.3301 52.5715 72.3153 52.6111 72.3014C53.0578 72.1435 53.5001 71.9773 53.9378 71.8004C53.9606 71.7913 53.9835 71.7813 54.0068 71.7722C54.46 71.588 54.9086 71.3942 55.3517 71.1902H55.3525C57.6384 70.138 59.7831 68.8269 61.75 67.2951C61.7522 67.2933 61.7548 67.2915 61.7569 67.29C62.1471 66.9859 62.5297 66.673 62.9053 66.3521L62.9195 66.34C63.294 66.0199 63.6613 65.6912 64.0209 65.3542C64.0235 65.3523 64.0257 65.3503 64.0279 65.3485L65.4916 66.8223C65.3751 67.1217 65.3086 67.4472 65.3086 67.7882C65.3086 69.2505 66.4857 70.436 67.9377 70.436C69.3897 70.436 70.5672 69.2505 70.5672 67.7882C70.5672 66.3259 69.3897 65.14 67.9377 65.14C67.5988 65.14 67.2762 65.207 66.979 65.3244L65.5222 63.8575C65.5255 63.8542 65.5287 63.8507 65.5316 63.847C71.0562 57.9619 74.449 50.0268 74.449 41.308H72.3453C72.3453 45.8101 71.3706 50.0843 69.6355 53.9409C69.0422 55.2589 68.3596 56.5277 67.5949 57.7393C67.5855 57.7543 67.5757 57.7697 67.5659 57.7847C67.0027 58.6739 66.3947 59.5319 65.7462 60.3561C65.7255 60.382 65.7051 60.4088 65.6844 60.4348C65.4768 60.6968 65.2651 60.9551 65.0496 61.2103C65.0176 61.2479 64.9845 61.2853 64.9525 61.3229C64.6535 61.6727 64.3449 62.0132 64.031 62.349L60.2818 58.5199C59.8224 59.0344 59.3431 59.5295 58.8452 60.0042L62.572 63.8102C62.4029 63.9685 62.2334 64.1268 62.0603 64.2814C61.9758 64.357 61.8888 64.4312 61.8036 64.5057C61.4156 64.8453 61.0185 65.174 60.6139 65.4935C60.5079 65.5768 60.4043 65.6623 60.2973 65.7441C60.0991 65.8965 59.8973 66.0442 59.6955 66.1915C59.5482 66.299 59.4001 66.4055 59.251 66.5104C59.0572 66.6467 58.863 66.7821 58.6659 66.914C58.4725 67.0434 58.2759 67.1682 58.0796 67.2932C57.8056 67.4675 57.5286 67.6375 57.2488 67.8034C57.031 67.9321 56.8132 68.0603 56.5922 68.1838C56.418 68.2811 56.2424 68.3758 56.0661 68.4697C55.8421 68.5892 55.6165 68.7054 55.3893 68.8194C55.2278 68.9002 55.0674 68.9824 54.9045 69.0602C54.5357 69.2371 54.164 69.4079 53.7873 69.5698C53.6635 69.6232 53.5378 69.6718 53.4133 69.7237C53.1244 69.8432 52.8338 69.9598 52.5409 70.0705C52.3896 70.1279 52.2377 70.1835 52.0856 70.2383C51.7815 70.348 51.4757 70.4521 51.1673 70.5518C51.0504 70.5899 50.9342 70.6305 50.8166 70.667C50.3989 70.7968 49.9772 70.9172 49.5523 71.0291C49.4405 71.0587 49.3273 71.0847 49.2152 71.1128C48.8798 71.1969 48.5428 71.2758 48.2035 71.3486C48.0689 71.3775 47.9343 71.4059 47.7993 71.433C47.4128 71.5101 47.0242 71.5808 46.633 71.6433C46.5713 71.6532 46.5103 71.6653 46.4487 71.6748C45.9947 71.7442 45.5371 71.8019 45.0769 71.8509C44.9611 71.8633 44.8445 71.8729 44.7288 71.8839C44.3677 71.9179 44.005 71.9457 43.6402 71.9673C43.5143 71.9746 43.3885 71.9827 43.2622 71.9886C42.7922 72.0101 42.3205 72.0247 41.8451 72.0247C25.0272 72.0247 11.3451 58.2452 11.3451 41.3077C11.345 33.0981 14.5659 25.636 19.7936 20.1201L23.0131 23.4086C23.4725 22.8942 23.9518 22.3991 24.4498 21.9246L21.2589 18.6656C26.6883 13.6544 33.9173 10.5903 41.845 10.5903H41.8456V8.47206H41.845Z" fill="#003D58"/>
<path d="M53.3522 48.9051L60.5358 60.7487L48.7759 53.514L49.8918 50.029L53.3522 48.9051Z" fill="#ED1D24"/>
<path d="M53.3522 35.342L49.8918 34.2182L48.7759 30.7332L60.5345 23.4984L60.5358 23.4997L53.3522 35.342Z" fill="#0092C8"/>
<path d="M53.3522 48.9051L60.5358 60.7487L48.7759 53.514L49.8918 50.029L53.3522 48.9051Z" fill="#ED1D24"/>
<path d="M53.3522 35.342L49.8918 34.2182L48.7759 30.7332L60.5345 23.4984L60.5358 23.4997L53.3522 35.342Z" fill="#0092C8"/>
<path d="M35.3088 53.514L23.5501 60.7487L23.5488 60.7474L30.7325 48.9051L34.1928 50.029L35.3088 53.514Z" fill="#0092C8"/>
<path d="M35.3088 30.7332L34.1928 34.2182L30.7325 35.342L23.5488 23.4984L35.3088 30.7332Z" fill="#FEDA00"/>
<path d="M35.3088 53.514L23.5501 60.7487L23.5488 60.7474L30.7325 48.9051L34.1928 50.029L35.3088 53.514Z" fill="#0092C8"/>
<path d="M35.3088 30.7332L34.1928 34.2182L30.7325 35.342L23.5488 23.4984L35.3088 30.7332Z" fill="#FEDA00"/>
<path d="M8.97205 40.4226C8.43161 40.5976 8.06543 41.1023 8.06543 41.6721C8.06543 42.2418 8.43161 42.7466 8.97205 42.9214L14.2422 44.6273C15.6206 57.4919 25.8073 67.6987 38.6117 69.0805L40.3118 74.369C40.4862 74.9111 40.9891 75.2787 41.5569 75.2787C42.1246 75.2787 42.6277 74.9111 42.8019 74.369L44.502 69.0808C57.3065 67.7019 67.4962 57.4852 68.8714 44.6276L74.1418 42.9217C74.6821 42.7467 75.0484 42.2419 75.0484 41.6722C75.0484 41.1025 75.5752 41.2336 75.0347 41.0586L68.8713 38.7168C67.493 25.8539 57.3078 15.6454 44.502 14.2636L42.8019 8.97529C42.6276 8.43314 42.1246 8.06557 41.5568 8.06557C40.989 8.06557 40.486 8.43314 40.3117 8.97529L38.6116 14.2635C25.8046 15.6453 15.6199 25.8582 14.2423 38.7166L8.97205 40.4226ZM32.6679 50.5916L33.2618 52.4393L31.1804 53.7154L29.5787 54.6974L27.0014 56.2775L29.4529 52.2509L30.8261 49.9954L32.6679 50.5916ZM22.8436 58.0706C19.7487 54.5169 17.7206 50.1587 16.9979 45.5193L28.2648 49.1663L22.8436 58.0706ZM25.2144 60.4497L34.0883 55.0098L37.7229 66.3156C33.0994 65.5905 28.7582 63.5572 25.2144 60.4497ZM52.2872 49.9956L56.1109 56.2762L49.8516 52.4395L50.4457 50.5917L52.2872 49.9956ZM49.0254 55.0098L57.9007 60.45C54.3566 63.5586 50.0148 65.592 45.3907 66.3161L49.0254 55.0098ZM60.2703 58.0722L54.8489 49.1663L66.1164 45.5191C65.3948 50.1593 63.3681 54.5159 60.2703 58.0722ZM50.4458 32.7526L49.8519 30.9049L56.1123 27.0666L52.2876 33.3487L50.4458 32.7526ZM60.2701 25.2735C63.367 28.8295 65.3936 33.1855 66.1159 37.8248L54.8489 34.1778L60.2701 25.2735ZM57.8995 22.8944L49.0255 28.3344L45.3911 17.0288C50.0146 17.754 54.3582 19.789 57.8995 22.8944ZM47.9158 33.4348L44.3302 37.0327C43.8194 37.5453 43.8194 38.3765 44.3302 38.8893C44.8412 39.4019 45.6695 39.4018 46.1804 38.8893L49.7659 35.2914C51.7384 35.9298 67.1023 40.9029 69.4786 41.6722C65.0449 43.1073 52.4888 47.1716 49.7659 48.053L46.1804 44.4551C45.6695 43.9427 44.8411 43.9427 44.3302 44.4551C43.8194 44.9677 43.8192 45.799 44.3302 46.3117L47.9158 49.9096C47.6504 50.7349 42.3553 67.2064 41.5569 69.6902C39.0246 61.8133 35.7649 51.6733 35.1979 49.9096L38.7835 46.3117C39.2944 45.7991 39.2944 44.9678 38.7835 44.4551C38.2726 43.9426 37.4442 43.9426 36.9334 44.4551L33.3478 48.053C31.3728 47.4135 16.0336 42.4486 13.635 41.6721C16.2227 40.8344 31.2033 35.9855 33.3478 35.2913L36.9334 38.8892C37.4444 39.4018 38.2726 39.4018 38.7835 38.8892C39.2944 38.3765 39.2945 37.5453 38.7835 37.0325L35.1979 33.4347C35.8348 31.4536 40.775 16.0861 41.5569 13.654C42.3877 16.2388 47.2238 31.2819 47.9158 33.4348ZM32.6679 32.7526L30.8266 33.3485L27.0028 27.0679L33.2621 30.9046L32.6679 32.7526ZM34.0883 28.3344L25.2133 22.8943C28.7546 19.7888 33.0985 17.7538 37.7227 17.0287L34.0883 28.3344ZM22.8435 25.2722L28.2648 34.1778L16.9977 37.8249C17.7201 33.1848 19.7466 28.8284 22.8435 25.2722Z" fill="#003D58"/>
<path d="M8.97205 40.4226C8.43161 40.5976 8.06543 41.1023 8.06543 41.6721C8.06543 42.2418 8.43161 42.7466 8.97205 42.9214L14.2422 44.6273C15.6206 57.4919 25.8073 67.6987 38.6117 69.0805L40.3118 74.369C40.4862 74.9111 40.9891 75.2787 41.5569 75.2787C42.1246 75.2787 42.6277 74.9111 42.8019 74.369L44.502 69.0808C57.3065 67.7019 67.4962 57.4852 68.8714 44.6276L74.1418 42.9217C74.6821 42.7467 75.0484 42.2419 75.0484 41.6722C75.0484 41.1025 75.5752 41.2336 75.0347 41.0586L68.8713 38.7168C67.493 25.8539 57.3078 15.6454 44.502 14.2636L42.8019 8.97529C42.6276 8.43314 42.1246 8.06557 41.5568 8.06557C40.989 8.06557 40.486 8.43314 40.3117 8.97529L38.6116 14.2635C25.8046 15.6453 15.6199 25.8582 14.2423 38.7166L8.97205 40.4226ZM32.6679 50.5916L33.2618 52.4393L31.1804 53.7154L29.5787 54.6974L27.0014 56.2775L29.4529 52.2509L30.8261 49.9954L32.6679 50.5916ZM22.8436 58.0706C19.7487 54.5169 17.7206 50.1587 16.9979 45.5193L28.2648 49.1663L22.8436 58.0706ZM25.2144 60.4497L34.0883 55.0098L37.7229 66.3156C33.0994 65.5905 28.7582 63.5572 25.2144 60.4497ZM52.2872 49.9956L56.1109 56.2762L49.8516 52.4395L50.4457 50.5917L52.2872 49.9956ZM49.0254 55.0098L57.9007 60.45C54.3566 63.5586 50.0148 65.592 45.3907 66.3161L49.0254 55.0098ZM60.2703 58.0722L54.8489 49.1663L66.1164 45.5191C65.3948 50.1593 63.3681 54.5159 60.2703 58.0722ZM50.4458 32.7526L49.8519 30.9049L56.1123 27.0666L52.2876 33.3487L50.4458 32.7526ZM60.2701 25.2735C63.367 28.8295 65.3936 33.1855 66.1159 37.8248L54.8489 34.1778L60.2701 25.2735ZM57.8995 22.8944L49.0255 28.3344L45.3911 17.0288C50.0146 17.754 54.3582 19.789 57.8995 22.8944ZM47.9158 33.4348L44.3302 37.0327C43.8194 37.5453 43.8194 38.3765 44.3302 38.8893C44.8412 39.4019 45.6695 39.4018 46.1804 38.8893L49.7659 35.2914C51.7384 35.9298 67.1023 40.9029 69.4786 41.6722C65.0449 43.1073 52.4888 47.1716 49.7659 48.053L46.1804 44.4551C45.6695 43.9427 44.8411 43.9427 44.3302 44.4551C43.8194 44.9677 43.8192 45.799 44.3302 46.3117L47.9158 49.9096C47.6504 50.7349 42.3553 67.2064 41.5569 69.6902C39.0246 61.8133 35.7649 51.6733 35.1979 49.9096L38.7835 46.3117C39.2944 45.7991 39.2944 44.9678 38.7835 44.4551C38.2726 43.9426 37.4442 43.9426 36.9334 44.4551L33.3478 48.053C31.3728 47.4135 16.0336 42.4486 13.635 41.6721C16.2227 40.8344 31.2033 35.9855 33.3478 35.2913L36.9334 38.8892C37.4444 39.4018 38.2726 39.4018 38.7835 38.8892C39.2944 38.3765 39.2945 37.5453 38.7835 37.0325L35.1979 33.4347C35.8348 31.4536 40.775 16.0861 41.5569 13.654C42.3877 16.2388 47.2238 31.2819 47.9158 33.4348ZM32.6679 32.7526L30.8266 33.3485L27.0028 27.0679L33.2621 30.9046L32.6679 32.7526ZM34.0883 28.3344L25.2133 22.8943C28.7546 19.7888 33.0985 17.7538 37.7227 17.0287L34.0883 28.3344ZM22.8435 25.2722L28.2648 34.1778L16.9977 37.8249C17.7201 33.1848 19.7466 28.8284 22.8435 25.2722Z" fill="#003D58"/>
<path d="M37.6393 41.6721H29.5737C28.8313 41.6721 28.2295 41.9731 28.2295 42.3443C28.2295 42.7154 28.8313 43.0164 29.5737 43.0164H37.6393C38.3817 43.0164 38.9836 42.7154 38.9836 42.3443C38.9836 41.9731 38.3817 41.6721 37.6393 41.6721Z" fill="#003D58"/>
<path d="M37.6393 41.6721H29.5737C28.8313 41.6721 28.2295 41.9731 28.2295 42.3443C28.2295 42.7154 28.8313 43.0164 29.5737 43.0164H37.6393C38.3817 43.0164 38.9836 42.7154 38.9836 42.3443C38.9836 41.9731 38.3817 41.6721 37.6393 41.6721Z" fill="#003D58"/>
<path d="M47.0494 43.0164H57.8035C58.5459 43.0164 59.1477 42.7154 59.1477 42.3443C59.1477 41.9731 58.5459 41.6721 57.8035 41.6721H47.0494C46.3069 41.6721 45.7051 41.9731 45.7051 42.3443C45.7051 42.7154 46.3069 43.0164 47.0494 43.0164Z" fill="#003D58"/>
<path d="M47.0494 43.0164H57.8035C58.5459 43.0164 59.1477 42.7154 59.1477 42.3443C59.1477 41.9731 58.5459 41.6721 57.8035 41.6721H47.0494C46.3069 41.6721 45.7051 41.9731 45.7051 42.3443C45.7051 42.7154 46.3069 43.0164 47.0494 43.0164Z" fill="#003D58"/>
<path d="M42.3445 38.9836C42.7157 38.9836 43.0166 38.3816 43.0166 37.6394V29.5738C43.0166 28.8315 42.7157 28.2295 42.3445 28.2295C41.9733 28.2295 41.6724 28.8315 41.6724 29.5738V37.6394C41.6724 38.3816 41.9733 38.9836 42.3445 38.9836Z" fill="#003D58"/>
<path d="M42.3445 38.9836C42.7157 38.9836 43.0166 38.3816 43.0166 37.6394V29.5738C43.0166 28.8315 42.7157 28.2295 42.3445 28.2295C41.9733 28.2295 41.6724 28.8315 41.6724 29.5738V37.6394C41.6724 38.3816 41.9733 38.9836 42.3445 38.9836Z" fill="#003D58"/>
<path d="M42.3445 56.459C42.7157 56.459 43.0166 55.8571 43.0166 55.1148V47.0492C43.0166 46.3069 42.7157 45.7049 42.3445 45.7049C41.9733 45.7049 41.6724 46.3069 41.6724 47.0492V55.1148C41.6724 55.8571 41.9733 56.459 42.3445 56.459Z" fill="#003D58"/>
<path d="M42.3445 56.459C42.7157 56.459 43.0166 55.8571 43.0166 55.1148V47.0492C43.0166 46.3069 42.7157 45.7049 42.3445 45.7049C41.9733 45.7049 41.6724 46.3069 41.6724 47.0492V55.1148C41.6724 55.8571 41.9733 56.459 42.3445 56.459Z" fill="#003D58"/>
<path fill-rule="evenodd" clip-rule="evenodd" d="M16.1313 12.9588C35.1426 -0.725036 34.8484 29.5738 34.8484 29.5738L61.8363 10.7673" fill="#D40000" fill-opacity="0.0157068"/>
<path fill-rule="evenodd" clip-rule="evenodd" d="M16.1313 12.9588C35.1426 -0.725036 34.8484 29.5738 34.8484 29.5738L61.8363 10.7673" fill="#D40000" fill-opacity="0.0157068"/>
</svg>
