<svg width="24" height="24" viewBox="0 0 24 24" fill="none" xmlns="http://www.w3.org/2000/svg">
<g clip-path="url(#clip0_671_33)">
<path fill-rule="evenodd" clip-rule="evenodd" d="M20.5153 9.72844L13.0153 2.65219C13.0116 2.64899 13.0082 2.64554 13.005 2.64188C12.4328 2.1215 11.5588 2.1215 10.9866 2.64188L10.9762 2.65219L3.48469 9.72844C3.17573 10.0125 2.99994 10.4131 3 10.8328V19.5C3 20.3284 3.67157 21 4.5 21H9C9.82843 21 10.5 20.3284 10.5 19.5V15H13.5V19.5C13.5 20.3284 14.1716 21 15 21H19.5C20.3284 21 21 20.3284 21 19.5V10.8328C21.0001 10.4131 20.8243 10.0125 20.5153 9.72844ZM19.5 19.5H15V15C15 14.1716 14.3284 13.5 13.5 13.5H10.5C9.67157 13.5 9 14.1716 9 15V19.5H4.5V10.8328L4.51031 10.8234L12 3.75L19.4906 10.8216L19.5009 10.8309L19.5 19.5Z" fill="#141C24"/>
</g>
<defs>
<clipPath id="clip0_671_33">
<rect width="24" height="24" fill="white"/>
</clipPath>
</defs>
</svg>
