<svg width="146" height="36" viewBox="0 0 146 36" fill="none" xmlns="http://www.w3.org/2000/svg">
<path d="M1.748 34.736C1.748 33.6933 1.725 32.413 1.679 30.895C1.64833 29.377 1.60233 27.7057 1.541 25.881C1.495 24.0563 1.426 22.1703 1.334 20.223C1.25733 18.2603 1.173 16.313 1.081 14.381C1.00433 12.449 0.92 10.6167 0.828 8.884C0.751333 7.136 0.674667 5.572 0.598 4.192C1.27267 4.06933 2.03933 3.985 2.898 3.939C3.772 3.87766 4.577 3.847 5.313 3.847C6.233 3.847 7.09167 3.88533 7.889 3.962C8.68633 4.02333 9.30733 4.09233 9.752 4.169C9.752 4.583 9.75967 5.227 9.775 6.101C9.80567 6.975 9.82867 7.964 9.844 9.068C9.87467 10.172 9.90533 11.2837 9.936 12.403C9.982 13.5223 10.028 14.519 10.074 15.393C10.5493 14.9177 11.0477 14.2813 11.569 13.484C12.0903 12.6713 12.6347 11.7437 13.202 10.701C13.7693 9.65833 14.352 8.53133 14.95 7.32C15.548 6.09333 16.1613 4.82067 16.79 3.502C18.3233 4.66733 19.8183 5.67933 21.275 6.538C22.7317 7.38133 23.7667 7.964 24.38 8.286C24.242 8.71533 23.9277 9.35167 23.437 10.195C22.9463 11.023 22.3637 11.943 21.689 12.955C21.0143 13.9517 20.3013 14.9253 19.55 15.876C18.7987 16.8267 18.0857 17.624 17.411 18.268C18.1163 19.1267 18.8217 20.039 19.527 21.005C20.2323 21.9557 20.8993 22.9063 21.528 23.857C22.172 24.8077 22.7547 25.7047 23.276 26.548C23.7973 27.3913 24.2343 28.1427 24.587 28.802C24.9397 29.446 25.185 29.9367 25.323 30.274C24.8477 30.5807 24.1347 30.987 23.184 31.493C22.2487 31.999 21.2443 32.4973 20.171 32.988C19.0977 33.4633 18.124 33.839 17.25 34.115C17.0507 33.6243 16.7747 33.0263 16.422 32.321C16.0847 31.6003 15.7013 30.8337 15.272 30.021C14.858 29.2083 14.4363 28.4033 14.007 27.606C13.5777 26.8087 13.179 26.0803 12.811 25.421C12.443 24.7463 12.1287 24.2097 11.868 23.811C11.6227 24.0103 11.408 24.1637 11.224 24.271C11.0553 24.363 10.8637 24.4703 10.649 24.593C10.7103 25.375 10.7793 26.2413 10.856 27.192C10.9327 28.1427 11.0017 29.0703 11.063 29.975C11.1243 30.8797 11.178 31.677 11.224 32.367C11.27 33.0417 11.293 33.5093 11.293 33.77C10.9557 33.7853 10.2733 33.839 9.246 33.931C8.234 34.023 7.061 34.138 5.727 34.276C4.393 34.4293 3.06667 34.5827 1.748 34.736ZM51.3644 29.055C50.5977 29.9137 49.6471 30.7493 48.5124 31.562C47.3777 32.3593 46.0974 33.0187 44.6714 33.54C43.2454 34.0613 41.7121 34.322 40.0714 34.322C37.8021 34.322 35.8011 33.954 34.0684 33.218C32.3511 32.482 30.9097 31.4317 29.7444 30.067C28.5791 28.7023 27.6974 27.0693 27.0994 25.168C26.5167 23.2667 26.2254 21.1583 26.2254 18.843C26.2254 15.853 26.7544 13.208 27.8124 10.908C28.8704 8.59266 30.4037 6.78333 32.4124 5.48C34.4211 4.16133 36.8591 3.502 39.7264 3.502C42.0571 3.502 44.2114 3.97733 46.1894 4.928C48.1827 5.87867 49.7774 7.366 50.9734 9.39C50.4521 9.95733 49.7697 10.5937 48.9264 11.299C48.0831 11.989 47.2244 12.6483 46.3504 13.277C45.4917 13.9057 44.7481 14.4193 44.1194 14.818C44.0887 14.6953 43.9737 14.4577 43.7744 14.105C43.5751 13.737 43.2991 13.346 42.9464 12.932C42.6091 12.518 42.1951 12.1653 41.7044 11.874C41.2291 11.5673 40.6924 11.414 40.0944 11.414C39.3584 11.414 38.7374 11.6057 38.2314 11.989C37.7254 12.357 37.3114 12.863 36.9894 13.507C36.6827 14.1357 36.4527 14.841 36.2994 15.623C36.1614 16.405 36.0924 17.2023 36.0924 18.015C36.0924 18.935 36.1461 19.8167 36.2534 20.66C36.3607 21.5033 36.5447 22.2547 36.8054 22.914C37.0814 23.5733 37.4724 24.0947 37.9784 24.478C38.4844 24.846 39.1284 25.03 39.9104 25.03C40.4471 25.03 40.9991 24.938 41.5664 24.754C42.1337 24.57 42.7011 24.294 43.2684 23.926C43.8511 23.5427 44.4107 23.075 44.9474 22.523C45.6527 23.0137 46.4194 23.6347 47.2474 24.386C48.0907 25.1373 48.8804 25.927 49.6164 26.755C50.3677 27.5677 50.9504 28.3343 51.3644 29.055ZM65.5949 34.391C61.5009 34.391 58.3729 33.3407 56.2109 31.24C54.0643 29.124 52.9909 26.042 52.9909 21.994C52.9909 19.2033 53.5429 16.9033 54.6469 15.094C55.7509 13.2693 57.2766 11.9123 59.2239 11.023C61.1713 10.1183 63.4176 9.666 65.9629 9.666C68.4776 9.666 70.5783 10.241 72.2649 11.391C73.9669 12.5257 75.2473 14.0973 76.1059 16.106C76.9646 18.0993 77.3939 20.3993 77.3939 23.006C77.3939 25.306 76.9416 27.307 76.0369 29.009C75.1323 30.711 73.7983 32.0373 72.0349 32.988C70.2869 33.9233 68.1403 34.391 65.5949 34.391ZM65.2959 26.134C65.8633 26.134 66.3923 26.042 66.8829 25.858C67.3889 25.6587 67.8259 25.3673 68.1939 24.984C68.5773 24.6007 68.8763 24.1177 69.0909 23.535C69.3056 22.937 69.4129 22.247 69.4129 21.465C69.4129 20.4223 69.2519 19.51 68.9299 18.728C68.6079 17.9307 68.1556 17.3173 67.5729 16.888C66.9903 16.4433 66.3003 16.221 65.5029 16.221C64.5369 16.221 63.7626 16.4817 63.1799 17.003C62.6126 17.5243 62.2063 18.1683 61.9609 18.935C61.7156 19.7017 61.5929 20.453 61.5929 21.189C61.5929 22.5843 61.9073 23.7573 62.5359 24.708C63.1646 25.6587 64.0846 26.134 65.2959 26.134ZM89.3981 33.931C89.1221 33.9463 88.5241 33.9847 87.6041 34.046C86.6995 34.1073 85.7335 34.138 84.7061 34.138C84.0008 34.138 83.2725 34.115 82.5211 34.069C81.7851 34.0383 81.0491 33.977 80.3131 33.885C80.3745 33.4863 80.4588 32.6813 80.5661 31.47C80.6735 30.2587 80.7808 28.8327 80.8881 27.192C81.0108 25.536 81.1258 23.8263 81.2331 22.063C81.3405 20.2997 81.4248 18.6437 81.4861 17.095C81.5475 15.5463 81.5781 14.2967 81.5781 13.346C81.9768 13.3153 82.5441 13.2847 83.2801 13.254C84.0315 13.2233 84.8365 13.1927 85.6951 13.162C86.5538 13.1313 87.3741 13.1083 88.1561 13.093C88.9381 13.0623 89.5591 13.047 90.0191 13.047C90.1265 13.5683 90.2108 14.427 90.2721 15.623C90.3335 16.8037 90.3641 18.1223 90.3641 19.579C90.3641 20.959 90.3411 22.3927 90.2951 23.88C90.2491 25.352 90.1801 26.7703 90.0881 28.135C90.0115 29.4843 89.9118 30.6727 89.7891 31.7C89.6665 32.7273 89.5361 33.471 89.3981 33.931ZM86.0401 10.494C84.4301 10.494 83.0501 10.034 81.9001 9.114C80.7655 8.194 80.1981 6.952 80.1981 5.388C80.1981 4.34533 80.4665 3.44833 81.0031 2.697C81.5398 1.94566 82.2298 1.37066 83.0731 0.971997C83.9318 0.557998 84.8288 0.350999 85.7641 0.350999C87.2668 0.350999 88.5241 0.826332 89.5361 1.777C90.5635 2.72766 91.0771 3.962 91.0771 5.48C91.0771 6.906 90.5865 8.102 89.6051 9.068C88.6391 10.0187 87.4508 10.494 86.0401 10.494ZM103.815 34.322C103.232 34.322 102.511 34.3143 101.653 34.299C100.809 34.299 99.9431 34.2913 99.0538 34.276C98.3791 34.2453 97.5818 34.207 96.6618 34.161C95.7571 34.1303 95.1438 34.0997 94.8218 34.069C94.9598 32.7963 95.0671 31.309 95.1438 29.607C95.2358 27.905 95.3048 26.0343 95.3508 23.995C95.3968 21.9557 95.4275 19.786 95.4428 17.486C95.4735 15.1707 95.4888 12.771 95.4888 10.287C96.2095 10.195 97.0681 10.126 98.0648 10.08C99.0615 10.0187 100.05 9.988 101.032 9.988C101.752 9.988 102.442 10.011 103.102 10.057C103.761 10.0877 104.344 10.1413 104.85 10.218C104.85 10.3407 104.85 10.609 104.85 11.023C104.85 11.4217 104.842 11.8663 104.827 12.357C104.827 12.8323 104.819 13.2617 104.804 13.645C105.08 13.093 105.624 12.5027 106.437 11.874C107.249 11.2453 108.223 10.7163 109.358 10.287C110.508 9.84233 111.704 9.62 112.946 9.62C115.292 9.62 117.093 10.0953 118.351 11.046C119.623 11.9967 120.497 13.438 120.973 15.37C121.463 17.2867 121.709 19.7093 121.709 22.638C121.709 23.558 121.678 24.6773 121.617 25.996C121.571 27.2993 121.494 28.664 121.387 30.09C121.295 31.5007 121.164 32.827 120.996 34.069C120.612 34.0997 120.014 34.1227 119.202 34.138C118.389 34.1687 117.53 34.184 116.626 34.184C115.644 34.184 114.717 34.1687 113.843 34.138C112.969 34.1227 112.34 34.0997 111.957 34.069C112.095 33.517 112.271 32.643 112.486 31.447C112.7 30.2357 112.884 28.8787 113.038 27.376C113.206 25.8733 113.291 24.4167 113.291 23.006C113.291 21.9327 113.199 21.005 113.015 20.223C112.846 19.4257 112.509 18.8123 112.003 18.383C111.512 17.9383 110.784 17.716 109.818 17.716C109.22 17.716 108.606 17.831 107.978 18.061C107.349 18.2757 106.743 18.567 106.161 18.935C105.593 19.2877 105.08 19.671 104.62 20.085C104.62 22.4003 104.574 24.4703 104.482 26.295C104.405 28.1043 104.305 29.676 104.183 31.01C104.06 32.344 103.937 33.448 103.815 34.322ZM135.097 35.771C133.042 35.771 131.24 35.541 129.692 35.081C128.143 34.6363 126.893 34.1457 125.943 33.609C124.992 33.0723 124.371 32.666 124.08 32.39C124.156 32.068 124.348 31.562 124.655 30.872C124.977 30.1667 125.352 29.4 125.782 28.572C126.226 27.744 126.671 26.9773 127.116 26.272C127.56 25.5513 127.951 25.0223 128.289 24.685C129.071 25.2523 129.876 25.812 130.704 26.364C131.532 26.916 132.337 27.3683 133.119 27.721C133.916 28.0737 134.621 28.25 135.235 28.25C135.587 28.25 135.894 28.2193 136.155 28.158C136.431 28.0967 136.638 27.9893 136.776 27.836C136.929 27.6827 137.006 27.468 137.006 27.192C137.006 26.8853 136.76 26.525 136.27 26.111C135.779 25.697 135.166 25.283 134.43 24.869C133.709 24.4397 132.996 24.064 132.291 23.742C131.171 23.236 130.106 22.6303 129.094 21.925C128.097 21.2043 127.277 20.315 126.633 19.257C126.004 18.199 125.69 16.9033 125.69 15.37C125.69 13.7907 126.165 12.4643 127.116 11.391C128.066 10.3023 129.301 9.482 130.819 8.93C132.352 8.36266 133.97 8.079 135.672 8.079C137.128 8.079 138.708 8.29366 140.41 8.723C142.127 9.15233 143.576 9.83467 144.757 10.77C144.665 11.092 144.435 11.6133 144.067 12.334C143.699 13.0547 143.246 13.8367 142.71 14.68C142.173 15.5233 141.598 16.3053 140.985 17.026C140.433 16.4433 139.712 15.8913 138.823 15.37C137.949 14.8487 137.059 14.588 136.155 14.588C135.833 14.588 135.503 14.6187 135.166 14.68C134.828 14.7413 134.545 14.8563 134.315 15.025C134.085 15.1783 133.97 15.4007 133.97 15.692C133.97 15.9987 134.108 16.2823 134.384 16.543C134.66 16.8037 135.081 17.0797 135.649 17.371C136.231 17.647 136.952 17.9767 137.811 18.36C138.501 18.6667 139.283 19.0653 140.157 19.556C141.031 20.0313 141.866 20.6217 142.664 21.327C143.476 22.017 144.143 22.8297 144.665 23.765C145.201 24.7003 145.47 25.7737 145.47 26.985C145.47 28.9783 144.987 30.6267 144.021 31.93C143.055 33.2333 141.782 34.1993 140.203 34.828C138.639 35.4567 136.937 35.771 135.097 35.771Z" fill="url(#paint0_linear_722_2)"/>
<defs>
<linearGradient id="paint0_linear_722_2" x1="0" y1="23" x2="147" y2="23" gradientUnits="userSpaceOnUse">
<stop stop-color="#8E4498"/>
<stop offset="1" stop-color="#B75900"/>
</linearGradient>
</defs>
</svg>
