<svg width="98" height="92" viewBox="0 0 98 92" fill="none" xmlns="http://www.w3.org/2000/svg">
<path fill-rule="evenodd" clip-rule="evenodd" d="M30.9698 0H12.3963C5.55001 0 0 5.55 0 12.3963V79.1456C0 85.9919 5.55001 91.5419 12.3963 91.5419H85.373C92.2193 91.5419 97.7693 85.9919 97.7693 79.1456V21.1606L30.9698 0Z" fill="url(#paint0_linear_466_380)"/>
<g clip-path="url(#clip0_466_380)">
<path d="M27.735 76.29L27.735 85.11L29.16 85.11L29.16 90.12L26.97 90.12L26.97 87L20.265 87L20.265 90.12L18.075 90.12L18.075 85.11L18.9 85.11C19.18 84.55 19.45 83.96 19.71 83.34C19.97 82.72 20.21 82.055 20.43 81.345C20.66 80.635 20.865 79.865 21.045 79.035C21.225 78.195 21.375 77.28 21.495 76.29L27.735 76.29ZM23.295 78.18C23.225 78.7 23.125 79.255 22.995 79.845C22.865 80.425 22.71 81.02 22.53 81.63C22.36 82.24 22.17 82.84 21.96 83.43C21.75 84.02 21.525 84.58 21.285 85.11L25.47 85.11L25.47 78.18L23.295 78.18ZM36.9701 87L30.8051 87L30.8051 76.29L36.9701 76.29L36.9701 78.15L33.0701 78.15L33.0701 80.505L36.7001 80.505L36.7001 82.365L33.0701 82.365L33.0701 85.125L36.9701 85.125L36.9701 87ZM43.3236 87L41.0586 87L41.0586 78.18L38.1486 78.18L38.1486 76.29L46.2336 76.29L46.2336 78.18L43.3236 78.18L43.3236 87ZM47.8852 76.29L49.9252 76.29L49.9252 81.465C49.9252 81.715 49.9202 81.995 49.9102 82.305C49.9002 82.615 49.8902 82.92 49.8802 83.22C49.8702 83.51 49.8602 83.765 49.8502 83.985C49.8402 84.195 49.8302 84.34 49.8202 84.42L49.8652 84.42L54.8152 76.29L57.5302 76.29L57.5302 87L55.5052 87L55.5052 81.855C55.5052 81.585 55.5102 81.29 55.5202 80.97C55.5302 80.64 55.5402 80.325 55.5502 80.025C55.5702 79.725 55.5852 79.465 55.5952 79.245C55.6152 79.015 55.6302 78.865 55.6402 78.795L55.5802 78.795L50.6152 87L47.8852 87L47.8852 76.29Z" fill="white"/>
<path d="M14 71.12L5.6 73.7L5.6 73.76C5.8 73.75 6.1 73.735 6.5 73.715C6.9 73.695 7.33 73.675 7.79 73.655C8.24 73.635 8.65 73.625 9.02 73.625L14 73.625L14 75.65L3.29 75.65L3.29 72.56L11.48 70.025L11.48 69.98L3.29 67.295L3.29 64.205L14 64.205L14 66.32L8.93 66.32C8.59 66.32 8.2 66.315 7.76 66.305C7.32 66.285 6.905 66.27 6.515 66.26C6.115 66.24 5.815 66.225 5.615 66.215L5.615 66.275L14 69.035L14 71.12ZM14 55.3346L14 61.4996L3.29 61.4996L3.29 55.3346L5.15 55.3346L5.15 59.2346L7.505 59.2346L7.505 55.6046L9.365 55.6046L9.365 59.2346L12.125 59.2346L12.125 55.3346L14 55.3346ZM3.29 44.7211L12.11 44.7211L12.11 43.2961L17.12 43.2961L17.12 45.4861L14 45.4861L14 52.1911L17.12 52.1911L17.12 54.3811L12.11 54.3811L12.11 53.5561C11.55 53.2761 10.96 53.0061 10.34 52.7461C9.72 52.4861 9.055 52.2461 8.345 52.0261C7.635 51.7961 6.865 51.5911 6.035 51.4111C5.195 51.2311 4.28 51.0811 3.29 50.9611L3.29 44.7211ZM5.18 49.1611C5.7 49.2311 6.255 49.3311 6.845 49.4611C7.425 49.5911 8.02 49.7461 8.63 49.9261C9.24 50.0961 9.84 50.2861 10.43 50.4961C11.02 50.7061 11.58 50.9311 12.11 51.1711L12.11 46.9861L5.18 46.9861L5.18 49.1611ZM3.29 41.651L3.29 39.611L8.465 39.611C8.715 39.611 8.995 39.616 9.305 39.626C9.615 39.636 9.92 39.646 10.22 39.656C10.51 39.666 10.765 39.676 10.985 39.686C11.195 39.696 11.34 39.706 11.42 39.716L11.42 39.671L3.29 34.721L3.29 32.006L14 32.006L14 34.031L8.855 34.031C8.585 34.031 8.29 34.026 7.97 34.016C7.64 34.006 7.325 33.996 7.025 33.986C6.725 33.966 6.465 33.951 6.245 33.941C6.015 33.921 5.865 33.906 5.795 33.896L5.795 33.956L14 38.921L14 41.651L3.29 41.651ZM14 22.7473L11.45 23.5273L11.45 27.4273L14 28.2073L14 30.6523L3.245 26.8723L3.245 24.0973L14 20.3023L14 22.7473ZM7.055 24.8473C6.885 24.8973 6.67 24.9623 6.41 25.0423C6.15 25.1223 5.885 25.2023 5.615 25.2823C5.345 25.3623 5.11 25.4273 4.91 25.4773C5.11 25.5273 5.36 25.5973 5.66 25.6873C5.95 25.7673 6.23 25.8473 6.5 25.9273C6.76 25.9973 6.945 26.0523 7.055 26.0923L9.545 26.8573L9.545 24.0673L7.055 24.8473Z" fill="white"/>
<g clip-path="url(#clip1_466_380)">
<path d="M24.5352 24.7408L18.5496 66.447L86.7083 77.6459L92.5009 36.712L24.5352 24.7408Z" fill="white"/>
<rect x="31.871" y="1.66878" width="68.0887" height="13.6827" transform="rotate(17.679 31.871 1.66878)" stroke="black" stroke-width="1.15898"/>
<line x1="28.2529" y1="11.9428" x2="93.036" y2="33.2054" stroke="black" stroke-width="1.15898"/>
<path fill-rule="evenodd" clip-rule="evenodd" d="M38.5636 4.35353L32.2152 2.34453L29.1328 11.9464L30.8139 12.4784L38.5636 4.35353ZM41.7102 5.3493L33.9605 13.4742L43.2627 16.418L51.0124 8.29309L41.7102 5.3493ZM55.711 20.3573L46.4093 17.4137L54.159 9.28886L63.4607 12.2325L55.711 20.3573ZM58.8576 21.3531L68.1593 24.2968L75.909 16.1719L66.6073 13.2282L58.8576 21.3531ZM80.6082 28.2363L71.3059 25.2925L79.0556 17.1676L88.3579 20.1114L80.6082 28.2363ZM83.7548 29.2321L93.0986 32.189L96.181 22.5871L91.5045 21.1072L83.7548 29.2321Z" fill="white"/>
</g>
<g clip-path="url(#clip2_466_380)">
<path d="M27.7286 30.3402L24.9214 63.7438L83.847 73.2049L90.5701 41.346L27.7286 30.3402Z" fill="#A624F5"/>
<path d="M32.2584 33.4296L83.0396 43.2769L81.3018 69.3432L27.2382 62.1991L32.2584 33.4296Z" fill="white"/>
<path d="M37.0358 37.901L81.2581 45.2222L76.6077 65.1064L28.3965 60.8475L37.0358 37.901Z" fill="#A43AF3"/>
<path d="M28.0105 26.4785L90.1565 37.5489L90.1837 39.2221L27.8174 29.3748L28.0105 26.4785Z" fill="#A43AF3"/>
<path d="M37.6149 56.3511L37.8281 54.4947L40.7175 54.8265L41.5419 47.6464L41.4036 47.6305L38.8935 50.2335L37.5502 48.9135L40.5044 45.8329L44.0393 46.2388L43.0228 55.0912L45.2974 55.3524L45.0842 57.2087L37.6149 56.3511ZM53.9154 58.2228L46.2002 57.3369L46.4415 55.235L50.1451 52.8157C50.7866 52.3816 51.2566 51.9951 51.5551 51.6563C51.8535 51.3175 52.0262 50.9435 52.0732 50.5344L52.0908 50.381C52.1425 49.931 52.048 49.5781 51.8075 49.3225C51.5681 49.0567 51.223 48.8979 50.7721 48.8461C50.2599 48.7873 49.8484 48.8903 49.5377 49.1552C49.227 49.42 48.9918 49.7505 48.8321 50.1467L46.9068 49.1484C47.0721 48.7944 47.2811 48.466 47.5338 48.1634C47.7877 47.8506 48.0927 47.5903 48.4488 47.3825C48.8151 47.1758 49.2267 47.0262 49.6837 46.9336C50.1419 46.8307 50.6579 46.8123 51.2317 46.8782C51.8157 46.9452 52.3289 47.087 52.7711 47.3036C53.2134 47.5202 53.5769 47.7899 53.8617 48.1128C54.1464 48.4357 54.3478 48.8059 54.466 49.2237C54.5853 49.6311 54.6185 50.065 54.5657 50.5253C54.514 50.9753 54.3896 51.3807 54.1924 51.7415C54.0067 52.0933 53.7619 52.4175 53.4579 52.7142C53.1642 53.0121 52.8204 53.2938 52.4265 53.5595C52.0429 53.8263 51.6337 54.0902 51.1989 54.3512L48.9734 55.6967L54.1374 56.2897L53.9154 58.2228ZM64.0011 52.6502C63.9142 53.407 63.7148 54.1044 63.4028 54.7421C63.0908 55.3799 62.7123 55.9634 62.2675 56.4926C61.834 57.0128 61.3558 57.4709 60.8328 57.8668C60.3201 58.2639 59.8156 58.5894 59.3193 58.8433L56.1379 58.478C56.8567 58.0942 57.5015 57.7226 58.0722 57.3633C58.6543 56.9949 59.1641 56.6233 59.6016 56.2487C60.0505 55.865 60.4238 55.4623 60.7213 55.0405C61.0292 54.6198 61.2694 54.1552 61.442 53.6465L61.3089 53.5846C61.1932 53.7786 61.0525 53.9645 60.8868 54.1423C60.7312 54.3214 60.5473 54.4764 60.3351 54.6075C60.1342 54.7295 59.8953 54.8212 59.6183 54.8827C59.3516 54.9454 59.044 54.9567 58.6957 54.9167C58.2449 54.8649 57.8336 54.74 57.4618 54.5418C57.0913 54.3335 56.779 54.0696 56.525 53.7503C56.2824 53.4219 56.1027 53.0438 55.9857 52.6158C55.8687 52.1879 55.8396 51.7182 55.8983 51.2068C55.9606 50.6647 56.1155 50.1747 56.363 49.7368C56.6105 49.2989 56.9272 48.9363 57.3132 48.649C57.7106 48.3527 58.1708 48.1413 58.694 48.0148C59.2172 47.8883 59.7862 47.8604 60.401 47.931C61.0464 48.0051 61.6085 48.1733 62.087 48.4355C62.577 48.6886 62.9745 49.0244 63.2794 49.4429C63.5855 49.8511 63.8008 50.3266 63.9253 50.8694C64.0498 51.4122 64.0751 52.0058 64.0011 52.6502ZM59.805 53.2565C60.3276 53.3165 60.7533 53.2254 61.0821 52.9834C61.4121 52.7311 61.6077 52.3391 61.6687 51.8072L61.6934 51.5924C61.7545 51.0606 61.658 50.635 61.404 50.3156C61.1614 49.9873 60.7635 49.7913 60.2102 49.7278C59.6569 49.6643 59.2198 49.7643 58.8989 50.028C58.5791 50.2814 58.3887 50.6741 58.3276 51.2059L58.3029 51.4207C58.2419 51.9526 58.3383 52.3782 58.5923 52.6975C58.8578 53.0078 59.262 53.1941 59.805 53.2565ZM68.4059 60.0732C67.7604 59.999 67.1954 59.8564 66.711 59.6454C66.2277 59.4241 65.8278 59.1554 65.5111 58.8392C65.1945 58.523 64.9657 58.1652 64.8247 57.7655C64.6951 57.3569 64.6562 56.9275 64.7079 56.4775C64.7877 55.782 65.0515 55.2475 65.4993 54.874C65.9482 54.4903 66.4951 54.2474 67.1401 54.1453L67.1542 54.0226C66.6437 53.7671 66.2423 53.4205 65.95 52.9828C65.6577 52.545 65.5474 52.0142 65.619 51.3903C65.666 50.9812 65.7914 50.6122 65.9953 50.2832C66.1991 49.9543 66.474 49.6853 66.8198 49.4763C67.1668 49.2571 67.5784 49.1075 68.0548 49.0275C68.5323 48.9372 69.0733 48.9268 69.6778 48.9962C70.2721 49.0644 70.7915 49.1966 71.2361 49.3928C71.6922 49.5798 72.0643 49.8195 72.3526 50.1116C72.642 50.3936 72.8488 50.7178 72.9728 51.0844C73.0968 51.451 73.1353 51.8388 73.0883 52.248C73.0167 52.8719 72.7889 53.3639 72.405 53.7239C72.021 54.084 71.5515 54.3306 70.9964 54.4638L70.9823 54.5865C71.5874 54.8322 72.065 55.1927 72.4153 55.6682C72.7667 56.1334 72.9025 56.7138 72.8227 57.4093C72.771 57.8593 72.6306 58.2681 72.4016 58.6356C72.1839 58.994 71.8851 59.2913 71.505 59.5274C71.1249 59.7636 70.6745 59.9347 70.1536 60.0407C69.634 60.1365 69.0514 60.1473 68.4059 60.0732ZM68.6085 58.3088C69.1413 58.37 69.5601 58.2937 69.8649 58.08C70.18 57.8675 70.3616 57.5516 70.4097 57.1322L70.445 56.8254C70.4943 56.3958 70.3941 56.0475 70.1445 55.7805C69.8961 55.5032 69.5003 55.3335 68.9573 55.2711C68.4142 55.2087 67.9903 55.2844 67.6855 55.4981C67.3818 55.7016 67.2053 56.0181 67.156 56.4477L67.1208 56.7546C67.0726 57.1739 67.1728 57.5222 67.4212 57.7994C67.6799 58.0779 68.0757 58.2476 68.6085 58.3088ZM69.1511 53.5835C69.6634 53.6423 70.0662 53.5694 70.3596 53.3647C70.653 53.1601 70.8226 52.8583 70.8684 52.4594L70.8949 52.2293C70.9407 51.8304 70.8382 51.5025 70.5874 51.2458C70.348 50.9799 69.9773 50.8182 69.4752 50.7605C68.9732 50.7029 68.5703 50.7758 68.2666 50.9793C67.9744 51.1737 67.8054 51.4704 67.7596 51.8693L67.7332 52.0994C67.6874 52.4983 67.7842 52.8307 68.0235 53.0965C68.2629 53.3623 68.6388 53.5247 69.1511 53.5835Z" fill="white"/>
</g>
</g>
<defs>
<linearGradient id="paint0_linear_466_380" x1="48.8846" y1="0" x2="48.8846" y2="91.5419" gradientUnits="userSpaceOnUse">
<stop stop-color="#7D19EB"/>
<stop offset="0.5" stop-color="#BF01F5"/>
<stop offset="1" stop-color="#B91293"/>
</linearGradient>
<clipPath id="clip0_466_380">
<rect width="98" height="92" fill="white"/>
</clipPath>
<clipPath id="clip1_466_380">
<rect width="90.4867" height="84.4233" rx="18.0405" transform="matrix(-0.987701 -0.156357 -0.173249 0.984878 110 -1.85182)" fill="white"/>
</clipPath>
<clipPath id="clip2_466_380">
<rect width="80.6707" height="84.4233" rx="18.0405" transform="matrix(-0.987701 -0.156357 -0.173249 0.984878 101.118 -0.297256)" fill="white"/>
</clipPath>
</defs>
</svg>
