<svg width="48" height="49" viewBox="0 0 48 49" fill="none" xmlns="http://www.w3.org/2000/svg">
<path d="M47.9965 0.00103617C47.9748 0.015404 46.1613 1.62628 43.9706 3.57519C41.7799 5.53135 39.9594 7.13494 39.9268 7.14564C39.8943 7.14912 39.7931 7.12701 39.6957 7.08684C39.3675 6.95175 39.3616 6.65545 39.6778 6.2413L39.8412 6.02881L39.6577 5.84377L39.4707 5.65516L39.3436 5.78105C39.2566 5.86739 39.1371 5.91388 38.9528 5.93116C38.6347 5.96592 38.2837 6.09089 38.0408 6.26689C37.8705 6.38539 37.8488 6.38525 37.6579 6.26533C37.1678 5.96695 36.3322 5.34192 36.0408 5.05523C35.8141 4.83381 35.7061 4.75391 35.677 4.78268C35.6516 4.80787 35.5787 4.94489 35.5131 5.08913L35.3927 5.35234L35.7001 6.14128L36.011 6.9339L34.3636 8.58891C32.7743 10.1791 32.7089 10.2511 32.6902 10.4064C32.6378 10.818 32.1711 10.9786 31.4599 10.8347C31.1531 10.7719 31.0374 10.7786 30.9251 10.8468C30.9176 10.8515 30.7595 11.0002 30.7337 11.0225C31.8479 11.393 32.9608 11.7065 34.0918 11.9539C34.6367 12.0712 35.618 12.2464 36.6673 12.4224C37.2009 11.8702 37.6978 11.3579 38.1512 10.8849C39.1964 9.80549 39.7261 9.28024 39.8166 9.24089C40.0157 9.15142 41.2495 7.90649 42.2152 6.82669C43.8562 4.98381 48.1449 -0.0742028 47.9965 0.00103617ZM8.61839 28.5187C8.60963 28.6087 8.5976 28.6423 8.59522 28.7697C8.58665 29.0804 8.60788 29.2177 8.65126 29.2034C8.65721 29.2018 8.7693 29.1306 8.79122 29.1185C8.73392 28.9251 8.67462 28.7207 8.61839 28.5187ZM9.86216 32.165C9.85007 32.2313 9.8299 32.3016 9.79379 32.3806C9.68799 32.6222 9.71225 32.8571 9.85282 32.9408C9.92131 32.9808 9.97877 33.0534 9.98218 33.0932C9.98553 33.1402 10.0358 33.2344 10.0897 33.3033C10.1473 33.3758 10.1902 33.4482 10.1937 33.4663C10.1901 33.4843 9.83395 33.9525 9.398 34.507C8.54432 35.5837 7.72648 36.7256 7.44254 37.223L7.26776 37.533L6.12799 37.9291L4.98811 38.3325L4.46883 38.9336C4.18559 39.2648 3.19465 40.3409 2.2655 41.3197C1.33994 42.3021 0.450643 43.2558 0.290907 43.4358L0.000488281 43.7669L0.503851 44.3255C0.784442 44.6301 1.62591 45.566 2.37388 46.4003C3.12182 47.2345 3.74751 47.9164 3.76198 47.9165C3.77639 47.9165 3.97653 47.5885 4.20228 47.1848C6.33937 43.4038 8.86156 39.1331 10.051 37.2702C10.4839 36.5964 10.7492 36.2327 11.0287 35.934C11.1794 35.7687 11.3344 35.617 11.4885 35.4803C10.8575 34.4086 10.505 33.7229 10.1514 32.8829C10.0446 32.6291 9.95811 32.4032 9.86216 32.165Z" fill="#003D58"/>
<path d="M0.00375897 0.000830418C-0.144696 -0.0744086 4.14403 4.98355 5.78504 6.82643C6.75075 7.90623 7.98456 9.15115 8.18368 9.24063C8.27415 9.27998 8.80398 9.80522 9.84918 10.8847C10.1684 11.2176 10.5123 11.5718 10.8937 11.9669C11.1296 11.926 11.7697 11.8222 11.8564 11.8051C13.1659 11.5507 14.4353 11.2251 15.6887 10.8303C15.4713 10.7576 15.3367 10.6148 15.3102 10.4061C15.2915 10.2508 15.2261 10.1788 13.6367 8.58866L11.9892 6.93365L12.3002 6.14102L12.6075 5.35208L12.4872 5.08887C12.4215 4.94464 12.3487 4.80761 12.3233 4.78243C12.2943 4.75366 12.1862 4.83354 11.9596 5.05497C11.6681 5.34166 10.8325 5.96669 10.3424 6.26507C10.1514 6.38504 10.1298 6.38519 9.95951 6.26664C9.71667 6.09063 9.36566 5.96567 9.04755 5.93091C8.86321 5.91362 8.74369 5.86714 8.6566 5.7808L8.52967 5.6549L8.34255 5.84352L8.15912 6.02855L8.3226 6.24104C8.63872 6.6552 8.63272 6.9515 8.30451 7.08659C8.20712 7.12675 8.10611 7.14887 8.07358 7.14539C8.04101 7.13468 6.22032 5.53109 4.02962 3.57493C1.83897 1.62602 0.0254958 0.0151982 0.00375897 0.000830418ZM38.8659 27.9925C38.796 28.2648 38.7297 28.5318 38.6595 28.7849C38.9721 28.9788 39.3197 29.1953 39.3491 29.2032C39.3925 29.2175 39.4136 29.08 39.405 28.7694C39.4003 28.5201 39.3778 28.2962 39.3597 28.2782C39.3551 28.2736 38.9706 28.0541 38.8659 27.9925ZM38.0439 30.708C37.4174 32.4545 36.7598 33.9444 36.0766 35.1371C36.3654 35.3385 36.6762 35.6098 36.9717 35.9338C37.2512 36.2325 37.5164 36.5962 37.9492 37.27C39.1387 39.1329 41.6609 43.4036 43.798 47.1846C44.0237 47.5883 44.224 47.9163 44.2384 47.9162C44.2528 47.9162 44.8785 47.2343 45.6265 46.4001C46.3745 45.5658 47.2158 44.6299 47.4964 44.3253L47.9999 43.7667L47.7094 43.4356C47.5497 43.2556 46.6604 42.3019 45.7349 41.3195C44.8057 40.3407 43.8147 39.2646 43.5314 38.9334L43.0121 38.3323L41.8724 37.9289L40.7325 37.5328L40.5577 37.2228C40.2738 36.7254 39.4559 35.5835 38.6022 34.5068C38.1663 33.9523 37.8102 33.4841 37.8065 33.4661C37.81 33.448 37.8531 33.3756 37.9106 33.3031C37.9645 33.2342 38.0147 33.14 38.0181 33.093C38.0215 33.0532 38.0789 32.9806 38.1474 32.9406C38.288 32.8569 38.3123 32.622 38.2065 32.3804C38.0861 32.1171 38.0998 31.9291 38.2437 31.784C38.3228 31.7042 38.3908 31.563 38.4156 31.4364C38.4544 31.2158 38.4544 31.2159 38.1057 30.7838C38.0782 30.7501 38.0692 30.7388 38.0439 30.708Z" fill="#003D58"/>
<path d="M23.5181 6.17696C23.3151 6.17321 23.1225 6.28417 22.6922 6.50599C21.0077 7.37326 18.4259 8.5174 16.7915 9.12114C14.9168 9.80828 13.0255 10.3353 11.0508 10.7189C10.6472 10.7989 8.50899 11.1559 6.56766 11.4727C6.10067 11.5461 5.67714 11.6328 5.62711 11.6595L5.53027 11.7096V12.3833C5.53027 13.5575 5.73042 18.1507 5.88053 20.4789C5.93723 21.3195 6.11741 23.5444 6.15077 23.7645C6.2375 24.3883 6.6378 26.2796 6.90131 27.327C7.48505 29.6453 8.0054 31.2064 8.91937 33.3779C9.38969 34.4953 9.82994 35.3225 10.8606 37.0237C11.6212 38.2712 12.175 39.0884 13.1023 40.3259C14.2764 41.887 15.5906 43.2479 17.4952 44.8657C19.6533 46.7036 19.9469 46.9339 20.9009 47.5009C21.2378 47.7044 21.648 47.9579 21.8182 48.0679C22.1751 48.3048 23.1257 48.7785 23.3459 48.8319C23.4927 48.8685 23.5161 48.8619 23.8296 48.7318C24.4434 48.4716 24.9604 48.2114 25.294 47.9913C25.4774 47.8745 25.9077 47.6077 26.2512 47.4008C27.0818 46.9038 27.6456 46.4636 29.5302 44.8491C30.7944 43.765 30.9445 43.6216 31.9051 42.6175C33.1626 41.3033 33.3795 41.0431 34.497 39.4987C35.3976 38.2545 35.908 37.454 36.9053 35.7395C37.7392 34.2985 38.5397 32.4605 39.2936 30.2523C39.8639 28.5745 40.6545 25.2022 40.868 23.5311C41.0981 21.7432 41.365 16.8964 41.4751 12.5368C41.4951 11.7195 41.4918 11.6795 41.4351 11.6595C41.2383 11.6028 39.8006 11.3426 38.7199 11.1725C37.2455 10.9357 35.8112 10.6788 35.0673 10.5187C32.9325 10.0517 30.8578 9.39462 28.7296 8.51068C27.4187 7.96698 25.6942 7.17973 24.4067 6.53596C23.9347 6.29914 23.7212 6.18071 23.5181 6.17696ZM23.5171 8.36944C23.6993 8.37281 23.8908 8.47907 24.3143 8.69157C25.4696 9.26919 27.0169 9.97554 28.1931 10.4634C30.1025 11.2565 31.9641 11.8461 33.8796 12.2651C34.547 12.4088 35.8339 12.6392 37.1567 12.8517C38.1264 13.0044 39.4164 13.2378 39.593 13.2887C39.6438 13.3067 39.6469 13.3425 39.6289 14.0758C39.5302 17.9875 39.2907 22.3362 39.0842 23.9403C38.8926 25.4398 38.1833 28.4656 37.6715 29.971C36.9951 31.9523 36.2768 33.6014 35.5286 34.8943C34.6337 36.4326 34.1759 37.1509 33.3678 38.2672C32.3652 39.6529 32.1707 39.8864 31.0424 41.0656C30.1804 41.9664 30.0457 42.0951 28.9114 43.0677C27.2205 44.5163 26.7147 44.9114 25.9694 45.3573C25.6612 45.5429 25.275 45.7823 25.1104 45.8871C24.8111 46.0846 24.3472 46.3181 23.7965 46.5515C23.5152 46.6682 23.4943 46.6742 23.3626 46.6413C23.1651 46.5934 22.3121 46.1684 21.9919 45.9559C21.8393 45.8571 21.4711 45.6297 21.1688 45.4471C20.3129 44.9383 20.0495 44.7318 18.1131 43.0827C16.4042 41.6312 15.2249 40.4101 14.1715 39.0095C13.3394 37.8991 12.8427 37.1658 12.1603 36.0465C11.2355 34.5201 10.8404 33.7778 10.4184 32.7752C9.59832 30.8269 9.13149 29.4262 8.60773 27.3462C8.3713 26.4064 8.01212 24.7095 7.9343 24.1498C7.90439 23.9523 7.74272 21.956 7.69185 21.2018C7.55717 19.1128 7.37769 14.9916 7.37769 13.9381V13.3335L7.4645 13.2887C7.50939 13.2647 7.88942 13.1869 8.30843 13.1211C10.0503 12.8367 11.9687 12.5165 12.3308 12.4447C14.1026 12.1005 15.7996 11.6276 17.4816 11.0111C18.9481 10.4694 21.2646 9.44284 22.776 8.6647C23.1621 8.46568 23.3349 8.36608 23.5171 8.36944Z" fill="#003D58"/>
<path d="M22.8449 10.4384C21.4757 11.1433 19.3772 12.0733 18.0487 12.564C16.5249 13.1225 14.9877 13.5509 13.3826 13.8627C13.0545 13.9278 11.3166 14.2179 9.7387 14.4754C9.35912 14.5351 9.01479 14.6056 8.97413 14.6273L8.89551 14.6679V15.2156C8.89551 16.17 9.05818 19.9034 9.18018 21.7958C9.22626 22.479 9.37268 24.2874 9.39979 24.4664C9.47028 24.9734 9.79564 26.5107 10.0098 27.362C10.4843 29.2463 10.9072 30.5152 11.6501 32.2802C12.0324 33.1885 12.3903 33.8609 13.2281 35.2436C13.8462 36.2576 14.2963 36.9219 15.05 37.9277C16.0044 39.1966 17.0726 40.3028 18.6207 41.6177C20.3749 43.1116 20.6135 43.2987 21.3889 43.7596C21.6628 43.925 21.9962 44.131 22.1345 44.2205C22.4246 44.413 23.1973 44.798 23.3763 44.8414C23.4956 44.8712 23.5145 44.8658 23.7694 44.7601C24.2683 44.5486 24.6885 44.3371 24.9596 44.1582C25.1087 44.0633 25.4585 43.8464 25.7378 43.6783C26.4129 43.2743 26.8711 42.9164 28.4029 41.6042C29.4305 40.723 29.5525 40.6064 30.3333 39.7903C31.3555 38.7221 31.5317 38.5106 32.44 37.2553C33.172 36.244 33.5868 35.5933 34.3975 34.1998C35.0753 33.0285 35.726 31.5346 36.3387 29.7398C36.8024 28.376 37.4449 25.6349 37.6184 24.2766C37.8055 22.8234 38.0224 18.8839 38.1119 15.3403C38.1282 14.6761 38.1254 14.6435 38.0794 14.6273C37.9194 14.5812 36.7508 14.3697 35.8724 14.2314C34.674 14.0389 33.5082 13.8302 32.9036 13.7C31.1684 13.3205 29.482 12.7863 27.7522 12.0678C26.6867 11.6259 25.285 10.9861 24.2384 10.4628C23.4712 10.0778 23.5444 10.0778 22.8449 10.4384Z" fill="#0092C8"/>
<path fill-rule="evenodd" clip-rule="evenodd" d="M20.5754 11.5157C19.6649 11.9221 18.7505 12.3048 18.0487 12.564C17.4078 12.7989 16.763 13.0058 16.1133 13.1957V39.2067C16.8163 39.9899 17.6109 40.76 18.6208 41.6178C19.6749 42.5155 20.1705 42.9263 20.5754 43.2232V11.5157Z" fill="#FEDA00"/>
<path fill-rule="evenodd" clip-rule="evenodd" d="M23.5166 10.171C23.3515 10.168 23.195 10.2581 22.8453 10.4384C22.2013 10.7699 21.3936 11.1503 20.583 11.5123V33.6317H27.0731V11.7705C26.1289 11.3615 25.0837 10.8853 24.2388 10.4628C23.8551 10.2703 23.6816 10.1741 23.5166 10.171Z" fill="#003D58"/>
<path fill-rule="evenodd" clip-rule="evenodd" d="M20.583 24.1933V43.2285C20.8487 43.4229 21.0826 43.5774 21.3892 43.7596C21.6631 43.925 21.9966 44.131 22.1348 44.2205C22.4249 44.413 23.1977 44.798 23.3766 44.8414C23.4959 44.8713 23.5149 44.8658 23.7698 44.76C24.2687 44.5485 24.6888 44.3371 24.9599 44.1582C24.9992 44.1332 25.1028 44.0706 25.165 44.0317V24.1933H20.583Z" fill="#ED1D24"/>
<path fill-rule="evenodd" clip-rule="evenodd" d="M16.1133 29.4632V39.2067C16.8163 39.9899 17.6109 40.76 18.6208 41.6178C19.6749 42.5155 20.1705 42.9263 20.5754 43.2232V29.4632H16.1133Z" fill="white"/>
<path fill-rule="evenodd" clip-rule="evenodd" d="M25.1577 21.3362V44.036C25.3319 43.9272 25.5296 43.8036 25.7377 43.6783C26.4129 43.2743 26.871 42.9164 28.4028 41.6042C29.4304 40.723 29.5524 40.6065 30.3333 39.7904C30.9288 39.1681 31.2421 38.8238 31.5754 38.4073V21.3362H25.1577Z" fill="white"/>
</svg>
