<svg width="512" height="512" viewBox="0 0 512 512" fill="none" xmlns="http://www.w3.org/2000/svg">
<g clip-path="url(#clip0_774_119)">
<path d="M255.625 -0.31261C256.643 -0.310455 257.661 -0.3083 258.71 -0.306079C273.319 -0.256409 287.651 -0.00551176 302 2.99989C302.975 3.19857 303.95 3.39724 304.954 3.60194C353.336 13.7226 397.324 35.6391 433 69.9999C433.989 70.9481 433.989 70.9481 434.998 71.9154C444.486 81.0599 453.226 90.3572 461 101C461.858 102.151 462.716 103.302 463.574 104.453C469.612 112.644 474.971 121.158 480 130C480.364 130.632 480.729 131.263 481.104 131.914C502.71 169.663 512.477 212.429 512.312 255.625C512.31 256.643 512.308 257.661 512.306 258.709C512.256 273.319 512.005 287.651 509 302C508.702 303.462 508.702 303.462 508.398 304.954C498.277 353.336 476.361 397.324 442 433C441.368 433.659 440.736 434.319 440.084 434.998C430.94 444.486 421.643 453.226 411 461C409.849 461.858 408.698 462.716 407.547 463.574C399.357 469.612 390.855 474.994 382 480C381.293 480.402 380.586 480.804 379.857 481.219C356.722 494.244 331.55 502.993 305.562 508.312C304.844 508.46 304.125 508.607 303.384 508.759C288.708 511.548 274.183 512.349 259.273 512.316C256.333 512.312 253.395 512.336 250.455 512.361C237.082 512.406 224.186 511.2 211 509C209.294 508.718 209.294 508.718 207.554 508.43C164.287 500.658 123.237 480.671 90 452C89.2549 451.366 88.5099 450.731 87.7422 450.078C74.2372 438.267 61.5658 425.516 51 411C50.1435 409.85 49.2867 408.7 48.4297 407.551C42.3897 399.361 37.0063 390.856 32 382C31.5978 381.293 31.1956 380.585 30.7813 379.857C17.7558 356.721 9.007 331.55 3.68751 305.562C3.54016 304.843 3.3928 304.125 3.24098 303.384C0.267121 287.738 -0.372992 272.264 -0.312488 256.375C-0.310333 255.357 -0.308178 254.339 -0.305957 253.29C-0.256286 238.681 -0.00538969 224.349 3.00001 210C3.19869 209.025 3.39737 208.05 3.60206 207.046C13.7227 158.664 35.6392 114.676 70 78.9999C70.6321 78.3405 71.2643 77.6812 71.9155 77.0018C81.06 67.5136 90.3574 58.7737 101 50.9999C102.151 50.1418 103.302 49.2838 104.453 48.4257C112.643 42.3881 121.145 37.0053 130 31.9999C130.707 31.5977 131.414 31.1955 132.143 30.7811C155.278 17.7557 180.45 9.00688 206.438 3.68739C207.156 3.54003 207.875 3.39268 208.616 3.24086C224.262 0.266999 239.736 -0.373114 255.625 -0.31261Z" fill="#FED924"/>
<path d="M345.312 211.688C346.142 211.693 346.972 211.699 347.826 211.705C364.859 212.039 378.822 219.146 390.965 230.902C401.027 241.67 407.453 256.561 407.25 271.313C407.24 272.058 407.231 272.804 407.221 273.572C406.85 290.705 400.243 305.797 388 318C373.389 330.782 357.227 335.103 338.291 334.2C332.868 333.727 327.992 332.086 323 330C321.681 329.457 321.681 329.457 320.336 328.902C303.721 321.315 293.246 307.803 286.898 291.102C282.297 275.749 284.016 258.56 291.125 244.375C299.455 229.758 312.731 218.088 329.078 213.405C334.517 212.073 339.725 211.647 345.312 211.688Z" fill="#FEFDFC"/>
<path d="M201 222C214.456 232.463 224.284 245.92 227 263C227.274 266.111 227.335 269.19 227.312 272.313C227.307 273.142 227.301 273.972 227.295 274.826C226.946 292.594 219.113 307.317 206.5 319.625C191.956 331.755 175.179 334.852 156.867 333.824C142.349 332.183 127.586 323.111 118.504 311.926C107.322 296.822 103.381 281.579 105 263C105.876 258.428 107.207 254.29 109 250C109.362 249.121 109.724 248.242 110.098 247.336C117.132 231.931 129.751 221.502 144.957 214.672C163.045 208.078 185.222 211.168 201 222Z" fill="#FEFDFC"/>
<path d="M323 131C327.325 132.793 330.507 135.104 334 138.188C352.079 153.253 373.224 159.38 396.474 159.446C403.769 159.568 409.507 160.602 414.875 165.824C417.951 170.918 418.982 175.077 418 181C416.177 186.47 412.849 190.022 408 193C390.674 200.921 365.947 196.481 348.812 190.188C330.994 183.283 312.282 172.77 302 156C300.077 150.232 299.979 144.12 302.625 138.625C303.409 137.759 304.192 136.893 305 136C305.825 135.051 306.65 134.103 307.5 133.125C311.891 129.652 317.725 130.176 323 131Z" fill="#483634"/>
<path d="M200 131C205.018 133.419 208.5 136.999 211 142C211.771 148.541 211.54 153.65 207.598 159.043C207.07 159.689 206.543 160.335 206 161C205.442 161.718 204.884 162.436 204.309 163.176C189.268 181.356 163.859 193.12 140.629 195.758C113.179 197.59 113.179 197.59 102.5 192.25C98.296 188.466 94.535 184.875 93.7265 179.02C93.4801 173.666 94.4336 170.324 97.3203 165.824C101.14 161.676 104.439 159.796 110.055 159.496C111.995 159.462 113.935 159.443 115.875 159.438C139.794 158.857 160.161 152.383 178.957 137.367C186.276 131.674 190.698 129.735 200 131Z" fill="#483634"/>
<path d="M313.473 386.074C318.963 391.298 324.163 396.885 324.562 404.75C324.362 407.649 324.012 408.978 322.562 411.562C318.744 413.705 315.295 413.539 311 413C307.848 411.91 304.996 410.387 302.062 408.812C287.008 401.373 274.176 398.557 257.375 398.5C256.339 398.493 256.339 398.493 255.282 398.486C241.835 398.451 228.374 399.823 216 405.437C215.328 405.724 214.657 406.011 213.965 406.307C210.5 407.805 207.145 409.44 203.801 411.191C199.453 413.386 195.813 413.929 191 413C188.51 411.265 188.21 409.981 187.59 407.082C186.984 400.855 189.284 397.166 193.027 392.344C194.004 391.184 194.004 391.184 195 390C195.517 389.371 196.034 388.742 196.566 388.094C225.004 356.734 283.01 360.52 313.473 386.074Z" fill="#493634"/>
<path d="M176 227C176 227.66 176 228.32 176 229C174.574 230.297 174.574 230.297 172.688 231.75C168.592 235.207 166.362 238.054 165.688 243.543C165.411 249.813 166.069 254.96 170 260C175.583 265.088 180.658 266.423 188.145 266.344C194.159 265.62 198.176 262.184 202 257.688C202.66 256.801 203.32 255.914 204 255C207.6 260.99 206.687 268.514 205.383 275.133C202.173 286.012 196.056 294.233 186.688 300.563C176.7 305.905 164.913 307.361 153.843 304.429C141.76 300.039 134.529 292.093 129.129 280.734C125.526 272.007 125.269 259.346 128.563 250.438C133.917 239.58 142.119 232.244 153.25 227.563C160.34 225.193 168.855 224.618 176 227Z" fill="#483737"/>
<path d="M345.562 225.875C346.698 225.872 347.834 225.87 349.004 225.867C352 226 352 226 355 227C354 230 354 230 351.625 231.812C347.767 235.027 346.261 237.743 345.68 242.773C345.431 249.365 345.987 254.624 350 260C355.435 265.163 359.81 266.47 367.18 266.312C373.066 265.66 377.197 263.233 381 258.75C381.99 257.389 381.99 257.389 383 256C383.66 256.33 384.32 256.66 385 257C385.587 270.905 384.873 282.238 375 293C367.318 300.925 358.815 305.026 347.756 305.293C335.681 305.392 327.741 303.309 318.328 295.332C310.051 287.041 306 277.149 305.562 265.562C305.883 253.714 311.139 243.362 319.688 235.25C327.213 229.015 335.89 225.853 345.562 225.875Z" fill="#483636"/>
</g>
<defs>
<clipPath id="clip0_774_119">
<rect width="512" height="512" fill="white"/>
</clipPath>
</defs>
</svg>
