<svg width="49" height="46" viewBox="0 0 49 46" fill="none" xmlns="http://www.w3.org/2000/svg">
<path d="M33.0946 21.9368C32.8883 21.9375 32.6907 22.0197 32.5448 22.1656C32.3989 22.3115 32.3167 22.5092 32.3159 22.7155V44.5947C32.3155 44.6973 32.3354 44.799 32.3743 44.894C32.4132 44.989 32.4705 45.0754 32.5428 45.1483C32.6151 45.2211 32.7011 45.279 32.7957 45.3186C32.8904 45.3582 32.992 45.3788 33.0946 45.3792H47.1635C47.2662 45.3788 47.3678 45.3582 47.4624 45.3186C47.5571 45.279 47.6431 45.2211 47.7154 45.1483C47.7877 45.0754 47.845 44.989 47.8839 44.894C47.9228 44.799 47.9427 44.6973 47.9423 44.5947V22.7155C47.9415 22.5092 47.8593 22.3115 47.7134 22.1656C47.5675 22.0197 47.3698 21.9375 47.1635 21.9368H33.0946Z" fill="#FFF79C"/>
<path d="M36.2324 41.4642V45.3791H32.3159V34.2135C32.3175 33.784 32.6648 33.4366 33.0943 33.4351H47.1643C47.5937 33.4367 47.9411 33.784 47.9426 34.2135V37.2177H42.6422C36.9772 37.2567 36.2324 41.4642 36.2324 41.4642Z" fill="#FED883"/>
<path d="M1.83634 21.9368C1.63004 21.9375 1.4324 22.0197 1.28652 22.1656C1.14064 22.3115 1.05835 22.5092 1.05762 22.7155V44.5947C1.05723 44.6973 1.07707 44.799 1.11599 44.894C1.15492 44.989 1.21217 45.0754 1.28448 45.1483C1.35679 45.2211 1.44275 45.279 1.53744 45.3186C1.63213 45.3582 1.7337 45.3788 1.83634 45.3792H15.9052C16.0079 45.3788 16.1095 45.3582 16.2041 45.3186C16.2988 45.279 16.3848 45.2211 16.4571 45.1483C16.5294 45.0754 16.5867 44.989 16.6256 44.894C16.6645 44.799 16.6844 44.6973 16.684 44.5947V22.7155C16.6832 22.5092 16.6009 22.3115 16.4551 22.1656C16.3092 22.0197 16.1115 21.9375 15.9052 21.9368H1.83634Z" fill="#FFF79C"/>
<path d="M12.7674 41.4642V45.3791H16.6839V34.2135C16.6823 33.784 16.3349 33.4366 15.9055 33.4351H1.83549C1.40605 33.4367 1.05865 33.784 1.05713 34.2135V37.2177H6.35761C12.0226 37.2567 12.7674 41.4642 12.7674 41.4642Z" fill="#FED883"/>
<path d="M12.7674 29.9658V33.8808H16.6839V22.7151C16.6823 22.2857 16.3349 21.9383 15.9055 21.9368H1.83549C1.40605 21.9383 1.05865 22.2857 1.05713 22.7151V25.7193H6.35761C12.0226 25.7583 12.7674 29.9658 12.7674 29.9658Z" fill="#FED883"/>
<path d="M1.05754 32.8735C0.954888 32.8738 0.853315 32.8944 0.75862 32.934C0.663926 32.9737 0.577965 33.0315 0.505649 33.1044C0.433333 33.1772 0.376083 33.2637 0.337162 33.3586C0.298241 33.4536 0.278412 33.5553 0.278815 33.658C0.279518 33.8643 0.361791 34.062 0.507677 34.2078C0.653562 34.3537 0.85122 34.436 1.05754 34.4367H15.9052C16.1115 34.436 16.3091 34.3537 16.455 34.2078C16.6009 34.062 16.6832 33.8643 16.6839 33.658C16.6843 33.5553 16.6644 33.4536 16.6255 33.3586C16.5866 33.2637 16.5294 33.1772 16.457 33.1044C16.3847 33.0315 16.2988 32.9737 16.2041 32.934C16.1094 32.8944 16.0078 32.8738 15.9052 32.8735H1.05754Z" fill="#FCA311"/>
<path d="M4.9628 25.0632C4.7565 25.0639 4.55885 25.1462 4.41297 25.2921C4.26709 25.438 4.18481 25.6356 4.18408 25.8419V30.5315C4.18481 30.7378 4.26709 30.9354 4.41297 31.0813C4.55885 31.2272 4.7565 31.3095 4.9628 31.3102H12.7789C12.9852 31.3095 13.1828 31.2272 13.3287 31.0813C13.4746 30.9354 13.5568 30.7378 13.5576 30.5315V25.8419C13.5568 25.6356 13.4746 25.438 13.3287 25.2921C13.1828 25.1462 12.9852 25.0639 12.7789 25.0632H4.9628Z" fill="#87D1EE"/>
<path d="M4.96281 35.9999C4.86016 36.0002 4.75859 36.0208 4.66389 36.0604C4.5692 36.1001 4.48325 36.1579 4.41093 36.2308C4.33862 36.3036 4.28137 36.39 4.24245 36.485C4.20352 36.58 4.18369 36.6817 4.18409 36.7844V41.4682C4.18369 41.5709 4.20352 41.6726 4.24245 41.7675C4.28137 41.8625 4.33862 41.9489 4.41093 42.0218C4.48325 42.0946 4.5692 42.1525 4.66389 42.1921C4.75859 42.2318 4.86016 42.2523 4.96281 42.2527H12.7789C12.8815 42.2523 12.9831 42.2318 13.0778 42.1921C13.1725 42.1525 13.2584 42.0946 13.3307 42.0218C13.403 41.9489 13.4603 41.8625 13.4992 41.7675C13.5381 41.6726 13.558 41.5709 13.5576 41.4682V36.7844C13.558 36.6817 13.5381 36.58 13.4992 36.485C13.4603 36.39 13.403 36.3036 13.3307 36.2308C13.2584 36.1579 13.1725 36.1001 13.0778 36.0604C12.9831 36.0208 12.8815 36.0002 12.7789 35.9999H4.96281Z" fill="#87D1EE"/>
<path d="M8.65127 35.9997C9.08282 36.0014 9.43128 36.3527 9.42963 36.7842V41.4681C9.43128 41.8996 9.08282 42.2508 8.65127 42.2526H7.00119V39.1255C7.00283 38.694 6.65437 38.3427 6.22283 38.341H4.18409V36.7842C4.18244 36.3527 4.53091 36.0014 4.96246 35.9997H8.65127Z" fill="#5AABDD"/>
<path d="M8.65127 25.0574C9.08282 25.0591 9.43128 25.4104 9.42963 25.8419V30.5258C9.43128 30.9573 9.08282 31.3085 8.65127 31.3103H7.00119V28.1832C7.00283 27.7517 6.65437 27.4004 6.22283 27.3987H4.18409V25.8419C4.18244 25.4104 4.53091 25.0591 4.96246 25.0574H8.65127Z" fill="#5AABDD"/>
<path d="M12.7792 25.0574C13.2107 25.0591 13.5592 25.4104 13.5576 25.8419V30.5258C13.5592 30.9573 13.2107 31.3085 12.7792 31.3103H11.6085V28.1832C11.6101 27.7517 11.2616 27.4004 10.8301 27.3987H8.31202V25.8419C8.31037 25.4104 8.65884 25.0591 9.09039 25.0574H12.7792Z" fill="#5AABDD"/>
<path d="M8.08936 25.8419V31.3102H9.65257V25.8419H8.08936Z" fill="#3A4D5C"/>
<path d="M12.7792 35.9997C13.2107 36.0014 13.5592 36.3527 13.5576 36.7842V41.4681C13.5592 41.8996 13.2107 42.2508 12.7792 42.2526H11.6085V39.1255C11.6101 38.694 11.2616 38.3427 10.8301 38.341H8.31202V36.7842C8.31037 36.3527 8.65884 36.0014 9.09039 35.9997H12.7792Z" fill="#5AABDD"/>
<path d="M8.08936 36.7843V42.2527H9.65257V36.7843H8.08936Z" fill="#3A4D5C"/>
<path d="M28.4052 5.52594C28.1989 5.52667 28.0012 5.60895 27.8553 5.75482C27.7095 5.9007 27.6272 6.09836 27.6265 6.30466V10.2156C27.6272 10.4219 27.7095 10.6195 27.8553 10.7654C28.0012 10.9113 28.1989 10.9936 28.4052 10.9943H33.8793C34.026 10.9933 34.1695 10.9511 34.2933 10.8724C34.4171 10.7938 34.5163 10.6819 34.5795 10.5495C34.6427 10.4171 34.6673 10.2695 34.6506 10.1238C34.6339 9.97802 34.5765 9.83992 34.485 9.72527L33.314 8.26012L34.485 6.79497C34.5765 6.68031 34.6339 6.54221 34.6506 6.39646C34.6673 6.25071 34.6427 6.10317 34.5795 5.97078C34.5163 5.83838 34.4171 5.72647 34.2933 5.6478C34.1695 5.56912 34.026 5.52689 33.8793 5.52594H28.4052Z" fill="#2C5EB5"/>
<path d="M24.4999 1.62083C24.2936 1.62156 24.096 1.70383 23.9501 1.84971C23.8042 1.99559 23.7219 2.19324 23.7212 2.39955V6.30469C23.7208 6.40734 23.7406 6.50903 23.7796 6.60401C23.8185 6.69899 23.8757 6.78542 23.948 6.85827C24.0204 6.93112 24.1063 6.98899 24.201 7.02861C24.2957 7.06824 24.3973 7.08882 24.4999 7.08918H29.9683C30.0714 7.08958 30.1736 7.06956 30.269 7.03028C30.3643 6.99099 30.4509 6.93322 30.5239 6.86029C30.5968 6.78737 30.6546 6.70072 30.6939 6.60536C30.7331 6.51 30.7532 6.40782 30.7528 6.30469V3.96276C30.7528 2.6773 29.6905 1.62083 28.4051 1.62083H24.4999Z" fill="#4895EF"/>
<path d="M36.2324 29.9658V33.8808H32.3159V22.7151C32.3175 22.2857 32.6648 21.9383 33.0943 21.9368H47.1643C47.5937 21.9383 47.9411 22.2857 47.9426 22.7151V25.7193H42.6422C36.9772 25.7583 36.2324 29.9658 36.2324 29.9658Z" fill="#FED883"/>
<path d="M33.0946 32.8735C32.992 32.8738 32.8904 32.8944 32.7957 32.934C32.701 32.9737 32.6151 33.0315 32.5428 33.1044C32.4704 33.1772 32.4132 33.2637 32.3743 33.3586C32.3354 33.4536 32.3155 33.5553 32.3159 33.658C32.3166 33.8643 32.3989 34.062 32.5448 34.2078C32.6907 34.3537 32.8883 34.436 33.0946 34.4367H47.9423C48.1486 34.436 48.3462 34.3537 48.4921 34.2078C48.638 34.062 48.7203 33.8643 48.721 33.658C48.7214 33.5553 48.7016 33.4536 48.6626 33.3586C48.6237 33.2637 48.5665 33.1772 48.4941 33.1044C48.4218 33.0315 48.3359 32.9737 48.2412 32.934C48.1465 32.8944 48.0449 32.8738 47.9423 32.8735H33.0946Z" fill="#FCA311"/>
<path d="M44.0372 25.0632C44.2435 25.0639 44.4411 25.1462 44.587 25.2921C44.7329 25.438 44.8151 25.6356 44.8159 25.8419V30.5315C44.8151 30.7378 44.7329 30.9354 44.587 31.0813C44.4411 31.2272 44.2435 31.3095 44.0372 31.3102H36.2211C36.0148 31.3095 35.8172 31.2272 35.6713 31.0813C35.5254 30.9354 35.4431 30.7378 35.4424 30.5315V25.8419C35.4431 25.6356 35.5254 25.438 35.6713 25.2921C35.8172 25.1462 36.0148 25.0639 36.2211 25.0632H44.0372Z" fill="#87D1EE"/>
<path d="M44.0372 35.9999C44.1398 36.0002 44.2414 36.0208 44.3361 36.0604C44.4308 36.1001 44.5167 36.1579 44.589 36.2308C44.6614 36.3036 44.7186 36.39 44.7575 36.485C44.7964 36.58 44.8163 36.6817 44.8159 36.7844V41.4682C44.8163 41.5709 44.7964 41.6726 44.7575 41.7675C44.7186 41.8625 44.6614 41.9489 44.589 42.0218C44.5167 42.0946 44.4308 42.1525 44.3361 42.1921C44.2414 42.2318 44.1398 42.2523 44.0372 42.2527H36.2211C36.1185 42.2523 36.0169 42.2318 35.9222 42.1921C35.8275 42.1525 35.7415 42.0946 35.6692 42.0218C35.5969 41.9489 35.5397 41.8625 35.5007 41.7675C35.4618 41.6726 35.442 41.5709 35.4424 41.4682V36.7844C35.442 36.6817 35.4618 36.58 35.5007 36.485C35.5397 36.39 35.5969 36.3036 35.6692 36.2308C35.7415 36.1579 35.8275 36.1001 35.9222 36.0604C36.0169 36.0208 36.1185 36.0002 36.2211 35.9999H44.0372Z" fill="#87D1EE"/>
<path d="M39.9096 25.0632C40.3411 25.0649 40.6896 25.4161 40.6879 25.8477V30.5315C40.6896 30.9631 40.3411 31.3143 39.9096 31.316H38.2595V28.1889C38.2611 27.7573 37.9127 27.4062 37.4811 27.4045H35.4424V25.8477C35.4407 25.4161 35.7892 25.0649 36.2208 25.0632H39.9096Z" fill="#5AABDD"/>
<path d="M44.0375 25.0632C44.469 25.0649 44.8175 25.4161 44.8159 25.8477V30.5315C44.8175 30.9631 44.469 31.3143 44.0375 31.316H42.8668V28.1889C42.8684 27.7573 42.5199 27.4062 42.0884 27.4045H39.5703V25.8477C39.5687 25.4161 39.9171 25.0649 40.3487 25.0632H44.0375Z" fill="#5AABDD"/>
<path d="M40.9109 31.3103V25.8419C40.9094 25.4102 40.5581 25.0615 40.1264 25.0632C39.6969 25.0647 39.3491 25.4124 39.3477 25.8419V31.3103H40.9109Z" fill="#3A4D5C"/>
<path d="M39.9096 35.9997C40.3411 36.0014 40.6896 36.3527 40.6879 36.7842V41.4681C40.6896 41.8996 40.3411 42.2508 39.9096 42.2526H38.2595V39.1255C38.2611 38.694 37.9127 38.3427 37.4811 38.341H35.4424V36.7842C35.4407 36.3527 35.7892 36.0014 36.2208 35.9997H39.9096Z" fill="#5AABDD"/>
<path d="M44.0375 35.9997C44.469 36.0014 44.8175 36.3527 44.8159 36.7842V41.4681C44.8175 41.8996 44.469 42.2508 44.0375 42.2526H42.8668V39.1255C42.8684 38.694 42.5199 38.3427 42.0884 38.341H39.5703V36.7842C39.5687 36.3527 39.9171 36.0014 40.3487 35.9997H44.0375Z" fill="#5AABDD"/>
<path d="M39.3477 36.7843V42.2527H40.9109V36.7843H39.3477Z" fill="#3A4D5C"/>
<path d="M4.1839 25.0632C4.08125 25.0628 3.97953 25.0826 3.88455 25.1215C3.78956 25.1604 3.70318 25.2177 3.63033 25.29C3.55747 25.3623 3.49958 25.4483 3.45996 25.543C3.42034 25.6377 3.39977 25.7392 3.39941 25.8419C3.39977 25.9445 3.42034 26.0462 3.45996 26.1409C3.49958 26.2356 3.55747 26.3214 3.63033 26.3938C3.70318 26.4661 3.78956 26.5234 3.88455 26.5623C3.97953 26.6012 4.08125 26.621 4.1839 26.6206H13.5574C13.66 26.621 13.7618 26.6012 13.8568 26.5623C13.9517 26.5234 14.0381 26.4661 14.111 26.3938C14.1838 26.3214 14.2417 26.2356 14.2813 26.1409C14.321 26.0462 14.3415 25.9445 14.3419 25.8419C14.3415 25.7392 14.321 25.6377 14.2813 25.543C14.2417 25.4483 14.1838 25.3623 14.111 25.29C14.0381 25.2177 13.9517 25.1604 13.8568 25.1215C13.7618 25.0826 13.66 25.0628 13.5574 25.0632H4.1839Z" fill="#3A4D5C"/>
<path d="M4.18391 35.9999C4.08077 35.9995 3.97858 36.0194 3.88321 36.0587C3.78785 36.098 3.70121 36.1558 3.62828 36.2287C3.55535 36.3016 3.49758 36.3883 3.4583 36.4837C3.41902 36.579 3.39901 36.6812 3.39942 36.7844C3.39977 36.887 3.42034 36.9886 3.45996 37.0833C3.49959 37.178 3.55748 37.2639 3.63033 37.3362C3.70318 37.4085 3.78957 37.4658 3.88455 37.5048C3.97954 37.5437 4.08126 37.5635 4.18391 37.5631H13.5574C13.6601 37.5635 13.7618 37.5437 13.8568 37.5048C13.9517 37.4658 14.0381 37.4085 14.111 37.3362C14.1838 37.2639 14.2417 37.178 14.2813 37.0833C14.321 36.9886 14.3415 36.887 14.3419 36.7844C14.3423 36.6812 14.3223 36.579 14.283 36.4837C14.2437 36.3883 14.186 36.3016 14.113 36.2287C14.0401 36.1558 13.9535 36.098 13.8581 36.0587C13.7627 36.0194 13.6605 35.9995 13.5574 35.9999H4.18391Z" fill="#3A4D5C"/>
<path d="M35.4427 25.0632C35.34 25.0628 35.2383 25.0826 35.1433 25.1215C35.0484 25.1604 34.962 25.2177 34.8891 25.29C34.8163 25.3623 34.7584 25.4483 34.7187 25.543C34.6791 25.6377 34.6586 25.7392 34.6582 25.8419C34.6586 25.9445 34.6791 26.0462 34.7187 26.1409C34.7584 26.2356 34.8163 26.3214 34.8891 26.3938C34.962 26.4661 35.0484 26.5234 35.1433 26.5623C35.2383 26.6012 35.34 26.621 35.4427 26.6206H44.8162C44.9188 26.621 45.0206 26.6012 45.1155 26.5623C45.2105 26.5234 45.2969 26.4661 45.3698 26.3938C45.4426 26.3214 45.5005 26.2356 45.5401 26.1409C45.5798 26.0462 45.6003 25.9445 45.6007 25.8419C45.6003 25.7392 45.5798 25.6377 45.5401 25.543C45.5005 25.4483 45.4426 25.3623 45.3698 25.29C45.2969 25.2177 45.2105 25.1604 45.1155 25.1215C45.0206 25.0826 44.9188 25.0628 44.8162 25.0632H35.4427Z" fill="#3A4D5C"/>
<path d="M35.4427 35.9999C35.3396 35.9995 35.2374 36.0194 35.142 36.0587C35.0466 36.098 34.96 36.1558 34.8871 36.2287C34.8141 36.3016 34.7564 36.3883 34.7171 36.4837C34.6778 36.579 34.6578 36.6812 34.6582 36.7844C34.6586 36.887 34.6791 36.9886 34.7188 37.0833C34.7584 37.178 34.8163 37.2639 34.8891 37.3362C34.962 37.4085 35.0484 37.4658 35.1433 37.5048C35.2383 37.5437 35.3401 37.5635 35.4427 37.5631H44.8162C44.9188 37.5635 45.0206 37.5437 45.1155 37.5048C45.2105 37.4658 45.2969 37.4085 45.3698 37.3362C45.4426 37.2639 45.5005 37.178 45.5401 37.0833C45.5798 36.9886 45.6003 36.887 45.6007 36.7844C45.6011 36.6812 45.5811 36.579 45.5418 36.4837C45.5025 36.3883 45.4447 36.3016 45.3718 36.2287C45.2989 36.1558 45.2123 36.098 45.1169 36.0587C45.0215 36.0194 44.9193 35.9995 44.8162 35.9999H35.4427Z" fill="#3A4D5C"/>
<path d="M24.5001 15.2282L32.3162 23.0385V43.8159H16.6841V23.0385L24.5001 15.2282Z" fill="#FFF79C"/>
<path d="M24.4768 13.342C24.2777 13.3466 24.0879 13.4271 23.9461 13.567L15.3514 22.1618C15.2783 22.2343 15.2203 22.3206 15.1807 22.4156C15.1411 22.5106 15.1207 22.6126 15.1206 22.7155V44.5947C15.1202 44.6978 15.1402 44.8 15.1795 44.8954C15.2188 44.9907 15.2766 45.0774 15.3495 45.1503C15.4224 45.2232 15.5091 45.281 15.6044 45.3203C15.6998 45.3595 15.802 45.3796 15.9051 45.3792H33.0946C33.1978 45.3796 33.3 45.3595 33.3953 45.3203C33.4907 45.281 33.5773 45.2232 33.6502 45.1503C33.7232 45.0774 33.7809 44.9907 33.8202 44.8954C33.8595 44.8 33.8795 44.6978 33.8791 44.5947V22.7155C33.879 22.6126 33.8586 22.5106 33.819 22.4156C33.7794 22.3206 33.7214 22.2343 33.6484 22.1618L25.0536 13.567C24.9779 13.4922 24.8876 13.4336 24.7884 13.3949C24.6892 13.3562 24.5832 13.3382 24.4768 13.342Z" fill="#FFF79C"/>
<path d="M19.0316 30.5316C18.9289 30.5312 18.8272 30.551 18.7322 30.59C18.6372 30.6289 18.5509 30.6861 18.478 30.7584C18.4052 30.8307 18.3473 30.9167 18.3076 31.0114C18.268 31.1061 18.2474 31.2076 18.2471 31.3103V34.4367C18.2467 34.5398 18.2667 34.642 18.306 34.7374C18.3453 34.8327 18.403 34.9194 18.476 34.9924C18.5489 35.0653 18.6355 35.123 18.7309 35.1622C18.8262 35.2015 18.9284 35.2216 19.0316 35.2212H29.9683C30.0714 35.2216 30.1736 35.2015 30.2689 35.1622C30.3643 35.123 30.4509 35.0653 30.5239 34.9924C30.5968 34.9194 30.6546 34.8327 30.6938 34.7374C30.7331 34.642 30.7532 34.5398 30.7528 34.4367V31.3103C30.7524 31.2076 30.7318 31.1061 30.6922 31.0114C30.6526 30.9167 30.5947 30.8307 30.5218 30.7584C30.449 30.6861 30.3626 30.6289 30.2676 30.59C30.1726 30.551 30.0709 30.5312 29.9683 30.5316H19.0316Z" fill="#87D1EE"/>
<path d="M19.0316 23.5C18.9289 23.4996 18.8272 23.5195 18.7322 23.5584C18.6372 23.5973 18.5509 23.6545 18.478 23.7268C18.4052 23.7992 18.3473 23.8851 18.3076 23.9798C18.268 24.0745 18.2474 24.1761 18.2471 24.2787V27.4051C18.2474 27.5078 18.268 27.6094 18.3076 27.7041C18.3473 27.7988 18.4052 27.8847 18.478 27.957C18.5509 28.0293 18.6372 28.0866 18.7322 28.1255C18.8272 28.1645 18.9289 28.1842 19.0316 28.1838H29.9683C30.0709 28.1842 30.1726 28.1645 30.2676 28.1255C30.3626 28.0866 30.449 28.0293 30.5218 27.957C30.5947 27.8847 30.6526 27.7988 30.6922 27.7041C30.7318 27.6094 30.7524 27.5078 30.7528 27.4051V24.2787C30.7524 24.1761 30.7318 24.0745 30.6922 23.9798C30.6526 23.8851 30.5947 23.7992 30.5218 23.7268C30.449 23.6545 30.3626 23.5973 30.2676 23.5584C30.1726 23.5195 30.0709 23.4996 29.9683 23.5H19.0316Z" fill="#87D1EE"/>
<path d="M22.7143 30.5316C23.1458 30.5333 23.4943 30.8845 23.4926 31.316V34.4367C23.4943 34.8682 23.1458 35.2195 22.7143 35.2212H21.0026V32.6097C21.0042 32.1781 20.6557 31.827 20.2242 31.8253H18.2471V31.316C18.2471 31.316 18.5939 30.5333 19.0254 30.5316H22.7143Z" fill="#5AABDD"/>
<path d="M23.7214 35.2212V30.5316H22.1582V35.2212H23.7214Z" fill="#3A4D5C"/>
<path d="M20.595 37.5631C20.4924 37.5627 20.3907 37.5826 20.2957 37.6215C20.2007 37.6604 20.1143 37.7176 20.0415 37.7899C19.9686 37.8622 19.9107 37.9482 19.8711 38.0429C19.8315 38.1376 19.8109 38.2391 19.8106 38.3418V44.5946C19.8102 44.6978 19.8302 44.7999 19.8695 44.8953C19.9087 44.9907 19.9665 45.0773 20.0394 45.1502C20.1124 45.2231 20.199 45.2809 20.2944 45.3202C20.3897 45.3595 20.4919 45.3795 20.595 45.3791H28.4053C28.5085 45.3795 28.6106 45.3595 28.706 45.3202C28.8014 45.2809 28.888 45.2231 28.9609 45.1502C29.0338 45.0773 29.0916 44.9907 29.1309 44.8953C29.1702 44.7999 29.1902 44.6978 29.1898 44.5946V38.3418C29.1895 38.2391 29.1689 38.1376 29.1292 38.0429C29.0896 37.9482 29.0317 37.8622 28.9589 37.7899C28.886 37.7176 28.7996 37.6604 28.7047 37.6215C28.6097 37.5826 28.508 37.5627 28.4053 37.5631H20.595Z" fill="#D0E2EE"/>
<path d="M25.1089 37.9443C24.6774 37.946 24.3289 38.2972 24.3306 38.7288V43.8159C24.3289 44.2474 24.6774 44.5986 25.1089 44.6004H26.0472V40.7687C26.0456 40.3371 26.394 39.986 26.8256 39.9843H29.1894V38.7288C29.1894 38.7288 28.8426 37.946 28.4111 37.9443H25.1089Z" fill="#91A9D9"/>
<path d="M23.8911 37.9443C24.3226 37.946 24.6711 38.2972 24.6694 38.7288V43.8159C24.6711 44.2474 24.3226 44.5986 23.8911 44.6004H22.9528V40.7687C22.9544 40.3371 22.6059 39.986 22.1744 39.9843H19.8105V38.7288C19.8105 38.7288 20.1574 37.946 20.5889 37.9443H23.8911Z" fill="#91A9D9"/>
<path d="M19.8105 37.5631C19.6042 37.5638 19.4065 37.646 19.2606 37.7919C19.1147 37.9378 19.0325 38.1355 19.0317 38.3418C19.0313 38.4444 19.0512 38.5461 19.0901 38.6411C19.129 38.7361 19.1863 38.8225 19.2586 38.8954C19.3309 38.9682 19.4168 39.0261 19.5115 39.0657C19.6062 39.1053 19.7078 39.1259 19.8105 39.1263H29.1897C29.2924 39.1259 29.394 39.1053 29.4887 39.0657C29.5834 39.0261 29.6693 38.9682 29.7416 38.8954C29.8139 38.8225 29.8712 38.7361 29.9101 38.6411C29.949 38.5461 29.9689 38.4444 29.9684 38.3418C29.9677 38.1355 29.8855 37.9378 29.7396 37.7919C29.5937 37.646 29.396 37.5638 29.1897 37.5631H19.8105Z" fill="#3A4D5C"/>
<path d="M29.9745 30.5316C30.4061 30.5333 30.7545 30.8845 30.7529 31.316V34.4367C30.7545 34.8682 30.4061 35.2195 29.9745 35.2212H29.3413V32.6097C29.3429 32.1781 28.9944 31.827 28.5629 31.8253H25.5073V31.316C25.5073 31.316 25.8541 30.5333 26.2857 30.5316H29.9745Z" fill="#5AABDD"/>
<path d="M26.842 35.2212V30.5316H25.2788V35.2212H26.842Z" fill="#3A4D5C"/>
<path d="M22.7143 23.5C23.1458 23.5017 23.4943 23.8529 23.4926 24.2845V27.4051C23.4943 27.8367 23.1458 28.1879 22.7143 28.1896H21.0026V25.5781C21.0042 25.1466 20.6557 24.7954 20.2242 24.7937H18.2471V24.2845C18.2471 24.2845 18.5939 23.5017 19.0254 23.5H22.7143Z" fill="#5AABDD"/>
<path d="M29.9745 23.5C30.4061 23.5017 30.7545 23.8529 30.7529 24.2845V27.4051C30.7545 27.8367 30.4061 28.1879 29.9745 28.1896H29.3413V25.5781C29.3429 25.1466 28.9944 24.7954 28.5629 24.7937H25.5073V24.2845C25.5073 24.2845 25.8541 23.5017 26.2857 23.5H29.9745Z" fill="#5AABDD"/>
<path d="M23.7214 28.1838V23.5H22.1582V28.1838H23.7214ZM26.8421 28.1838V23.5H25.2789V28.1838H26.8421Z" fill="#3A4D5C"/>
<path d="M25.2786 44.5947V38.3419H23.7212V44.5947H25.2786Z" fill="#3A4D5C"/>
<path d="M24.4999 1.62083C24.2936 1.62154 24.0959 1.70383 23.9501 1.84971C23.8042 1.9956 23.7219 2.19324 23.7212 2.39955V10.2156C23.7219 10.4219 23.8042 10.6196 23.9501 10.7655C24.0959 10.9114 24.2936 10.9936 24.4999 10.9943C24.7062 10.9936 24.9039 10.9114 25.0498 10.7655C25.1957 10.6196 25.2779 10.4219 25.2786 10.2156V2.39955C25.2779 2.19324 25.1956 1.99559 25.0498 1.84971C24.9039 1.70383 24.7062 1.62154 24.4999 1.62083Z" fill="#3A4D5C"/>
<path d="M30.9663 15.684C30.8105 15.684 30.6583 15.7306 30.5293 15.8178C30.4002 15.9049 30.3001 16.0287 30.2418 16.1731C30.1835 16.3175 30.1698 16.4761 30.2022 16.6284C30.2347 16.7807 30.3119 16.9199 30.424 17.028L33.6601 20.1544C33.8056 20.2949 34 20.3734 34.2023 20.3735H44.816C44.949 20.3733 45.0798 20.3392 45.196 20.2743C45.3122 20.2093 45.4098 20.1158 45.4797 20.0025C45.5496 19.8893 45.5895 19.7602 45.5954 19.6272C45.6014 19.4943 45.5734 19.362 45.5139 19.2429L43.9507 16.1165C43.886 15.9868 43.7864 15.8776 43.6631 15.8012C43.5399 15.7248 43.3978 15.6842 43.2527 15.6839L30.9663 15.684Z" fill="#DC1C4B"/>
<path d="M1.05754 43.8159C0.851225 43.8166 0.653573 43.8989 0.507688 44.0448C0.361803 44.1906 0.279526 44.3883 0.278815 44.5946C0.278412 44.6973 0.298241 44.799 0.337162 44.894C0.376083 44.989 0.433333 45.0754 0.505649 45.1482C0.577965 45.2211 0.663926 45.2789 0.75862 45.3186C0.853315 45.3582 0.954888 45.3788 1.05754 45.3791H47.9423C48.045 45.3788 48.1465 45.3582 48.2412 45.3186C48.3359 45.2789 48.4219 45.2211 48.4942 45.1482C48.5665 45.0754 48.6238 44.989 48.6627 44.894C48.7016 44.799 48.7214 44.6973 48.721 44.5946C48.7203 44.3883 48.638 44.1906 48.4922 44.0448C48.3463 43.8989 48.1486 43.8166 47.9423 43.8159H1.05754Z" fill="#FCA311"/>
<path d="M5.7473 15.6839C5.60227 15.6842 5.46018 15.7248 5.33691 15.8012C5.21365 15.8776 5.11407 15.9868 5.04933 16.1165L3.48612 19.243C3.42667 19.362 3.39862 19.4942 3.4046 19.6272C3.41058 19.7601 3.45041 19.8893 3.52031 20.0026C3.59022 20.1158 3.68787 20.2093 3.80403 20.2742C3.92019 20.3391 4.05101 20.3733 4.18409 20.3735H14.7978C15.0001 20.3734 15.1944 20.2949 15.34 20.1544L18.576 17.028C18.6881 16.9199 18.7653 16.7807 18.7978 16.6284C18.8303 16.4761 18.8165 16.3175 18.7582 16.1731C18.7 16.0287 18.5999 15.9049 18.4708 15.8178C18.3417 15.7307 18.1895 15.6841 18.0338 15.684L5.7473 15.6839Z" fill="#DC1C4B"/>
<path d="M14.5876 15.6844L12.9713 17.2473H4.48413L3.486 19.2435C3.42685 19.3625 3.39902 19.4946 3.40512 19.6273C3.41122 19.76 3.45105 19.889 3.52086 20.0021C3.59067 20.1151 3.68816 20.2085 3.8041 20.2734C3.92004 20.3383 4.05061 20.3725 4.18347 20.3729H14.7982C15.0002 20.3729 15.1944 20.2947 15.34 20.1547L18.5755 17.0275C18.6873 16.9194 18.7642 16.7803 18.7965 16.6282C18.8288 16.4761 18.8149 16.3178 18.7568 16.1736C18.6986 16.0294 18.5987 15.9058 18.4699 15.8186C18.3411 15.7315 18.1892 15.6848 18.0337 15.6844H14.5876Z" fill="#B01D47"/>
<path d="M2.62082 18.8103C2.4758 18.8106 2.3337 18.8512 2.21044 18.9276C2.08717 19.004 1.9876 19.1132 1.92286 19.2429L0.359646 22.3694C0.300205 22.4884 0.272148 22.6206 0.278135 22.7536C0.284122 22.8865 0.323948 23.0157 0.393851 23.129C0.463753 23.2422 0.561421 23.3357 0.677579 23.4006C0.793737 23.4655 0.924543 23.4997 1.05761 23.4999H11.5617C11.764 23.4998 11.9583 23.4213 12.1039 23.2808L15.3399 20.1544C15.452 20.0463 15.5293 19.9071 15.5618 19.7548C15.5942 19.6025 15.5805 19.4439 15.5222 19.2994C15.4639 19.155 15.3638 19.0313 15.2347 18.9442C15.1056 18.857 14.9535 18.8105 14.7977 18.8104L2.62082 18.8103Z" fill="#DC1C4B"/>
<path d="M34.411 15.6844L36.0272 17.2473H44.5144L45.5126 19.2435C45.5717 19.3625 45.5995 19.4946 45.5934 19.6273C45.5873 19.76 45.5475 19.889 45.4777 20.0021C45.4079 20.1151 45.3104 20.2085 45.1945 20.2734C45.0785 20.3382 44.948 20.3726 44.8151 20.373H34.2004C33.9984 20.373 33.8042 20.2947 33.6586 20.1547L30.4231 17.0275C30.3113 16.9193 30.2344 16.7803 30.2021 16.6282C30.1698 16.4761 30.1836 16.3178 30.2418 16.1735C30.3 16.0293 30.3999 15.9058 30.5287 15.8187C30.6575 15.7315 30.8094 15.6848 30.9649 15.6844H34.411Z" fill="#B01D47"/>
<path d="M34.2021 18.8103C34.0464 18.8104 33.8942 18.8569 33.7651 18.9441C33.636 19.0312 33.5359 19.155 33.4777 19.2995C33.4194 19.4439 33.4056 19.6025 33.4381 19.7548C33.4705 19.9071 33.5478 20.0462 33.6599 20.1543L36.8959 23.2808C37.0415 23.4212 37.2359 23.4997 37.4381 23.4999H47.9422C48.0753 23.4997 48.2061 23.4655 48.3223 23.4005C48.4384 23.3356 48.5361 23.2421 48.606 23.1289C48.6759 23.0157 48.7157 22.8865 48.7217 22.7536C48.7277 22.6207 48.6996 22.4883 48.6402 22.3693L47.077 19.2429C47.0122 19.1131 46.9127 19.0039 46.7894 18.9275C46.6661 18.8511 46.524 18.8105 46.379 18.8102L34.2021 18.8103Z" fill="#DC1C4B"/>
<path d="M11.4606 18.8102L9.84437 20.373H1.35718L0.359059 22.3692C0.299909 22.4882 0.272069 22.6202 0.278168 22.753C0.284267 22.8857 0.324105 23.0147 0.393917 23.1277C0.463729 23.2408 0.56121 23.3341 0.67715 23.399C0.79309 23.4639 0.923653 23.4982 1.05652 23.4986H11.6712C11.8732 23.4986 12.0674 23.4204 12.213 23.2803L15.4486 20.1532C15.5603 20.045 15.6372 19.906 15.6695 19.7539C15.7018 19.6018 15.688 19.4435 15.6298 19.2993C15.5716 19.1551 15.4718 19.0315 15.3429 18.9444C15.2141 18.8572 15.0623 18.8105 14.9068 18.8102H11.4606Z" fill="#B01D47"/>
<path d="M37.5394 18.8102L39.1557 20.373H47.6429L48.641 22.3692C48.7001 22.4882 48.728 22.6202 48.7219 22.753C48.7158 22.8857 48.6759 23.0147 48.6061 23.1277C48.5363 23.2408 48.4388 23.3341 48.3229 23.399C48.207 23.4639 48.0764 23.4982 47.9435 23.4986H37.3288C37.1268 23.4986 36.9326 23.4204 36.787 23.2803L33.5515 20.1532C33.4397 20.045 33.3628 19.906 33.3305 19.7539C33.2982 19.6018 33.3121 19.4435 33.3702 19.2993C33.4284 19.1551 33.5283 19.0315 33.6571 18.9444C33.7859 18.8572 33.9378 18.8105 34.0933 18.8102H37.5394Z" fill="#B01D47"/>
<path d="M24.4777 13.3418C24.2783 13.3465 24.0883 13.4274 23.9466 13.5677L15.3511 22.1617C15.278 22.2343 15.2201 22.3206 15.1805 22.4157C15.141 22.5108 15.1206 22.6127 15.1206 22.7157V25.063H15.9051C16.008 25.063 16.11 25.0426 16.2051 25.003C16.3002 24.9635 16.3865 24.9055 16.4591 24.8325L24.5006 16.791L32.5406 24.8325C32.6132 24.9055 32.6995 24.9635 32.7946 25.003C32.8897 25.0426 32.9917 25.063 33.0946 25.063H33.8791V22.7157C33.8791 22.6127 33.8587 22.5108 33.8192 22.4157C33.7796 22.3206 33.7217 22.2343 33.6486 22.1617L25.0546 13.5677C24.9789 13.4927 24.8887 13.4339 24.7895 13.3951C24.6903 13.3563 24.5842 13.3381 24.4777 13.3418Z" fill="#FED883"/>
<path d="M24.4594 9.43103C24.2712 9.44116 24.093 9.519 23.9576 9.65019L11.0193 22.1558C10.9072 22.2639 10.8299 22.4031 10.7974 22.5555C10.765 22.7078 10.7788 22.8664 10.837 23.0108C10.8953 23.1552 10.9954 23.2789 11.1245 23.3661C11.2536 23.4532 11.4058 23.4998 11.5615 23.4998H15.905C16.008 23.4998 16.1099 23.4794 16.2049 23.4398C16.3 23.4002 16.3862 23.3422 16.4588 23.2692L24.4998 15.2282L32.5408 23.2692C32.6134 23.3422 32.6997 23.4002 32.7947 23.4398C32.8897 23.4794 32.9916 23.4998 33.0946 23.4998H37.4381C37.5939 23.4998 37.746 23.4532 37.8751 23.3661C38.0042 23.2789 38.1043 23.1552 38.1626 23.0108C38.2209 22.8664 38.2346 22.7078 38.2022 22.5555C38.1697 22.4031 38.0924 22.2639 37.9803 22.1558L25.042 9.65019C24.9651 9.57569 24.8737 9.51781 24.7735 9.48011C24.6733 9.44241 24.5664 9.4257 24.4594 9.43103Z" fill="#DC1C4B"/>
<path d="M24.5001 17.2471C23.2147 17.2471 22.1582 18.3094 22.1582 19.5948C22.1582 20.8802 23.2147 21.9367 24.5001 21.9367C25.7856 21.9367 26.842 20.8802 26.8421 19.5948C26.8421 18.3094 25.7856 17.2471 24.5001 17.2471Z" fill="#D0E2EE"/>
<path d="M24.5003 17.2473C23.4503 17.2473 22.564 17.9599 22.2705 18.9201C22.4835 18.8554 22.7045 18.8102 22.9375 18.8102C24.2229 18.8102 25.2787 19.872 25.2786 21.1574C25.2786 21.391 25.2336 21.6125 25.1688 21.8259C26.1299 21.5338 26.8415 20.6463 26.8415 19.5947C26.8415 18.3093 25.7857 17.2473 24.5003 17.2473Z" fill="#A8C2E1"/>
</svg>
