<svg width="24" height="25" viewBox="0 0 24 25" fill="none" xmlns="http://www.w3.org/2000/svg">
<path d="M3.6001 11.3V22.1H12.0001V11.3H3.6001ZM10.8001 20.9001H4.8001V12.5H10.8001V20.9001Z" fill="black"/>
<path d="M24 7.7V5.29958C24 5.17039 23.9792 5.04237 23.9384 4.91998L22.7384 1.32041C22.5752 0.830422 22.1164 0.5 21.6 0.5H2.4C1.88358 0.5 1.42481 0.830422 1.26159 1.32041L0.0615938 4.91998C0.0208125 5.04242 0 5.17039 0 5.29958V7.7C0 8.36281 0.537188 8.9 1.2 8.9V23.3H0.6C0.268406 23.3 0 23.5684 0 23.9C0 24.2316 0.268406 24.5 0.6 24.5H23.4C23.7316 24.5 24 24.2316 24 23.9C24 23.5684 23.7316 23.3 23.4 23.3H22.8V8.9C23.4628 8.9 24 8.36281 24 7.7ZM21.6 1.7L22.6 4.7H18.1244L17.3612 1.7H21.6ZM12.6 1.7H16.1216L16.8716 4.7H12.6V1.7ZM12.6 5.9H17.04V7.7H12.6V5.9ZM7.87842 1.7H11.4V4.7H7.12838L7.87842 1.7ZM6.96 5.9H11.4V7.7H6.96V5.9ZM2.4 1.7H6.63881L5.87559 4.7H1.40002L2.4 1.7ZM1.2 5.9H5.76V7.7H2.4H1.2V5.9ZM19.2 23.3H14.4V18.5H15.6V17.3H14.4V12.5H19.2V23.3ZM21.6 23.3H20.4V11.3H13.2V23.3H2.4V8.9H21.6V23.3ZM21.6 7.7H18.24V5.9H22.8V7.7H21.6Z" fill="black"/>
</svg>
