<svg width="24" height="24" viewBox="0 0 24 24" fill="none" xmlns="http://www.w3.org/2000/svg">
<g clip-path="url(#clip0_671_40)">
<path fill-rule="evenodd" clip-rule="evenodd" d="M21 4.5H3C2.17157 4.5 1.5 5.17157 1.5 6V18C1.5 18.8284 2.17157 19.5 3 19.5H21C21.8284 19.5 22.5 18.8284 22.5 18V6C22.5 5.17157 21.8284 4.5 21 4.5ZM7.5 15C7.30103 15.0002 7.11015 14.9212 6.96938 14.7806L4.71938 12.5306C4.42632 12.2376 4.42632 11.7624 4.71938 11.4694C5.01243 11.1763 5.48757 11.1763 5.78062 11.4694L7.5 13.1897L12.2194 8.46937C12.5124 8.17632 12.9876 8.17632 13.2806 8.46937C13.5737 8.76243 13.5737 9.23757 13.2806 9.53063L8.03063 14.7806C7.88985 14.9212 7.69897 15.0002 7.5 15ZM20.0306 9.53063L14.7806 14.7806C14.6399 14.9215 14.4491 15.0006 14.25 15.0006C14.0509 15.0006 13.8601 14.9215 13.7194 14.7806L12.2194 13.2806C11.9263 12.9876 11.9263 12.5124 12.2194 12.2194C12.5124 11.9263 12.9876 11.9263 13.2806 12.2194L14.25 13.1897L18.9694 8.46937C19.2624 8.17632 19.7376 8.17632 20.0306 8.46937C20.3237 8.76243 20.3237 9.23757 20.0306 9.53063Z" fill="#141C24"/>
</g>
<defs>
<clipPath id="clip0_671_40">
<rect width="24" height="24" fill="white"/>
</clipPath>
</defs>
</svg>
