<svg width="102" height="102" viewBox="0 0 102 102" fill="none" xmlns="http://www.w3.org/2000/svg">
<path d="M88.8646 27.3677C86.3264 24.828 83.0256 23.3074 79.2292 22.7243C78.6464 18.9256 77.1267 15.6229 74.5939 13.0832C70.5361 9.0234 65.7189 5.80303 60.4172 3.606C55.1156 1.40898 49.4333 0.278311 43.695 0.278564C32.1058 0.279076 20.9916 4.88603 12.7972 13.086C4.60277 21.2859 -0.000510695 32.4071 4.24955e-08 44.003C0.00051078 55.5989 4.60477 66.7197 12.7999 74.9189C15.3327 77.4532 18.6334 78.9737 22.4298 79.5569C23.0127 83.3555 24.5378 86.6637 27.0705 89.1979C35.2649 97.3971 46.3789 102.003 57.9675 102.003C69.5562 102.003 80.6702 97.3971 88.8646 89.1979C97.059 80.9987 101.663 69.8782 101.663 58.2828C101.663 46.6874 97.059 35.5669 88.8646 27.3677Z" fill="url(#paint0_linear_750_7)"/>
<defs>
<linearGradient id="paint0_linear_750_7" x1="18.9657" y1="79.0391" x2="82.05" y2="23.8781" gradientUnits="userSpaceOnUse">
<stop stop-color="#0000C9"/>
<stop offset="0.128" stop-color="#2006C9"/>
<stop offset="0.322" stop-color="#4A0EC8"/>
<stop offset="0.511" stop-color="#6B14C8"/>
<stop offset="0.691" stop-color="#8318C7"/>
<stop offset="0.858" stop-color="#911BC7"/>
<stop offset="1" stop-color="#961CC7"/>
</linearGradient>
</defs>
</svg>
