<?xml version="1.0" encoding="iso-8859-1"?>
<!-- Uploaded to: SVG Repo, www.svgrepo.com, Generator: SVG Repo Mixer Tools -->
<svg height="800px" width="800px" version="1.1" id="Layer_1" xmlns="http://www.w3.org/2000/svg" xmlns:xlink="http://www.w3.org/1999/xlink" 
	 viewBox="0 0 508 508" xml:space="preserve">
<circle style="fill:#FD8469;" cx="254" cy="254" r="254"/>
<polygon style="fill:#F9B54C;" points="220.8,324.4 213.2,298 186.8,302.8 160.4,298 152.8,324.4 150.4,342.8 186.8,379.2 
	223.2,342.8 "/>
<path style="fill:#E6E9EE;" d="M287.6,367.6c-13.2-4.8-23.6-9.2-32.4-13.6c-5.6-2.8-10.4-5.6-14.4-8.4
	c-19.6-12.4-19.6-21.6-19.6-21.6c-7.2,38.4-30.4,40.8-34,40.8s-26.8-2.4-34-40.8c0,0-0.4,8.8-19.6,21.6c-4,2.8-8.8,5.2-14.4,8
	c-8.4,4.4-19.2,8.8-32,13.6c0,0-14.8,13.6-22.4,54.8c46.4,52.4,114.4,85.6,190,85.6c4.8,0,9.6,0,14-0.4c-0.4-6-0.4-11.6-0.4-16.4
	c0,4.8,0.4,10.4,0.8,16.4c16-0.8,31.2-3.2,46.4-6.8c-0.4-7.6-0.8-12.4-0.8-12.4C316.4,394.8,287.6,367.6,287.6,367.6z"/>
<path style="fill:#324A5E;" d="M255.2,354.4c-5.6-2.8-10.4-5.6-14.4-8.4l-5.6,80.4h-96.4l-6-80.4c-4,2.8-8.8,5.2-14.4,8
	c4.8,34-5.2,81.6-5.2,81.6l-3.2,27.6c40.8,28,90.4,44.4,143.6,44.4c4.8,0,9.6,0,14-0.4l-8-71.6C260.4,436,250.4,388.4,255.2,354.4z"
	/>
<path style="fill:#FFD05B;" d="M229.6,295.6L229.6,295.6c-8.8,20.4-24.4,38.4-42.8,38.4s-34-18-42.8-38.4l0,0c0,0-4.4-15.6-2.4-24.8
	h90C233.6,280,229.6,295.6,229.6,295.6z"/>
<g>
	<path style="fill:#324A5E;" d="M229.6,295.6c0,0,4.4-15.2,2.4-24.8h8.4C240.4,270.8,238,287.2,229.6,295.6z"/>
	<path style="fill:#324A5E;" d="M144,295.6c-8.4-8.4-10.8-24.8-10.8-24.8h8.8C140,280,144,295.6,144,295.6z"/>
</g>
<g>
	<path style="fill:#E6E9EE;" d="M154.8,188l10.4,65.2H130c-1.2-4.8-2-10-2-15.2C128,216.8,138.8,198.4,154.8,188z"/>
	<path style="fill:#E6E9EE;" d="M245.6,237.6c0,5.2-0.8,10.4-2,15.2h-34.8l10.4-65.2C234.8,198.4,245.6,216.8,245.6,237.6z"/>
</g>
<g>
	<path style="fill:#FFFFFF;" d="M244.8,252.8h-36.4l10.4-65.2c1.2-6.8-4-12.8-11.2-12.8H166c-6.8,0-12,6-11.2,12.8l10.4,65.2h-36.4
		c-4.8,0-9.2,4-9.2,9.2c0,4.8,4,9.2,9.2,9.2h116.4c4.8,0,9.2-4,9.2-9.2C254,256.8,250,252.8,244.8,252.8z"/>
	<path style="fill:#FFFFFF;" d="M362.8,122c-51.6,0-93.6,30.8-93.6,68.8c0,18,9.2,34.4,24.4,46.4l-15.2,45.2l47.6-28
		c11.2,3.6,23.6,5.6,36.4,5.6c51.6,0,93.6-30.8,93.6-68.8C456.8,152.8,414.8,122,362.8,122z"/>
</g>
<path style="fill:#84DBFF;" d="M399.6,194.8l8.4-1.6v-10l-8.4-1.6c-0.8-5.6-3.2-10.8-6.4-15.2l4.8-7.2l-7.2-7.2l-7.2,4.8
	c-4.4-3.2-9.6-5.2-15.2-6.4l-1.6-8.4H358l-1.6,8.4c-5.6,0.8-10.8,3.2-15.2,6.4L334,152l-7.2,7.2l4.8,7.2c-3.2,4.4-5.2,9.6-6.4,15.2
	l-8.4,1.6v10l8.4,1.6c0.8,5.6,3.2,10.8,6.4,15.2l-4.8,7.2l7.2,7.2l7.2-4.8c4.4,3.2,9.6,5.2,15.2,6.4l1.6,8.4h10l1.6-8.4
	c5.6-0.8,10.8-3.2,15.2-6.4l7.2,4.8l7.2-7.2l-5.6-7.2C396.8,205.6,398.8,200.4,399.6,194.8z"/>
<circle style="fill:#FFFFFF;" cx="362.8" cy="188.4" r="24"/>
<circle style="fill:#84DBFF;" cx="362.8" cy="188.4" r="12.4"/>
</svg>