<svg width="120" height="381" viewBox="0 0 120 381" fill="none" xmlns="http://www.w3.org/2000/svg">
<path d="M119.597 378.249C119.632 377.448 119.486 376.745 119.297 375.973C119.024 374.832 118.793 373.685 118.57 372.533C118.249 370.894 117.917 369.259 117.568 367.627C117.385 366.772 117.207 365.917 117.03 365.062C116.492 362.477 115.945 359.895 115.37 357.317C115.27 356.868 115.171 356.418 115.071 355.969C115.022 355.746 114.972 355.524 114.921 355.294C114.823 354.847 114.725 354.399 114.63 353.95C114.384 352.813 114.117 351.69 113.803 350.569C113.505 349.495 113.261 348.421 113.042 347.329C112.776 346.004 112.454 344.707 112.088 343.405C111.908 342.735 111.754 342.064 111.609 341.386C111.361 340.234 111.064 339.101 110.749 337.965C110.532 337.169 110.332 336.37 110.133 335.57C109.801 334.241 109.429 332.928 109.038 331.616C108.762 330.687 108.509 329.755 108.271 328.816C107.905 327.397 107.483 326.001 107.048 324.602C106.706 323.502 106.376 322.399 106.059 321.292C105.497 319.346 104.86 317.426 104.224 315.503C104.029 314.909 103.837 314.315 103.645 313.72C103.06 311.905 102.461 310.101 101.797 308.314C100.971 306.08 100.408 303.82 99.9178 301.49C99.7098 300.554 99.455 299.634 99.1979 298.711C98.9523 297.796 98.7313 296.877 98.5124 295.955C98.1902 294.604 97.8508 293.26 97.4806 291.92C97.2691 291.152 97.0628 290.383 96.8576 289.614C95.1773 283.315 95.1773 283.315 94.2412 280.278C93.9873 279.452 93.7462 278.623 93.5056 277.794C92.2512 273.486 90.923 269.193 89.4854 264.942C89.44 264.806 89.3945 264.67 89.3476 264.529C88.84 263.05 87.9199 262.366 86.5986 261.587C85.6263 261.211 84.819 261.225 83.8329 261.552C83.0214 261.941 82.6316 262.419 82.1999 263.195C81.9269 264.337 82.4465 265.622 82.7475 266.737C82.7851 266.879 82.8228 267.02 82.8616 267.166C82.9533 267.511 83.0458 267.855 83.1385 268.199C82.9899 268.151 82.8413 268.103 82.6882 268.054C81.4636 267.682 80.4889 267.415 79.2241 267.674C78.8672 267.919 78.5159 268.173 78.174 268.438C78.0993 268.244 78.0246 268.049 77.9476 267.849C77.6684 267.122 77.3882 266.396 77.1078 265.67C76.9869 265.357 76.8662 265.043 76.7458 264.73C76.5721 264.278 76.3974 263.826 76.2225 263.374C76.1429 263.165 76.1429 263.165 76.0617 262.953C75.3693 261.171 74.6169 259.763 72.8132 258.965C71.5889 258.552 70.3867 258.381 69.1823 258.926C68.3404 259.441 67.809 260.141 67.5282 261.088C67.5071 262.095 67.7284 262.938 68.0327 263.893C68.1231 264.18 68.2134 264.468 68.3037 264.755C68.3729 264.973 68.3729 264.973 68.4435 265.195C68.6497 265.847 68.8477 266.501 69.046 267.155C69.0856 267.285 69.1253 267.416 69.1661 267.55C69.6919 269.281 70.2062 271.016 70.722 272.751C71.0021 273.692 71.2828 274.634 71.5635 275.575C71.6749 275.949 71.7863 276.323 71.8977 276.697C72.1206 277.445 72.3434 278.193 72.5663 278.941C72.6215 279.126 72.6767 279.311 72.7335 279.502C72.8446 279.875 72.9558 280.248 73.0669 280.621C73.3502 281.571 73.6333 282.521 73.916 283.472C74.482 285.375 75.0519 287.276 75.6306 289.175C76.1106 290.755 76.5787 292.338 77.0493 293.921C77.3295 294.862 77.6101 295.804 77.8908 296.745C78.0022 297.119 78.1136 297.493 78.2251 297.867C78.4479 298.615 78.6708 299.363 78.8936 300.111C78.9488 300.296 79.004 300.481 79.0608 300.672C79.172 301.045 79.2831 301.418 79.3942 301.79C79.6775 302.741 79.9606 303.691 80.2433 304.642C80.8093 306.545 81.3793 308.446 81.9579 310.345C82.4379 311.925 82.906 313.508 83.3766 315.091C83.7121 316.218 84.0483 317.346 84.3844 318.473C84.6677 319.424 84.9508 320.374 85.2335 321.325C86.3006 324.912 87.3923 328.491 88.492 332.068C86.6126 330.058 84.9278 327.952 83.3045 325.731C83.186 325.569 83.0674 325.408 82.9452 325.241C79.481 320.521 76.2867 315.64 73.2859 310.613C73.1911 310.455 73.0963 310.296 72.9986 310.133C72.3253 309.004 71.669 307.865 71.018 306.723C70.9519 306.607 70.8859 306.491 70.8178 306.372C67.7063 300.922 64.7821 295.412 62.1712 289.702C61.8983 289.109 61.6206 288.519 61.3412 287.929C56.3434 277.366 52.1708 266.367 48.4734 255.287C48.225 254.543 47.9718 253.801 47.7152 253.059C46.5611 249.723 45.4824 246.367 44.4867 242.98C44.2168 242.064 43.9357 241.153 43.6512 240.241C43.1149 238.521 42.6306 236.799 42.2009 235.049C42.031 234.369 41.847 233.696 41.6525 233.023C41.3296 231.902 41.0411 230.775 40.7581 229.644C40.5306 228.737 40.2898 227.836 40.0392 226.935C39.71 225.736 39.4464 224.53 39.192 223.313C39.0255 222.568 38.8305 221.835 38.6244 221.1C38.3578 220.142 38.1528 219.204 38.0054 218.222C37.9253 217.735 37.8188 217.262 37.702 216.783C37.365 215.393 37.0794 213.994 36.7933 212.594C36.7244 212.257 36.6551 211.92 36.5854 211.583C35.8777 208.155 35.2882 204.709 34.7162 201.257C34.5877 200.481 34.4578 199.706 34.3277 198.93C34.2258 198.323 34.1247 197.715 34.0238 197.108C33.9762 196.822 33.9283 196.536 33.8803 196.25C33.6382 194.806 33.4147 193.371 33.2925 191.912C33.2435 191.417 33.1657 190.933 33.0792 190.444C32.9318 189.601 32.8398 188.762 32.7624 187.91C32.6965 187.265 32.6147 186.623 32.5299 185.98C32.3325 184.481 32.1896 182.994 32.1046 181.484C32.0467 180.683 31.9522 179.89 31.8487 179.095C31.6841 177.822 31.5752 176.555 31.5011 175.273C31.4502 174.457 31.3806 173.643 31.3095 172.828C31.1677 171.166 31.0866 169.505 31.0191 167.839C31.0008 167.405 30.9803 166.97 30.9587 166.536C30.7573 162.462 30.6438 158.388 30.6422 154.309C30.6406 153.763 30.6347 153.217 30.6275 152.671C30.5921 149.758 30.676 146.854 30.7829 143.944C30.8085 143.225 30.8293 142.506 30.849 141.787C31.2794 126.628 33.2467 111.392 36.4101 96.5716C36.4565 96.354 36.4565 96.354 36.5038 96.1321C38.2783 87.8468 40.5327 79.6668 43.138 71.6052C43.187 71.4527 43.236 71.3002 43.2864 71.1431C48.0867 56.2126 54.5175 41.8129 62.1766 28.1355C62.3977 27.7404 62.6173 27.3444 62.8328 26.9462C63.6181 25.5163 64.5852 24.2085 65.5353 22.8857C65.7268 22.6173 65.9182 22.3489 66.1096 22.0805C67.1943 20.5653 68.3034 19.0715 69.4386 17.5937C69.5572 17.4387 69.6758 17.2836 69.798 17.1238C70.3774 16.3662 70.9598 15.6115 71.5485 14.8612C71.7615 14.5841 71.9743 14.3069 72.1869 14.0295C72.2853 13.9067 72.3837 13.7839 72.4851 13.6575C73.1743 12.7476 73.3358 12.0745 73.3477 10.9301C73.2768 10.7962 73.2059 10.6623 73.1328 10.5244C73.2215 10.3969 73.3102 10.2695 73.4015 10.1381C73.8036 9.55605 74.2005 8.97066 74.5975 8.38508C74.7371 8.18458 74.8767 7.98409 75.0205 7.77752C76.2995 5.8764 76.2995 5.8764 76.1156 4.58099C75.62 3.09999 74.5423 2.00698 73.2034 1.23984C72.1617 0.80324 71.1548 0.501959 70.0289 0.738972C68.6363 1.54686 67.5735 2.65662 66.4447 3.79295C66.0768 4.16252 65.708 4.53127 65.3384 4.8991C65.1769 5.06163 65.0155 5.22415 64.8491 5.39161C64.1223 6.04706 63.7864 6.23483 62.7928 6.20735C62.4741 6.17827 62.1554 6.14777 61.837 6.11609C59.8378 5.95532 57.9335 6.0737 55.9476 6.3256C55.718 6.35347 55.4883 6.38134 55.2516 6.41005C47.7157 7.4942 41.2602 11.9859 36.1625 17.4263C36.0268 17.571 36.0268 17.571 35.8884 17.7187C35.0452 18.6364 34.3023 19.6104 33.5706 20.6183C33.4445 20.7915 33.3183 20.9647 33.1883 21.1432C30.1857 25.2822 27.3792 29.4158 25.0898 33.9917C25.0216 34.1276 24.9533 34.2634 24.883 34.4034C16.4368 51.2699 9.97389 69.1209 1.97088 113.354C1.94706 113.612 1.92324 113.869 1.8987 114.135C1.60483 117.34 1.35084 120.545 1.19217 123.76C1.15606 124.471 1.11628 125.182 1.07641 125.893C0.943475 128.308 0.818995 130.713 0.847312 133.131C0.855987 133.989 0.83341 134.845 0.810826 135.703C0.750802 138.003 0.788199 140.286 0.880736 142.584C0.912714 143.462 0.929075 144.339 0.946656 145.216C0.974153 146.51 1.01641 147.802 1.07836 149.095C1.08548 149.244 1.0926 149.393 1.09993 149.547C1.11413 149.843 1.12836 150.14 1.14261 150.436C1.23707 152.411 1.2967 154.366 1.21679 156.344C1.04543 160.934 1.09649 165.548 1.28509 170.136C1.29779 170.541 1.31048 170.946 1.32291 171.352C1.37991 173.151 1.48828 174.946 1.60506 176.743C1.65573 177.523 1.69913 178.304 1.73809 179.085C1.82286 180.671 1.96129 182.253 2.09815 183.836C2.11833 184.073 2.11833 184.073 2.13893 184.315C2.2932 186.128 2.46129 187.936 2.67341 189.743C2.73618 190.29 2.79082 190.836 2.84188 191.384C2.97591 192.766 3.15698 194.142 3.33504 195.519C3.39339 195.979 3.4499 196.439 3.50552 196.9C3.75932 198.99 4.06665 201.065 4.41529 203.141C4.46703 203.452 4.51873 203.763 4.57039 204.074C4.67755 204.718 4.78521 205.361 4.89326 206.005C5.03071 206.824 5.16685 207.643 5.30263 208.463C5.40866 209.102 5.51538 209.74 5.6223 210.379C5.67277 210.681 5.72303 210.983 5.77306 211.285C6.02026 212.776 6.27821 214.257 6.6449 215.723C6.84925 216.556 7.00781 217.399 7.1739 218.241C7.45496 219.644 7.74727 221.04 8.09327 222.429C8.16063 222.704 8.2279 222.979 8.29512 223.253C8.48967 224.047 8.68616 224.84 8.88348 225.633C8.95903 225.937 9.03431 226.241 9.10925 226.546C9.53091 228.257 9.98454 229.954 10.4879 231.643C10.7652 232.577 11.0273 233.513 11.2798 234.453C12.3558 238.453 13.6736 242.38 15.0176 246.296C15.0753 246.465 15.1331 246.634 15.1926 246.808C20.7915 263.159 28.3813 278.894 44.596 302.74C44.6791 302.852 44.7621 302.963 44.8477 303.078C53.4413 314.623 63.7022 324.785 74.9284 333.754C75.1951 333.968 75.4617 334.181 75.7283 334.394C76.3708 334.909 77.0136 335.423 77.6565 335.936C77.5016 335.844 77.3467 335.753 77.1871 335.658C44.2095 316.122 44.2095 316.122 28.4748 307.004C28.0678 306.768 27.6608 306.532 27.2539 306.296C24.1028 304.47 20.9497 302.647 17.7942 300.828C16.911 300.319 16.0281 299.809 15.1455 299.299C14.0896 298.689 13.0332 298.079 11.9762 297.471C11.5909 297.249 11.2058 297.026 10.8208 296.804C10.2976 296.501 9.77361 296.2 9.24946 295.898C9.0995 295.811 8.94955 295.724 8.79505 295.634C7.08006 294.653 5.68142 293.962 3.65895 294.242C2.80753 294.612 2.30521 295.12 1.80044 295.895C1.4254 297.089 1.66103 298.118 2.19755 299.235C2.79112 299.997 3.54559 300.506 4.32317 301.072C4.49667 301.2 4.67018 301.328 4.84894 301.46C5.40522 301.871 5.96304 302.279 6.52104 302.688C7.24654 303.221 7.97134 303.754 8.69579 304.289C8.87321 304.42 9.05063 304.55 9.23342 304.685C10.9776 305.975 12.6831 307.312 14.3802 308.663C14.1865 308.56 14.1865 308.56 13.9889 308.456C13.3925 308.143 12.7936 307.835 12.1946 307.528C11.9916 307.42 11.7886 307.313 11.5795 307.202C10.0207 306.408 8.47405 305.796 6.70939 306.133C5.64844 306.575 5.15494 307.238 4.59435 308.234C4.374 309.401 4.65171 310.218 5.23911 311.217C5.32008 311.37 5.40104 311.522 5.48446 311.678C6.98729 314.113 9.80503 315.58 12.1689 317.06C16.6325 319.858 20.9441 322.851 25.2451 325.892C27.3218 327.359 29.4034 328.82 31.485 330.281C31.6938 330.428 31.9025 330.574 32.1176 330.725C47.2462 341.342 62.6668 351.563 89.142 368.343C89.3186 368.453 89.4952 368.563 89.6771 368.677C91.9982 370.128 94.3227 371.572 96.6512 373.011C97.1468 373.317 97.6421 373.624 98.1372 373.932C98.9501 374.436 99.7644 374.938 100.58 375.438C100.882 375.624 101.185 375.811 101.487 375.998C105.191 378.299 105.191 378.299 106.899 378.012C107.439 378.206 107.439 378.206 107.999 378.481C109.186 378.976 110.189 379.092 111.434 378.727C111.817 378.44 111.817 378.44 112.078 378.178C112.22 378.341 112.22 378.341 112.363 378.508C113.609 379.762 115.146 380.473 116.919 380.563C118.463 380.487 119.268 379.738 119.597 378.249ZM71.2107 321.998C69.7897 320.837 68.4594 319.598 67.1492 318.315C66.8225 317.996 66.4938 317.679 66.1649 317.362C65.9567 317.158 65.7485 316.955 65.5406 316.752C65.2595 316.478 65.2595 316.478 64.9727 316.199C64.8414 316.049 64.7101 315.9 64.5747 315.746C64.5983 315.596 64.622 315.446 64.6463 315.292C65.048 315.079 65.4496 314.867 65.8635 314.648C68.5694 318.203 68.5694 318.203 71.33 321.831C71.2906 321.886 71.2512 321.941 71.2107 321.998ZM31.2082 320.427C30.4229 319.952 29.6384 319.476 28.8541 318.999C28.6336 318.865 28.4131 318.732 28.1858 318.594C27.2126 318.002 26.241 317.406 25.294 316.772C25.1618 316.684 25.0296 316.596 24.8933 316.505C24.7582 316.368 24.7582 316.368 24.6203 316.227C24.6281 315.983 24.6359 315.739 24.644 315.488C26.8496 317.063 29.0551 318.638 31.3275 320.26C31.2882 320.315 31.2488 320.371 31.2082 320.427ZM46.6476 293.861C46.4328 293.455 46.4328 293.455 46.4328 293.455L46.6476 293.861ZM46.4328 293.455C46.1965 293.203 45.9601 292.951 45.7167 292.691C45.9215 292.754 46.1262 292.817 46.3372 292.882C46.3688 293.071 46.4003 293.26 46.4328 293.455ZM45.836 292.524C45.149 291.882 44.6468 291.222 44.1445 290.429C44.0326 290.252 44.0326 290.252 43.9185 290.073C43.675 289.689 43.4335 289.303 43.1922 288.918C43.1083 288.784 43.0244 288.651 42.938 288.513C37.6711 280.137 32.9701 271.437 29.0297 262.358C28.9328 262.135 28.8358 261.912 28.7359 261.683C26.7883 257.196 24.943 252.632 23.3953 247.99C23.545 248.013 23.6946 248.037 23.8488 248.061C24.1071 248.538 24.1071 248.538 24.3436 249.149C24.4881 249.499 24.4881 249.499 24.6355 249.857C24.6865 249.982 24.7374 250.108 24.7898 250.237C25.0597 250.902 25.3358 251.565 25.6113 252.227C25.6956 252.431 25.6956 252.431 25.7816 252.638C27.2795 256.24 28.9444 259.775 30.6073 263.302C30.8172 263.748 31.0265 264.194 31.2354 264.64C33.2986 269.04 35.5108 273.359 37.7626 277.665C38.0629 278.241 38.3618 278.816 38.661 279.392C40.9556 283.788 43.4646 288.07 45.9553 292.357C45.9159 292.412 45.8765 292.468 45.836 292.524ZM42.5864 260.685C42.3715 260.28 42.3715 260.28 42.3715 260.28L42.5864 260.685ZM42.3715 260.28C42.2455 260.106 42.1195 259.933 41.9896 259.754C42.155 259.873 42.3204 259.991 42.4909 260.112C42.4515 260.168 42.4121 260.223 42.3715 260.28ZM42.1089 259.587C41.3091 258.623 40.8932 257.548 40.4274 256.4C40.3413 256.19 40.2552 255.981 40.1665 255.765C39.9894 255.334 39.8129 254.902 39.637 254.471C39.4185 253.936 39.1971 253.402 38.9739 252.869C36.8347 247.737 34.8868 242.508 33.0844 237.248C33.0205 237.063 32.9566 236.877 32.8908 236.686C32.0959 234.372 31.3472 232.051 30.6491 229.706C30.5295 229.319 30.41 228.931 30.2902 228.544C29.7601 226.823 29.2801 225.09 28.8076 223.353C28.6022 222.599 28.39 221.846 28.1733 221.095C27.8577 219.988 27.5742 218.874 27.2951 217.758C27.0708 216.863 26.8318 215.974 26.5825 215.086C26.2051 213.712 25.9181 212.325 25.6356 210.929C25.5102 210.311 25.3733 209.698 25.2228 209.085C24.8488 207.536 24.5525 205.97 24.2408 204.407C24.1369 203.891 24.03 203.376 23.922 202.861C23.4291 200.491 23.0087 198.11 22.6078 195.723C22.5817 195.568 22.5555 195.414 22.5286 195.254C22.2648 193.691 22.0175 192.134 21.8792 190.554C21.8242 189.971 21.7276 189.398 21.6225 188.822C21.4567 187.863 21.3344 186.913 21.2483 185.944C21.1826 185.258 21.097 184.576 21.0118 183.892C20.8609 182.638 20.7667 181.388 20.6928 180.128C20.6448 179.445 20.5704 178.771 20.4861 178.092C20.3434 176.892 20.2773 175.701 20.2306 174.495C20.1892 173.463 20.1246 172.434 20.0461 171.404C19.8659 169.028 19.8048 166.663 19.7877 164.28C19.7818 163.661 19.7715 163.042 19.7597 162.423C19.7117 159.891 19.7109 157.366 19.7808 154.835C19.7861 154.636 19.7913 154.437 19.7967 154.233C19.9811 147.362 20.4663 140.516 21.2583 133.688C21.2852 133.456 21.312 133.224 21.3397 132.985C21.93 127.971 22.6357 122.949 23.6179 117.996C23.6488 117.837 23.6796 117.677 23.7114 117.513C23.7859 117.157 23.8794 116.805 23.9773 116.455C24.1111 116.384 24.245 116.313 24.383 116.24C24.3688 116.371 24.3546 116.502 24.3399 116.638C24.1602 118.303 23.9844 119.968 23.8108 121.634C23.7844 121.886 23.7581 122.138 23.7309 122.398C23.3695 125.888 23.0862 129.375 22.8956 132.878C22.8592 133.535 22.8196 134.192 22.779 134.849C22.3624 141.796 22.2965 148.761 22.4303 155.717C22.4331 155.869 22.436 156.02 22.4389 156.176C22.5258 160.643 22.7322 165.103 23.0217 169.561C23.0487 169.98 23.0745 170.4 23.1001 170.82C23.2121 172.628 23.3695 174.43 23.5345 176.234C23.5779 176.717 23.6193 177.2 23.66 177.683C23.8128 179.485 23.9999 181.278 24.2276 183.072C24.3029 183.68 24.3692 184.286 24.4265 184.895C24.552 186.212 24.7159 187.523 24.8817 188.834C24.9209 189.146 24.9596 189.457 24.9977 189.769C25.2951 192.192 25.6631 194.598 26.0834 197.004C26.2576 198.013 26.4141 199.012 26.5004 200.033C26.5801 200.924 26.7589 201.754 26.9767 202.62C27.2617 203.855 27.4395 205.113 27.6391 206.364C27.8944 207.964 28.1534 209.555 28.5437 211.13C28.7711 212.076 28.9474 213.034 29.1317 213.99C29.3904 215.331 29.6661 216.665 29.9861 217.993C30.1273 218.583 30.2544 219.176 30.3809 219.77C30.64 220.951 30.9511 222.113 31.2741 223.278C31.4546 223.958 31.6107 224.639 31.7584 225.326C32.0308 226.587 32.3604 227.826 32.7049 229.068C32.8861 229.729 33.0613 230.391 33.2373 231.053C34.0565 234.131 34.9136 237.194 35.8567 240.237C36.2008 241.347 36.5352 242.461 36.8631 243.577C37.4246 245.485 38.0276 247.37 38.6865 249.246C38.9094 249.889 39.1235 250.534 39.3387 251.179C40.0679 253.364 40.836 255.534 41.6251 257.699C41.7052 257.92 41.7854 258.142 41.8681 258.371C41.9404 258.569 42.0128 258.768 42.0874 258.973C42.1339 259.12 42.1803 259.268 42.2282 259.42C42.1889 259.475 42.1495 259.531 42.1089 259.587ZM23.5147 247.823C23.3886 247.649 23.2626 247.476 23.1327 247.298C23.2981 247.416 23.4636 247.534 23.634 247.656C23.5946 247.711 23.5552 247.766 23.5147 247.823ZM23.2043 246.844C22.9894 246.438 22.9894 246.438 22.9894 246.438L23.2043 246.844ZM22.9416 246.152C22.7268 245.746 22.7268 245.746 22.7268 245.746L22.9416 246.152ZM10.3542 164.502C9.91608 161.96 9.65612 159.415 9.51796 156.841C9.49842 156.56 9.47864 156.279 9.45866 155.999C9.31377 153.791 9.42619 151.649 9.61399 149.447C9.67727 148.657 9.72399 147.866 9.7714 147.075C10.2608 139.009 11.3127 130.979 12.633 123.01C12.6847 122.697 12.7357 122.383 12.786 122.069C12.8563 121.633 12.9296 121.196 13.0037 120.76C13.0453 120.509 13.0869 120.259 13.1298 120.001C13.231 119.37 13.231 119.37 13.8099 119.034C13.785 119.185 13.76 119.337 13.7344 119.494C12.5488 126.754 11.7289 134.06 11.2108 141.398C11.1881 141.712 11.1881 141.712 11.1648 142.033C10.6683 149.005 10.4 156.048 10.5942 163.037C10.65 163.814 10.65 163.814 10.3542 164.502ZM17.9579 75.0689C17.9851 74.2257 18.206 73.5116 18.4565 72.7147C18.5067 72.5531 18.5568 72.3915 18.6085 72.225C18.7749 71.6916 18.9432 71.1589 19.1121 70.6264C19.1992 70.3508 19.1992 70.3508 19.2881 70.0697C20.5051 66.2351 21.8634 62.4658 23.3263 58.7189C23.3845 58.5692 23.4427 58.4195 23.5026 58.2652C26.3733 50.8826 29.7313 43.7045 33.5263 36.7514C33.7255 36.386 33.9236 36.0201 34.1216 35.6541C38.0245 28.4975 43.012 20.5472 50.2682 16.3984C50.3234 16.4378 50.3785 16.4772 50.4353 16.5177C50.3707 16.6361 50.3061 16.7544 50.2395 16.8763C49.5511 18.1373 48.8633 19.3988 48.1761 20.6604C47.9214 21.1278 47.6665 21.595 47.4114 22.0621C47.0393 22.7436 46.6678 23.4254 46.2966 24.1074C46.11 24.45 46.11 24.45 45.9196 24.7996C45.18 26.1635 44.4637 27.5371 43.762 28.9208C42.6648 31.0798 41.4995 33.1183 40.0996 35.0944C39.5702 35.8427 39.0526 36.5992 38.5329 37.3543C38.4276 37.5068 38.3223 37.6593 38.2138 37.8164C30.6638 48.771 24.1462 60.699 19.0862 73.0045C18.7744 73.7592 18.48 74.4295 17.9579 75.0689ZM55.8681 15.1149C55.7497 15.2519 55.6314 15.3889 55.5095 15.53C55.2018 15.8915 55.2018 15.8915 54.7792 16.0876C54.2686 15.9996 54.2686 15.9996 53.7081 15.8431C52.6448 15.5649 52.6448 15.5649 52.1776 15.4912C52.9489 14.9446 53.7626 14.6189 54.6477 14.3065C54.8507 14.2317 54.8507 14.2317 55.0578 14.1553C55.7226 13.9176 56.1889 13.797 56.9032 13.8199C56.5774 14.2762 56.2356 14.6921 55.8681 15.1149Z" fill="white"/>
</svg>
