<svg width="95" height="203" viewBox="0 0 95 203" fill="none" xmlns="http://www.w3.org/2000/svg">
<path d="M0.0786813 200.868C0.149875 200.428 0.308764 200.061 0.498896 199.662C0.776282 199.071 1.03118 198.472 1.2826 197.87C1.64217 197.014 2.00722 196.161 2.38173 195.311C2.57741 194.866 2.77088 194.42 2.96394 193.975C3.54807 192.627 4.13756 191.282 4.74125 189.943C4.84617 189.71 4.95105 189.476 5.05589 189.242C5.10794 189.127 5.16 189.011 5.21362 188.892C5.31787 188.659 5.4214 188.426 5.52419 188.193C5.78603 187.601 6.05835 187.019 6.35576 186.444C6.6393 185.893 6.89319 185.335 7.13569 184.765C7.43003 184.073 7.75144 183.403 8.09753 182.735C8.27145 182.391 8.43046 182.042 8.58619 181.689C8.85141 181.09 9.14096 180.506 9.4406 179.923C9.6482 179.514 9.84739 179.101 10.046 178.688C10.3766 178.002 10.7273 177.328 11.0883 176.657C11.3432 176.182 11.5862 175.703 11.822 175.219C12.1808 174.487 12.5686 173.774 12.9632 173.061C13.2736 172.501 13.5772 171.937 13.8751 171.37C14.4006 170.373 14.9642 169.399 15.5271 168.424C15.7004 168.122 15.8723 167.82 16.0437 167.518C16.5671 166.595 17.0967 165.68 17.6598 164.781C18.3616 163.657 18.9234 162.49 19.453 161.276C19.6718 160.79 19.9142 160.318 20.1584 159.844C20.3953 159.373 20.6194 158.897 20.8425 158.42C21.1704 157.72 21.5068 157.026 21.8595 156.338C22.0613 155.944 22.2604 155.548 22.4589 155.152C24.0844 151.911 24.0844 151.911 24.9368 150.362C25.1681 149.941 25.3929 149.517 25.6175 149.092C26.7865 146.887 27.9941 144.698 29.2564 142.545C29.2966 142.476 29.3367 142.407 29.378 142.336C29.8213 141.587 30.3996 141.319 31.2072 141.043C31.7791 140.948 32.2173 141.047 32.7176 141.336C33.1157 141.639 33.2742 141.943 33.4218 142.415C33.4417 143.068 33.0138 143.709 32.7242 144.282C32.6877 144.355 32.6512 144.428 32.6137 144.503C32.5249 144.681 32.4357 144.858 32.3464 145.035C32.4327 145.025 32.519 145.016 32.608 145.006C33.317 144.942 33.878 144.906 34.5377 145.19C34.7045 145.364 34.8672 145.542 35.0235 145.725C35.0862 145.627 35.1488 145.53 35.2134 145.429C35.4473 145.065 35.6818 144.701 35.9164 144.337C36.0176 144.18 36.1187 144.023 36.2196 143.866C36.3652 143.639 36.5113 143.413 36.6576 143.186C36.7244 143.082 36.7244 143.082 36.7926 142.975C37.3707 142.082 37.9392 141.401 39.0118 141.169C39.7252 141.082 40.3993 141.125 40.9938 141.558C41.3944 141.933 41.6049 142.374 41.6511 142.922C41.5491 143.472 41.3334 143.907 41.06 144.392C40.9784 144.539 40.8968 144.685 40.8152 144.832C40.7529 144.942 40.7529 144.942 40.6894 145.055C40.5036 145.387 40.322 145.721 40.1403 146.055C40.104 146.122 40.0677 146.188 40.0303 146.257C39.5487 147.14 39.0729 148.027 38.5964 148.914C38.3376 149.395 38.0786 149.877 37.8195 150.358C37.7167 150.549 37.6138 150.74 37.511 150.931C37.3053 151.313 37.0995 151.696 36.8938 152.078C36.8429 152.172 36.792 152.267 36.7395 152.365C36.6369 152.555 36.5343 152.746 36.4317 152.936C36.1703 153.422 35.9089 153.908 35.6477 154.394C35.1249 155.366 34.6 156.338 34.0707 157.307C33.6312 158.113 33.1976 158.923 32.7628 159.732C32.5041 160.213 32.245 160.694 31.986 161.176C31.8831 161.367 31.7803 161.558 31.6774 161.749C31.4717 162.131 31.266 162.513 31.0603 162.896C31.0094 162.99 30.9584 163.085 30.9059 163.182C30.8034 163.373 30.7008 163.564 30.5982 163.754C30.3367 164.24 30.0754 164.726 29.8142 165.212C29.2913 166.184 28.7665 167.156 28.2372 168.125C27.7976 168.931 27.3641 169.741 26.9293 170.55C26.6194 171.126 26.3092 171.702 25.999 172.278C25.7375 172.764 25.4761 173.25 25.2149 173.736C24.2292 175.57 23.231 177.396 22.2286 179.221C23.479 178.337 24.6342 177.38 25.7688 176.353C25.8516 176.279 25.9344 176.204 26.0198 176.127C28.4389 173.947 30.7292 171.648 32.9306 169.249C33.0001 169.173 33.0696 169.097 33.1412 169.019C33.6353 168.48 34.1212 167.934 34.6046 167.385C34.6536 167.33 34.7026 167.274 34.7531 167.217C37.0626 164.599 39.2766 161.928 41.3427 159.111C41.5582 158.819 41.776 158.529 41.9947 158.239C45.908 153.049 49.421 147.528 52.6843 141.91C52.9035 141.533 53.1251 141.157 53.3485 140.782C54.3533 139.095 55.3193 137.389 56.2436 135.656C56.4938 135.188 56.7498 134.723 57.0075 134.259C57.4935 133.382 57.9516 132.498 58.3829 131.594C58.5521 131.243 58.7282 130.897 58.9101 130.552C59.2123 129.978 59.4966 129.396 59.7783 128.812C60.0044 128.344 60.2373 127.88 60.4753 127.418C60.7898 126.802 61.0694 126.175 61.3452 125.541C61.5199 125.153 61.7087 124.776 61.9039 124.399C62.1571 123.908 62.3745 123.42 62.5655 122.901C62.6641 122.645 62.7754 122.399 62.8931 122.151C63.2333 121.433 63.5467 120.703 63.8604 119.972C63.936 119.796 64.0117 119.621 64.0876 119.445C64.8596 117.658 65.5692 115.847 66.2702 114.031C66.4276 113.623 66.5858 113.215 66.7441 112.808C66.8681 112.488 66.9916 112.169 67.1151 111.849C67.1733 111.699 67.2316 111.549 67.29 111.398C67.5846 110.639 67.8682 109.882 68.0993 109.101C68.1818 108.838 68.2787 108.583 68.3811 108.326C68.5564 107.883 68.701 107.437 68.8392 106.982C68.9479 106.637 69.0649 106.297 69.1836 105.956C69.4601 105.162 69.7056 104.368 69.9222 103.555C70.044 103.126 70.1849 102.705 70.331 102.283C70.5642 101.608 70.7663 100.93 70.9512 100.24C71.071 99.8013 71.2007 99.3659 71.3313 98.9301C71.5959 98.0411 71.8274 97.1453 72.052 96.2454C72.1109 96.0109 72.1711 95.7766 72.2318 95.5425C72.8008 93.3462 73.3221 91.1398 73.7828 88.9182C73.8453 88.6209 73.9101 88.3241 73.9756 88.0274C74.3233 86.4449 74.605 84.8538 74.875 83.2563C74.9421 82.8618 75.0119 82.4678 75.0822 82.0738C76.557 73.7685 77.2033 65.2476 77.1514 56.8182C77.1506 56.6944 77.1506 56.6944 77.1499 56.5682C77.1175 51.8551 76.8119 47.1453 76.3018 42.4604C76.2923 42.3718 76.2828 42.2832 76.2731 42.1919C75.3419 33.518 73.4627 24.9494 70.8329 16.6357C70.7571 16.3955 70.6821 16.1551 70.6096 15.9139C70.3431 15.0465 69.9638 14.2251 69.5954 13.3974C69.5214 13.2296 69.4474 13.0619 69.3734 12.8941C68.9534 11.9464 68.5177 11.0077 68.066 10.0748C68.0189 9.97691 67.9718 9.87905 67.9232 9.77823C67.6931 9.30028 67.4609 8.82352 67.2249 8.34844C67.1401 8.17348 67.0555 7.99848 66.9709 7.82343C66.9311 7.74545 66.8914 7.66748 66.8504 7.58715C66.5776 7.01387 66.5656 6.62898 66.6881 6.0043C66.7418 5.93937 66.7955 5.87443 66.8509 5.80753C66.817 5.7281 66.783 5.64867 66.7481 5.56684C66.5947 5.20445 66.4445 4.84083 66.2943 4.4771C66.2409 4.35215 66.1874 4.2272 66.1324 4.09847C65.6501 2.91871 65.6501 2.91871 65.8963 2.23384C66.3332 1.48302 67.0435 1.00917 67.8593 0.742284C68.476 0.621929 69.0584 0.571356 69.6449 0.827404C70.3124 1.42449 70.7662 2.14881 71.2529 2.89506C71.4117 3.13784 71.5709 3.38028 71.7308 3.62232C71.8004 3.72905 71.87 3.83578 71.9418 3.94575C72.2638 4.38473 72.4255 4.52488 72.9699 4.62195C73.1468 4.64205 73.3238 4.66136 73.5008 4.68002C74.6079 4.81786 75.6318 5.09707 76.6851 5.4582C76.8071 5.49927 76.929 5.54035 77.0547 5.58267C81.0372 7.02293 84.0471 10.1975 86.2104 13.7356C86.268 13.8298 86.268 13.8298 86.3267 13.9258C86.6825 14.5208 86.9773 15.1351 87.2622 15.7666C87.3114 15.8752 87.3606 15.9837 87.4113 16.0956C88.5801 18.6887 89.6428 21.2567 90.3738 24.0074C90.3957 24.089 90.4175 24.1707 90.44 24.2549C93.1389 34.3945 94.6464 44.8466 94.018 69.843C94.002 69.9859 93.9859 70.1289 93.9694 70.2762C93.7681 72.055 93.545 73.8297 93.2689 75.5987C93.2084 75.9902 93.1499 76.382 93.0914 76.7737C92.8916 78.1038 92.6882 79.4279 92.4001 80.7419C92.2987 81.2083 92.2144 81.6772 92.13 82.1468C91.9034 83.4065 91.6256 84.6458 91.316 85.8875C91.1997 86.3616 91.0918 86.8377 90.9833 87.3137C90.8224 88.0154 90.6537 88.7144 90.4742 89.4115C90.4535 89.4919 90.4328 89.5724 90.4115 89.6553C90.3704 89.8151 90.3292 89.9749 90.288 90.1347C90.0139 91.1997 89.7609 92.2583 89.5815 93.3443C89.1573 95.8637 88.6092 98.3712 87.9891 100.849C87.9365 101.068 87.8839 101.288 87.8314 101.507C87.5975 102.481 87.3361 103.446 87.0699 104.412C86.9543 104.831 86.8426 105.251 86.7333 105.672C86.5083 106.527 86.2545 107.373 86.0015 108.22C85.9637 108.347 85.9637 108.347 85.9252 108.476C85.6368 109.446 85.3414 110.412 85.0221 111.373C84.9263 111.663 84.8349 111.955 84.7453 112.247C84.5165 112.985 84.2627 113.714 84.0105 114.444C83.9268 114.688 83.8441 114.933 83.7618 115.177C83.3879 116.287 82.9865 117.383 82.5625 118.474C82.4993 118.638 82.4361 118.801 82.3729 118.965C82.2419 119.303 82.1107 119.642 81.9793 119.98C81.8121 120.411 81.6455 120.842 81.4792 121.273C81.3494 121.609 81.2192 121.945 81.0889 122.281C81.0274 122.439 80.966 122.598 80.9047 122.757C80.602 123.541 80.2945 124.319 79.9294 125.076C79.7241 125.507 79.5427 125.948 79.3574 126.388C79.0461 127.12 78.7294 127.848 78.3843 128.566C78.3166 128.708 78.249 128.85 78.1814 128.992C77.986 129.402 77.7895 129.812 77.5926 130.222C77.5172 130.379 77.4419 130.536 77.3668 130.693C76.9441 131.578 76.5057 132.451 76.041 133.315C75.7847 133.792 75.5364 134.272 75.2929 134.756C74.2558 136.813 73.0952 138.803 71.9215 140.785C71.871 140.871 71.8205 140.956 71.7684 141.044C66.875 149.319 60.9667 157.034 49.4457 168.195C49.3879 168.246 49.3301 168.298 49.2705 168.351C43.2878 173.67 36.5529 178.049 29.4266 181.668C29.2573 181.755 29.088 181.841 28.9187 181.927C28.5108 182.134 28.1027 182.342 27.6946 182.549C27.7893 182.517 27.884 182.484 27.9816 182.451C48.1473 175.528 48.1473 175.528 57.7462 172.335C57.9944 172.253 58.2427 172.17 58.491 172.088C60.4133 171.448 62.3364 170.811 64.2603 170.176C64.7987 169.998 65.3371 169.82 65.8754 169.641C66.5194 169.428 67.1635 169.215 67.8078 169.003C68.0428 168.925 68.2776 168.848 68.5124 168.77C68.8316 168.664 69.1509 168.559 69.4704 168.454C69.5619 168.423 69.6534 168.393 69.7477 168.361C70.7925 168.02 71.6323 167.801 72.7024 168.182C73.1244 168.48 73.3407 168.813 73.5283 169.292C73.5979 169.985 73.3536 170.518 72.9353 171.067C72.5261 171.415 72.0577 171.607 71.5704 171.827C71.4615 171.878 71.3525 171.928 71.2403 171.98C70.8909 172.141 70.541 172.3 70.1911 172.46C69.7358 172.668 69.2808 172.877 68.8259 173.087C68.7145 173.138 68.6032 173.189 68.4884 173.242C67.3929 173.748 66.3132 174.284 65.2365 174.828C65.3535 174.794 65.3535 174.794 65.4729 174.76C65.833 174.656 66.1939 174.556 66.5549 174.456C66.6776 174.421 66.8003 174.385 66.9267 174.348C67.8653 174.091 68.7768 173.932 69.6999 174.315C70.228 174.676 70.422 175.093 70.6151 175.698C70.6035 176.359 70.3602 176.772 69.9275 177.25C69.8663 177.324 69.805 177.398 69.7419 177.474C68.6488 178.63 66.9486 179.112 65.4941 179.652C62.7473 180.672 60.0613 181.817 57.3757 182.988C56.079 183.553 54.7804 184.114 53.4818 184.675C53.3516 184.731 53.2213 184.788 53.0872 184.846C43.6495 188.923 34.0975 192.751 17.7844 198.906C17.6758 198.946 17.5671 198.986 17.4552 199.028C16.0274 199.556 14.5983 200.081 13.1678 200.602C12.8633 200.713 12.5589 200.824 12.2545 200.936C11.7549 201.119 11.2548 201.3 10.7543 201.481C10.5684 201.548 10.3827 201.616 10.1971 201.684C7.9199 202.519 7.9199 202.519 7.02184 202.17C6.70612 202.216 6.70612 202.216 6.36999 202.302C5.66746 202.438 5.10822 202.388 4.47098 202.049C4.29453 201.849 4.29453 201.849 4.1819 201.677C4.08666 201.75 4.08666 201.75 3.98951 201.825C3.1694 202.367 2.25196 202.581 1.27614 202.43C0.443919 202.215 0.0900109 201.716 0.0786813 200.868ZM32.7772 175.684C33.6822 175.211 34.5465 174.687 35.4048 174.136C35.6187 173.999 35.8336 173.863 36.0485 173.727C36.1848 173.64 36.3211 173.553 36.4573 173.466C36.6413 173.348 36.6413 173.348 36.8289 173.228C36.9173 173.162 37.0058 173.095 37.0968 173.026C37.1009 172.942 37.1049 172.858 37.109 172.771C36.9142 172.61 36.7194 172.449 36.5187 172.283C34.6438 173.915 34.6438 173.915 32.7311 175.58C32.7463 175.614 32.7615 175.648 32.7772 175.684ZM54.7437 179.339C55.225 179.169 55.7061 178.997 56.1871 178.826C56.3222 178.778 56.4574 178.73 56.5967 178.681C57.1936 178.468 57.79 178.253 58.3774 178.014C58.4593 177.982 58.5412 177.949 58.6256 177.915C58.7148 177.855 58.7148 177.855 58.8057 177.794C58.829 177.66 58.8522 177.526 58.8762 177.388C57.4972 177.998 56.1183 178.607 54.6975 179.234C54.7128 179.269 54.728 179.303 54.7437 179.339ZM49.3294 163.127C49.4922 162.93 49.4922 162.93 49.4922 162.93L49.3294 163.127ZM49.4922 162.93C49.6493 162.82 49.8064 162.709 49.9683 162.595C49.8497 162.606 49.731 162.618 49.6088 162.629C49.5703 162.729 49.5318 162.828 49.4922 162.93ZM49.9222 162.491C50.3688 162.218 50.7167 161.916 51.0799 161.54C51.1606 161.457 51.1606 161.457 51.2431 161.372C51.419 161.19 51.594 161.007 51.7689 160.824C51.8296 160.761 51.8904 160.698 51.953 160.633C55.7664 156.664 59.308 152.455 62.478 147.954C62.556 147.844 62.6339 147.733 62.7141 147.62C64.2809 145.395 65.8006 143.117 67.1672 140.763C67.083 140.759 66.9988 140.755 66.9121 140.751C66.7176 140.982 66.7176 140.982 66.52 141.288C66.4017 141.462 66.4017 141.462 66.2811 141.64C66.2392 141.703 66.1973 141.766 66.1541 141.83C65.9322 142.162 65.7071 142.492 65.4823 142.821C65.4135 142.923 65.4135 142.923 65.3432 143.026C64.1212 144.819 62.8157 146.557 61.5122 148.291C61.3476 148.51 61.1834 148.729 61.0193 148.948C59.3993 151.113 57.7074 153.215 55.9952 155.307C55.7667 155.587 55.539 155.867 55.3112 156.147C53.5655 158.283 51.7161 160.332 49.876 162.386C49.8913 162.421 49.9065 162.455 49.9222 162.491ZM55.2823 145.514C55.4451 145.318 55.4451 145.318 55.4451 145.318L55.2823 145.514ZM55.4451 145.318C55.5333 145.237 55.6215 145.157 55.7123 145.075C55.6089 145.12 55.5055 145.166 55.3989 145.213C55.4141 145.248 55.4294 145.282 55.4451 145.318ZM55.6662 144.97C56.2106 144.535 56.5583 143.997 56.9415 143.424C57.012 143.319 57.0826 143.215 57.1552 143.107C57.3003 142.892 57.4451 142.677 57.5896 142.462C57.7689 142.195 57.9496 141.93 58.1313 141.664C59.8752 139.11 61.5259 136.481 63.1007 133.82C63.1564 133.726 63.2122 133.632 63.2696 133.535C63.9634 132.365 64.633 131.184 65.2776 129.986C65.3864 129.789 65.4952 129.591 65.6041 129.394C66.0869 128.516 66.5438 127.626 66.997 126.733C67.194 126.345 67.3944 125.96 67.5972 125.575C67.8939 125.007 68.1739 124.433 68.4518 123.856C68.6749 123.394 68.9052 122.937 69.1412 122.481C69.5017 121.775 69.8144 121.052 70.1257 120.324C70.2637 120.001 70.4074 119.682 70.5585 119.366C70.9369 118.564 71.2749 117.744 71.6208 116.928C71.7356 116.659 71.8519 116.39 71.9688 116.122C72.5046 114.887 73.002 113.637 73.4896 112.382C73.5213 112.301 73.5529 112.22 73.5856 112.136C73.9055 111.314 74.2157 110.494 74.4692 109.649C74.565 109.337 74.6821 109.036 74.8044 108.734C75.0028 108.231 75.1765 107.727 75.3327 107.209C75.4458 106.843 75.5694 106.481 75.6929 106.118C75.9165 105.452 76.1087 104.782 76.2911 104.104C76.3942 103.737 76.5107 103.378 76.6332 103.018C76.8462 102.381 77.0165 101.739 77.178 101.087C77.3169 100.53 77.4681 99.9767 77.627 99.4243C77.9931 98.1505 78.2931 96.869 78.571 95.5734C78.644 95.2367 78.7194 94.9007 78.7957 94.5647C79.1073 93.191 79.3925 91.8158 79.6398 90.429C79.6594 90.3203 79.6789 90.2116 79.699 90.0995C80.3733 86.3362 80.881 82.5523 81.2195 78.7437C81.231 78.6144 81.2425 78.485 81.2544 78.3518C81.4982 75.5543 81.6801 72.7392 81.7036 69.9303C81.7047 69.8401 81.7059 69.7498 81.7071 69.6569C81.7066 69.4545 81.6954 69.2523 81.6816 69.0504C81.6167 68.9967 81.5517 68.943 81.4848 68.8876C81.4778 68.9607 81.4707 69.0338 81.4634 69.1092C81.3736 70.0364 81.2815 70.9634 81.1883 71.8903C81.1742 72.0307 81.1601 72.171 81.1456 72.3155C80.949 74.2573 80.7101 76.1884 80.4189 78.1182C80.3646 78.4803 80.3121 78.8426 80.2601 79.2051C79.7038 83.0358 78.9543 86.8373 78.0971 90.6111C78.0785 90.6933 78.0599 90.7754 78.0407 90.86C77.4898 93.2831 76.8743 95.6895 76.214 98.085C76.152 98.3105 76.0906 98.5362 76.0294 98.762C75.7645 99.7341 75.4755 100.698 75.1823 101.662C75.1042 101.92 75.0272 102.178 74.9506 102.437C74.6641 103.401 74.36 104.357 74.0337 105.309C73.9242 105.631 73.8197 105.954 73.7198 106.279C73.503 106.982 73.2659 107.678 73.0277 108.374C72.9712 108.539 72.915 108.704 72.8591 108.869C72.4239 110.156 71.9521 111.425 71.452 112.688C71.2433 113.218 71.0454 113.744 70.8833 114.291C70.7394 114.767 70.5484 115.199 70.3321 115.646C70.0376 116.287 69.7989 116.952 69.5491 117.611C69.2296 118.454 68.9091 119.291 68.519 120.105C68.2884 120.595 68.0845 121.096 67.8763 121.596C67.5841 122.298 67.2836 122.993 66.9595 123.681C66.816 123.986 66.6799 124.295 66.5441 124.604C66.2698 125.218 65.9694 125.816 65.662 126.414C65.4871 126.764 65.3253 127.117 65.1672 127.475C64.8767 128.131 64.5575 128.769 64.2298 129.407C64.0566 129.746 63.8865 130.087 63.716 130.428C62.9227 132.012 62.1105 133.584 61.2537 135.135C60.941 135.701 60.6333 136.27 60.3289 136.841C59.8079 137.817 59.2669 138.775 58.6964 139.723C58.5026 140.048 58.3132 140.375 58.1233 140.702C57.4796 141.811 56.8166 142.906 56.1427 143.996C56.074 144.108 56.0053 144.22 55.9345 144.335C55.8727 144.435 55.8109 144.535 55.7472 144.638C55.7052 144.713 55.6633 144.788 55.62 144.866C55.6352 144.9 55.6505 144.935 55.6662 144.97ZM67.121 140.659C67.2092 140.578 67.2974 140.498 67.3882 140.416C67.2848 140.461 67.1814 140.507 67.0748 140.554C67.0901 140.589 67.1053 140.623 67.121 140.659ZM67.4004 140.161C67.5632 139.964 67.5632 139.964 67.5632 139.964L67.4004 140.161ZM67.6215 139.813C67.7843 139.616 67.7843 139.616 67.7843 139.616L67.6215 139.813ZM83.6844 96.7578C84.2097 95.4227 84.6383 94.0657 85.0038 92.6789C85.0461 92.5283 85.0885 92.3777 85.131 92.2272C85.4589 91.0407 85.6392 89.8615 85.7852 88.6406C85.8398 88.2031 85.9035 87.7671 85.9669 87.3309C86.6098 82.8825 86.9423 78.3895 87.1217 73.9001C87.1288 73.7236 87.1364 73.5471 87.1444 73.3706C87.1553 73.1247 87.1646 72.8788 87.1734 72.6329C87.179 72.4916 87.1846 72.3504 87.1904 72.2049C87.2063 71.8502 87.2063 71.8502 86.929 71.6015C86.9254 71.6871 86.9219 71.7726 86.9182 71.8607C86.7454 75.9488 86.3682 80.021 85.823 84.0764C85.7999 84.2503 85.7999 84.2503 85.7764 84.4276C85.2607 88.2812 84.6127 92.1477 83.7189 95.9325C83.6009 96.3498 83.6009 96.3498 83.6844 96.7578ZM89.6268 47.1862C89.7071 46.7239 89.6673 46.31 89.6207 45.8477C89.6116 45.754 89.6025 45.6603 89.5931 45.5638C89.5626 45.2545 89.531 44.9454 89.4991 44.6362C89.4827 44.4763 89.4827 44.4763 89.466 44.3132C89.2354 42.0873 88.9206 39.881 88.5462 37.6751C88.5314 37.587 88.5166 37.4988 88.5014 37.4081C87.7701 33.0631 86.7504 28.7745 85.4673 24.5593C85.4 24.3378 85.3333 24.1161 85.2667 23.8944C83.9478 19.5562 82.1275 14.6633 78.6429 11.5852C78.6084 11.6005 78.5739 11.6157 78.5384 11.6314C78.5603 11.7031 78.5821 11.7749 78.6046 11.8488C78.8375 12.6133 79.0698 13.378 79.3019 14.1427C79.388 14.4259 79.4741 14.7092 79.5604 14.9924C79.6862 15.4055 79.8117 15.8188 79.937 16.2321C80 16.4398 80 16.4398 80.0643 16.6517C80.3133 17.478 80.5487 18.307 80.7748 19.1398C81.129 20.4395 81.534 21.6813 82.0737 22.9155C82.2776 23.3828 82.4743 23.8532 82.6722 24.3231C82.7124 24.4181 82.7525 24.513 82.7939 24.6108C85.6712 31.4291 87.8764 38.6612 89.245 45.9346C89.3298 46.3808 89.4146 46.7791 89.6268 47.1862ZM75.7374 10.2547C75.7864 10.3427 75.8354 10.4306 75.8859 10.5212C76.0127 10.7528 76.0127 10.7528 76.2208 10.9073C76.5089 10.917 76.5089 10.917 76.8318 10.8949C77.4424 10.8633 77.4424 10.8633 77.7052 10.8758C77.3467 10.4911 76.9402 10.2219 76.4933 9.95197C76.3911 9.88832 76.3911 9.88832 76.287 9.82339C75.9516 9.61892 75.7112 9.50065 75.3196 9.43262C75.4456 9.71788 75.5849 9.98296 75.7374 10.2547Z" fill="white"/>
</svg>
