<svg width="369" height="281" viewBox="0 0 369 281" fill="none" xmlns="http://www.w3.org/2000/svg">
<g filter="url(#filter0_d_312_1610)">
<g filter="url(#filter1_d_312_1610)">
<path d="M124.5 6.71834C124.5 15.4889 124.5 24.2595 124.5 33.2958C126.808 33.2365 129.117 33.1773 131.495 33.1162C138.977 33.0543 145.67 34.0452 152.833 36.169C153.627 36.4 153.627 36.4 154.437 36.6355C170.234 41.3287 183.146 49.4547 195.333 60.5916C196.132 61.3097 196.132 61.3097 196.946 62.0422C212.158 76.5221 223.048 99.9977 223.91 121.071C223.99 123.748 224.014 126.423 224.021 129.1C224.024 129.609 224.027 130.117 224.031 130.64C224.071 146.726 220.302 164.611 211.11 178.024C209.854 180.54 209.953 182.872 210.031 185.622C210.039 186.186 210.047 186.75 210.055 187.331C210.119 190.927 210.279 194.517 210.469 198.109C210.531 199.306 210.589 200.503 210.641 201.7C210.775 204.748 210.977 207.759 211.312 210.791C212.044 218.974 212.044 218.974 210.146 222.006C207.955 224.437 205.319 226.119 202.53 227.768C200.945 228.709 199.413 229.71 197.876 230.73C174.67 245.916 174.67 245.916 163.458 245.916C162.808 239.496 162.663 233.151 162.706 226.701C162.709 225.78 162.712 224.86 162.715 223.912C162.724 221.669 162.735 219.426 162.75 217.183C162.354 217.325 161.959 217.466 161.552 217.612C157.995 218.854 154.5 219.881 150.797 220.55C150.295 220.642 149.793 220.733 149.275 220.827C143.164 221.832 137.044 221.678 130.875 221.493C130.896 221.93 130.918 222.366 130.94 222.816C131.382 231.96 131.692 241.07 131.583 250.225C117.77 250.76 103.218 248.992 90.3345 243.709C89.7009 243.449 89.0674 243.19 88.4147 242.923C87.9341 242.725 87.4535 242.528 86.9583 242.324C86.9667 241.921 86.9752 241.518 86.9838 241.103C87.0642 236.896 87.0896 232.691 87.0837 228.483C87.0886 226.915 87.1074 225.346 87.1404 223.778C87.7166 214.986 87.7166 214.986 84.6019 207.223C82.5929 205.944 80.6789 205.083 78.4583 204.254C77.168 203.368 77.168 203.368 76.1673 202.5C74.9247 201.437 73.6814 200.376 72.4375 199.315C71.8531 198.811 71.2687 198.308 70.6666 197.789C69.9654 197.211 69.9654 197.211 69.25 196.622C66.0473 193.954 63.3711 190.983 60.75 187.732C60.193 187.043 59.636 186.353 59.0621 185.642C52.9568 177.921 48.1881 169.599 44.4583 160.437C44.2127 159.838 43.9671 159.238 43.714 158.621C36.352 139.453 35.406 116.785 41.625 97.2254C41.8889 96.3272 42.1527 95.4291 42.4246 94.5037C47.7901 77.7064 58.5108 63.5525 71.7928 52.3647C72.3107 51.9279 72.3107 51.9279 72.839 51.4822C74.2083 50.5352 74.2083 50.5352 76.3385 49.5995C79.0531 48.2461 80.74 47.1384 82.7083 44.7888C84.2353 39.7411 83.7339 34.1986 83.5937 28.986C83.5852 27.5241 83.5806 26.0622 83.5799 24.6003C83.5699 21.0321 83.5075 17.4684 83.4166 13.9014C85.195 13.3254 86.9742 12.7526 88.754 12.1814C89.2504 12.0203 89.7468 11.8591 90.2583 11.6931C97.2396 9.45991 104.36 8.2122 111.617 7.30197C112.091 7.24161 112.565 7.18125 113.053 7.11906C116.935 6.67289 120.525 6.71834 124.5 6.71834Z" fill="#FCFDFD"/>
</g>
<g filter="url(#filter2_d_312_1610)">
<path d="M346.917 206.408C347.425 211.315 347.929 216.223 348.43 221.131C348.601 222.799 348.772 224.467 348.945 226.134C349.194 228.538 349.439 230.941 349.684 233.345C349.761 234.085 349.839 234.826 349.918 235.588C350.316 239.535 350.54 243.385 350.458 247.352C348.553 248.318 346.91 248.31 344.781 248.473C343.41 248.58 343.41 248.58 342.01 248.69C340.986 248.767 339.962 248.843 338.938 248.92C337.857 249.004 336.776 249.087 335.696 249.171C332.715 249.402 329.734 249.628 326.754 249.854C323.543 250.098 320.332 250.346 317.122 250.593C310.827 251.077 304.531 251.558 298.236 252.037C293.119 252.427 288.001 252.819 282.884 253.211C282.157 253.266 281.43 253.322 280.68 253.379C279.203 253.493 277.725 253.606 276.248 253.719C263.168 254.721 250.088 255.72 237.008 256.718C224.315 257.686 211.622 258.656 198.93 259.629C185.117 260.689 171.305 261.746 157.492 262.801C156.018 262.914 154.545 263.026 153.071 263.139C152.346 263.194 151.621 263.25 150.874 263.307C145.765 263.697 140.657 264.088 135.549 264.48C129.319 264.958 123.089 265.434 116.86 265.908C113.681 266.149 110.503 266.392 107.324 266.637C104.413 266.861 101.502 267.082 98.5903 267.302C97.5387 267.382 96.4871 267.463 95.4355 267.544C94.0021 267.656 92.5683 267.763 91.1346 267.871C90.3395 267.932 89.5444 267.992 88.7252 268.055C85.7786 268.207 82.8254 268.183 79.875 268.183C79.875 261.309 79.875 254.435 79.875 247.352C82.9028 247.864 85.3032 248.439 88.1329 249.484C94.0224 251.652 99.9395 253.165 106.083 254.401C106.818 254.549 107.553 254.697 108.31 254.85C140.36 261.055 174.793 253.465 201.753 234.961C210.613 228.727 219.102 221.484 225.792 212.873C227.632 211.94 229.133 211.95 231.19 211.815C232.026 211.759 232.862 211.703 233.723 211.645C235.093 211.559 235.093 211.559 236.491 211.471C237.452 211.408 238.413 211.346 239.375 211.283C249.522 210.628 259.675 210.072 269.829 209.534C271.379 209.451 272.929 209.369 274.479 209.286C279.906 208.996 285.334 208.709 290.761 208.422C295.797 208.156 300.832 207.886 305.868 207.614C310.23 207.379 314.592 207.147 318.955 206.917C321.545 206.78 324.134 206.643 326.724 206.501C329.589 206.345 332.455 206.196 335.321 206.047C336.171 206 337.022 205.953 337.898 205.904C338.676 205.865 339.454 205.825 340.255 205.785C341.268 205.731 341.268 205.731 342.301 205.676C343.978 205.689 345.32 205.913 346.917 206.408Z" fill="#0091C7"/>
</g>
<path d="M83.4165 14.6196C83.6099 18.8107 83.7508 22.999 83.8445 27.1936C83.8835 28.618 83.9366 30.0422 84.0043 31.4655C84.5528 43.3055 84.5528 43.3055 81.761 46.9494C79.7706 48.415 77.8457 49.4759 75.6248 50.5351C74.5277 51.3307 73.4462 52.1499 72.393 53.0043C71.8808 53.4145 71.3685 53.8247 70.8408 54.2473C57.438 65.3333 47.3018 80.3322 42.3331 97.2253C42.1823 97.6984 42.0316 98.1716 41.8762 98.6591C36.9713 114.393 37.0921 132.393 41.2679 148.295C41.5802 149.491 41.8497 150.698 42.1118 151.907C43.4489 157.737 46.0899 163.011 48.7081 168.338C49.0277 169.011 49.3473 169.684 49.6765 170.378C57.0113 185.012 70.1159 200.375 84.9659 207.49C87.2009 209.5 87.2647 209.785 87.4406 212.641C87.4399 214.024 87.416 215.408 87.3732 216.79C87.3671 217.52 87.3611 218.249 87.3549 219C87.3312 221.328 87.2778 223.655 87.2237 225.982C87.2024 227.561 87.183 229.14 87.1656 230.719C87.1188 234.588 87.0477 238.456 86.9581 242.324C72.4576 236.349 59.4236 228.855 47.9998 217.901C47.0729 217.105 46.1433 216.312 45.2107 215.522C38.2177 209.301 32.5984 202.015 27.4581 194.197C26.9623 193.443 26.4665 192.69 25.9557 191.913C22.3488 186.195 19.4666 180.226 16.7418 174.041C16.2102 172.841 15.6601 171.649 15.1066 170.459C8.11519 154.773 6.18197 136.521 6.91645 119.493C6.94282 118.851 6.96918 118.21 6.99635 117.548C8.55593 85.1526 24.0941 57.1435 47.2915 35.4506C55.2083 28.3945 72.0211 14.6196 83.4165 14.6196Z" fill="#0091C7"/>
<g filter="url(#filter3_d_312_1610)">
<path d="M171.958 16.7747C175.159 17.2277 177.828 18.4935 180.68 19.9622C181.174 20.216 181.667 20.4699 182.176 20.7315C191.452 25.5906 199.6 31.2755 207.375 38.324C208.408 39.2223 209.441 40.1202 210.474 41.0176C215.665 45.6774 220.106 50.7394 224.375 56.2817C224.922 56.9789 225.469 57.6762 226.032 58.3945C237.867 74.2475 244.491 92.3279 248.458 111.592C248.635 112.437 248.811 113.282 248.992 114.153C254.022 143.224 245.84 175.054 229.631 199.221C224.373 206.753 218.393 213.874 211.625 220.056C211.391 220.056 211.158 220.056 210.917 220.056C210.71 216.406 210.509 212.755 210.311 209.105C210.244 207.869 210.175 206.633 210.105 205.398C209.867 201.187 209.667 196.975 209.5 192.761C209.474 192.168 209.448 191.576 209.422 190.965C208.94 178.826 208.94 178.826 212.466 173.501C213.058 172.487 213.647 171.472 214.232 170.454C214.659 169.732 214.659 169.732 215.094 168.995C219.178 161.801 220.748 153.424 222.25 145.352C222.375 144.688 222.499 144.024 222.627 143.34C226.265 118.085 219.734 93.1208 204.94 72.6233C198.6 64.3331 191.611 57.1913 183.203 51.074C182.779 50.7614 182.355 50.4489 181.918 50.127C179.652 48.4895 177.488 47.2894 174.925 46.2254C173.627 45.4201 173.627 45.4201 172.667 44.0704C171.841 39.7608 171.908 35.5161 171.958 31.1409C171.953 29.7931 171.944 28.4453 171.934 27.0976C171.912 23.656 171.927 20.2161 171.958 16.7747Z" fill="#0091C7"/>
</g>
<g filter="url(#filter4_d_312_1610)">
<path d="M351.875 161.155C352.384 165.844 352.888 170.534 353.388 175.224C353.559 176.817 353.73 178.411 353.903 180.004C354.153 182.302 354.398 184.6 354.642 186.899C354.758 187.957 354.758 187.957 354.877 189.036C354.948 189.711 355.018 190.387 355.092 191.083C355.154 191.668 355.217 192.253 355.282 192.856C355.468 195.699 355.442 198.533 355.417 201.38C340.235 202.387 325.051 203.242 309.855 203.978C307.057 204.114 304.259 204.252 301.461 204.389C296.203 204.647 290.946 204.904 285.689 205.16C279.686 205.452 273.683 205.746 267.68 206.041C255.37 206.644 243.06 207.245 230.75 207.845C231.744 205.804 232.806 203.862 233.99 201.927C240.291 191.532 245.279 181.341 249.167 169.775C251.143 164.179 251.143 164.179 252 163.31C252.973 163.215 253.95 163.169 254.927 163.142C255.559 163.123 256.191 163.103 256.842 163.084C257.541 163.066 258.24 163.049 258.961 163.031C260.06 162.999 260.06 162.999 261.181 162.967C263.628 162.897 266.075 162.833 268.521 162.768C270.232 162.721 271.943 162.674 273.654 162.627C277.262 162.527 280.87 162.43 284.478 162.335C289.04 162.215 293.602 162.088 298.164 161.961C334.737 160.94 334.737 160.94 351.875 161.155Z" fill="#777777"/>
</g>
<g filter="url(#filter5_d_312_1610)">
<path d="M334.167 118.056C335.205 127.329 336.241 136.602 337.133 145.891C337.192 146.492 337.251 147.093 337.312 147.712C337.366 148.278 337.419 148.843 337.473 149.426C337.542 150.149 337.542 150.149 337.612 150.887C337.742 153.109 337.708 155.338 337.708 157.563C295.633 158.63 295.633 158.63 252.708 159.718C253.417 150.38 253.417 150.38 254.125 146.07C254.197 145.073 254.247 144.075 254.271 143.075C254.285 142.529 254.299 141.983 254.313 141.42C254.325 140.846 254.337 140.271 254.349 139.678C254.364 139.079 254.379 138.479 254.394 137.861C254.44 135.958 254.482 134.056 254.524 132.153C254.554 130.858 254.585 129.562 254.616 128.267C254.692 125.103 254.764 121.939 254.833 118.775C261.149 118.648 267.465 118.529 273.781 118.415C274.255 118.407 274.728 118.398 275.216 118.39C294.867 118.038 314.512 117.973 334.167 118.056Z" fill="#0091C7"/>
</g>
<path d="M131.583 146.789C136.946 146.622 142.309 146.494 147.673 146.417C150.165 146.379 152.655 146.329 155.146 146.247C158.014 146.153 160.88 146.119 163.749 146.087C164.638 146.05 165.526 146.013 166.442 145.975C172.51 145.971 172.51 145.971 175.005 148.328C176.282 150.158 177.323 151.98 178.333 153.972C178.972 154.997 179.619 156.016 180.279 157.027C180.916 158.058 181.551 159.09 182.185 160.122C184.721 164.227 187.27 168.321 189.852 172.395C190.237 173.003 190.237 173.003 190.629 173.622C191.899 175.626 193.17 177.63 194.444 179.632C195.139 180.729 195.139 180.729 195.848 181.848C196.468 182.824 196.468 182.824 197.101 183.819C198.02 185.335 198.832 186.845 199.583 188.451C192.511 189.171 185.457 189.512 178.353 189.711C175.041 189.805 171.764 190.014 168.464 190.311C157.545 191.119 157.545 191.119 154.42 189.07C152.22 186.699 151.136 183.815 149.994 180.815C148.7 177.677 146.919 174.81 145.219 171.885C144.502 170.608 143.786 169.33 143.072 168.052C140.26 163.061 137.353 158.127 134.426 153.204C134.054 152.573 133.682 151.942 133.299 151.292C132.801 150.454 132.801 150.454 132.294 149.6C131.583 148.225 131.583 148.225 131.583 146.789Z" fill="#023F59"/>
<path d="M150.708 59.155C152.596 58.9608 154.31 58.9238 156.198 58.9754C157.082 58.9873 157.082 58.9873 157.984 58.9993C160.282 59.0364 162.578 59.0953 164.875 59.155C165.977 59.1819 167.079 59.2085 168.181 59.235C176.052 59.426 183.922 59.6423 191.792 59.8733C190.658 62.826 189.304 65.5611 187.763 68.3135C187.493 68.7976 187.223 69.2817 186.945 69.7804C182.995 76.8127 178.964 83.8351 174.657 90.6489C173.288 92.9024 173.288 92.9024 172.494 95.5259C171.35 98.4138 170.382 100.651 167.708 102.254C161.175 103.859 154.173 103.123 147.521 102.837C145.636 102.785 143.751 102.748 141.865 102.71C137.255 102.607 132.649 102.451 128.042 102.254C129.08 99.5689 130.248 97.0584 131.597 94.5178C132.025 93.7093 132.453 92.9009 132.894 92.068C133.357 91.1982 133.82 90.3284 134.284 89.4587C134.759 88.5642 135.233 87.6697 135.708 86.7751C136.925 84.4824 138.144 82.1912 139.364 79.9003C140.064 78.5857 140.763 77.2706 141.461 75.9553C142.727 73.5719 143.994 71.1894 145.263 68.8073C145.648 68.082 146.034 67.3567 146.431 66.6094C146.788 65.9412 147.145 65.2729 147.512 64.5844C147.823 64.0015 148.134 63.4186 148.454 62.8179C149.15 61.5639 149.921 60.3525 150.708 59.155Z" fill="#023E58"/>
<path d="M107.987 147.462C109.12 147.466 110.253 147.469 111.386 147.472C114.105 147.48 116.823 147.492 119.542 147.507C119.974 162.355 120.381 177.187 120.25 192.042C117.21 192.168 114.17 192.285 111.13 192.401C110.305 192.436 109.479 192.47 108.629 192.505C99.5003 192.846 90.4506 192.761 81.2915 192.761C81.2915 178.064 81.2915 163.367 81.2915 148.225C90.2306 147.748 99.0527 147.411 107.987 147.462Z" fill="#033F5A"/>
<path d="M79.875 57C92.03 57.237 104.185 57.4741 116.708 57.7183C117.189 72.5875 117.494 87.3774 117.417 102.254C105.028 102.254 92.6392 102.254 79.875 102.254C79.875 87.3199 79.875 72.3862 79.875 57Z" fill="#013E59"/>
<path d="M124.5 6.71834C124.5 15.4889 124.5 24.2595 124.5 33.2958C120.526 33.7699 116.552 34.244 112.458 34.7324C102.051 36.6018 93.0552 40.4446 83.4165 44.7888C83.4165 34.5959 83.4165 24.4031 83.4165 13.9014C92.8937 10.8981 101.846 8.52744 111.617 7.30197C112.091 7.24161 112.565 7.18125 113.053 7.11906C116.935 6.67289 120.525 6.71834 124.5 6.71834Z" fill="#FAD802"/>
<path d="M162.75 217.183C162.871 220.341 162.988 223.498 163.104 226.656C163.138 227.537 163.172 228.418 163.207 229.326C163.417 235.098 163.501 240.857 163.458 246.634C152.6 249.571 142.811 250.331 131.583 250.225C130.873 240.641 130.793 231.102 130.875 221.493C132.123 221.453 132.123 221.453 133.396 221.412C142.103 221.073 150.708 220.326 159.109 217.831C161.333 217.183 161.333 217.183 162.75 217.183Z" fill="#EC2027"/>
<path d="M125.74 112.759C129.032 116.283 131.065 120.443 131.274 125.329C130.96 130.543 128.987 133.894 125.208 137.361C120.681 141.217 116.736 141.471 110.992 141.312C105.996 140.828 103.484 138.615 100.195 134.982C97.3356 131.307 95.6995 128.144 95.8734 123.399C96.5774 119.197 98.5998 115.21 101.745 112.355C110.015 106.82 117.46 107.798 125.74 112.759Z" fill="#0795C9"/>
<path d="M145.042 109.437C151.088 108.785 151.088 108.785 153.372 110.219C154.428 111.337 155.316 112.484 156.198 113.746C156.502 114.144 156.806 114.541 157.119 114.95C158.074 116.208 158.995 117.492 159.917 118.775C161.319 120.671 162.722 122.567 164.167 124.521C164.4 119.543 164.634 114.565 164.875 109.437C167.446 109.437 170.018 109.437 172.667 109.437C173.431 119.496 173.453 129.521 173.375 139.606C170.259 140.081 167.456 140.469 164.812 138.507C163.439 136.96 162.222 135.369 161.023 133.679C160.6 133.121 160.177 132.563 159.741 131.988C158.597 130.471 157.483 128.937 156.375 127.394C155.674 126.446 154.973 125.498 154.25 124.521C154.25 129.736 154.25 134.951 154.25 140.324C151.445 140.324 148.64 140.324 145.75 140.324C144.958 130.028 144.965 119.759 145.042 109.437Z" fill="#0594C9"/>
<path d="M68.5415 109.437C71.3465 109.377 74.1515 109.318 77.0415 109.257C78.3509 109.218 78.3509 109.218 79.6867 109.178C84.5978 109.128 87.7583 109.605 91.9165 112.31C94.4552 114.949 94.9412 117.038 95.0597 120.615C94.8741 125.104 93.7854 126.987 90.5884 130.088C86.5315 133.05 82.6004 132.488 77.7498 132.422C77.7498 135.267 77.7498 138.111 77.7498 141.042C74.7111 141.042 71.6723 141.042 68.5415 141.042C68.5415 130.612 68.5415 120.182 68.5415 109.437Z" fill="#0694C9"/>
<path d="M176.208 109.437C183.922 109.437 191.636 109.437 199.583 109.437C199.583 111.807 199.583 114.177 199.583 116.62C197.012 116.62 194.441 116.62 191.792 116.62C192.026 117.805 192.259 118.99 192.5 120.211C192.602 121.741 192.674 123.272 192.724 124.804C192.754 125.668 192.784 126.531 192.814 127.421C192.842 128.316 192.87 129.211 192.899 130.133C192.929 131.042 192.96 131.95 192.991 132.887C193.066 135.126 193.138 137.366 193.208 139.606C190.403 139.606 187.598 139.606 184.708 139.606C184.475 132.02 184.241 124.435 184 116.62C181.429 116.62 178.858 116.62 176.208 116.62C176.208 114.249 176.208 111.879 176.208 109.437Z" fill="#0594C9"/>
<path d="M188.958 62.0281C187.712 65.7168 185.679 68.9072 183.69 72.2191C183.127 73.1632 183.127 73.1632 182.553 74.1264C181.386 76.0815 180.214 78.034 179.042 79.9858C178.495 80.8971 178.495 80.8971 177.938 81.8268C174.559 87.4586 171.163 93.0775 167.708 98.6619C167 97.2253 167 97.2253 167.525 95.2639C167.807 94.4445 168.09 93.625 168.381 92.7807C168.532 92.3374 168.684 91.8941 168.84 91.4374C169.163 90.4945 169.489 89.5526 169.817 88.6115C170.311 87.1962 170.797 85.7786 171.282 84.3602C173.035 79.2576 174.876 74.2032 176.917 69.2112C176.055 69.2408 175.193 69.2704 174.305 69.301C169.913 69.3152 165.65 68.5323 161.333 67.7746C161.333 67.5375 161.333 67.3005 161.333 67.0562C161.984 66.9294 162.634 66.8027 163.304 66.672C165.723 66.2001 168.141 65.7274 170.559 65.2543C171.605 65.0499 172.651 64.8458 173.696 64.6419C175.202 64.3485 176.707 64.054 178.212 63.7593C179.569 63.4941 179.569 63.4941 180.954 63.2236C182.26 62.9571 183.563 62.6729 184.849 62.3239C186.125 62.0281 186.125 62.0281 188.958 62.0281Z" fill="#EE0305"/>
<path d="M116 116.62C118.399 117.531 120.361 118.729 121.976 120.795C122.854 124.257 122.796 126.615 121.091 129.774C119.542 131.704 118.438 132.991 115.939 133.357C112.555 133.374 110.186 133.31 107.5 130.986C105.485 128.52 104.962 126.298 105.071 123.085C105.62 120.491 107.068 119.168 108.917 117.338C111.2 116.18 113.524 116.289 116 116.62Z" fill="#FAFCFD"/>
<path d="M133.708 120.211C136.046 120.211 138.383 120.211 140.792 120.211C140.792 126.848 140.792 133.486 140.792 140.324C138.688 140.324 136.584 140.324 134.417 140.324C133.836 135.726 133.618 131.264 133.664 126.631C133.667 126.009 133.671 125.388 133.674 124.747C133.682 123.235 133.695 121.723 133.708 120.211Z" fill="#0A96CA"/>
<path d="M188.958 62.0281C189.457 63.1892 189.457 63.1892 189.667 64.9013C188.754 66.9459 188.754 66.9459 187.351 69.3094C187.101 69.7352 186.852 70.1611 186.595 70.5999C185.782 71.9827 184.958 73.3578 184.133 74.7332C183.576 75.6761 183.02 76.6195 182.465 77.5635C181.365 79.4302 180.261 81.2941 179.154 83.1558C177.185 86.4674 175.256 89.8024 173.331 93.1399C172.777 94.095 172.222 95.05 171.668 96.0047C171.296 96.6445 170.925 97.2844 170.542 97.9436C169.728 96.7141 169.728 96.7141 169.125 95.0703C169.717 93.4897 169.717 93.4897 170.807 91.7566C171.41 90.7782 171.41 90.7782 172.024 89.78C172.47 89.0813 172.916 88.3826 173.375 87.6628C174.292 86.1833 175.209 84.7037 176.125 83.2238C176.604 82.4592 177.083 81.6946 177.576 80.9069C179.972 77.0529 182.293 73.1531 184.62 69.2561C185.459 67.8576 186.298 66.4593 187.138 65.0613C187.49 64.4743 187.842 63.8873 188.205 63.2825C188.454 62.8685 188.702 62.4546 188.958 62.0281Z" fill="#254259"/>
<path d="M77.75 117.338C78.758 117.294 79.7661 117.249 80.8047 117.203C81.6552 117.166 81.6552 117.166 82.5229 117.128C84.125 117.338 84.125 117.338 85.4006 118.309C86.25 119.493 86.25 119.493 86.1615 121.334C85.5417 123.085 85.5417 123.085 83.4167 124.521C81.9696 124.662 81.9696 124.662 80.4505 124.611C79.1138 124.567 79.1138 124.567 77.75 124.521C77.75 122.151 77.75 119.78 77.75 117.338Z" fill="#FAFCFD"/>
<path d="M136.498 111.367C138.667 111.592 138.667 111.592 140.039 112.445C140.792 113.747 140.792 113.747 140.659 115.587C140.084 117.338 140.084 117.338 138.667 118.775C136.542 118.999 136.542 118.999 134.417 118.775C132.895 116.459 132.729 115.71 133 113.028C134.417 111.592 134.417 111.592 136.498 111.367Z" fill="#0C97CA"/>
<path d="M169.833 88.6057C170.756 91.9607 170.412 94.0141 168.726 97.0907C168.39 97.6093 168.054 98.1278 167.708 98.6621C167 97.2254 167 97.2254 167.55 95.1996C167.822 94.4162 168.093 93.6329 168.372 92.8258C168.642 92.0387 168.911 91.2517 169.188 90.4408C169.401 89.8352 169.614 89.2296 169.833 88.6057Z" fill="#BE0F15"/>
<path d="M170.542 92.9155C171.243 92.9155 171.944 92.9155 172.667 92.9155C171.906 95.0095 171.407 96.3477 169.833 97.9437C169.391 96.6418 169.391 96.6418 169.125 95.0705C169.593 94.3593 170.06 93.6482 170.542 92.9155Z" fill="#244E65"/>
</g>
<defs>
<filter id="filter0_d_312_1610" x="-4" y="0" width="377" height="289" filterUnits="userSpaceOnUse" color-interpolation-filters="sRGB">
<feFlood flood-opacity="0" result="BackgroundImageFix"/>
<feColorMatrix in="SourceAlpha" type="matrix" values="0 0 0 0 0 0 0 0 0 0 0 0 0 0 0 0 0 0 127 0" result="hardAlpha"/>
<feOffset dy="4"/>
<feGaussianBlur stdDeviation="2"/>
<feComposite in2="hardAlpha" operator="out"/>
<feColorMatrix type="matrix" values="0 0 0 0 0 0 0 0 0 0 0 0 0 0 0 0 0 0 0.25 0"/>
<feBlend mode="normal" in2="BackgroundImageFix" result="effect1_dropShadow_312_1610"/>
<feBlend mode="normal" in="SourceGraphic" in2="effect1_dropShadow_312_1610" result="shape"/>
</filter>
<filter id="filter1_d_312_1610" x="37.5132" y="6.71704" width="196.518" height="252.6" filterUnits="userSpaceOnUse" color-interpolation-filters="sRGB">
<feFlood flood-opacity="0" result="BackgroundImageFix"/>
<feColorMatrix in="SourceAlpha" type="matrix" values="0 0 0 0 0 0 0 0 0 0 0 0 0 0 0 0 0 0 127 0" result="hardAlpha"/>
<feOffset dx="6" dy="5"/>
<feGaussianBlur stdDeviation="2"/>
<feComposite in2="hardAlpha" operator="out"/>
<feColorMatrix type="matrix" values="0 0 0 0 0 0 0 0 0 0 0 0 0 0 0 0 0 0 0.25 0"/>
<feBlend mode="normal" in2="BackgroundImageFix" result="effect1_dropShadow_312_1610"/>
<feBlend mode="normal" in="SourceGraphic" in2="effect1_dropShadow_312_1610" result="shape"/>
</filter>
<filter id="filter2_d_312_1610" x="79.875" y="205.676" width="280.6" height="71.5083" filterUnits="userSpaceOnUse" color-interpolation-filters="sRGB">
<feFlood flood-opacity="0" result="BackgroundImageFix"/>
<feColorMatrix in="SourceAlpha" type="matrix" values="0 0 0 0 0 0 0 0 0 0 0 0 0 0 0 0 0 0 127 0" result="hardAlpha"/>
<feOffset dx="6" dy="5"/>
<feGaussianBlur stdDeviation="2"/>
<feComposite in2="hardAlpha" operator="out"/>
<feColorMatrix type="matrix" values="0 0 0 0 0 0 0 0 0 0 0 0 0 0 0 0 0 0 0.25 0"/>
<feBlend mode="normal" in2="BackgroundImageFix" result="effect1_dropShadow_312_1610"/>
<feBlend mode="normal" in="SourceGraphic" in2="effect1_dropShadow_312_1610" result="shape"/>
</filter>
<filter id="filter3_d_312_1610" x="171.923" y="16.7747" width="88.5435" height="212.282" filterUnits="userSpaceOnUse" color-interpolation-filters="sRGB">
<feFlood flood-opacity="0" result="BackgroundImageFix"/>
<feColorMatrix in="SourceAlpha" type="matrix" values="0 0 0 0 0 0 0 0 0 0 0 0 0 0 0 0 0 0 127 0" result="hardAlpha"/>
<feOffset dx="6" dy="5"/>
<feGaussianBlur stdDeviation="2"/>
<feComposite in2="hardAlpha" operator="out"/>
<feColorMatrix type="matrix" values="0 0 0 0 0 0 0 0 0 0 0 0 0 0 0 0 0 0 0.25 0"/>
<feBlend mode="normal" in2="BackgroundImageFix" result="effect1_dropShadow_312_1610"/>
<feBlend mode="normal" in="SourceGraphic" in2="effect1_dropShadow_312_1610" result="shape"/>
</filter>
<filter id="filter4_d_312_1610" x="230.75" y="161.041" width="134.685" height="55.8042" filterUnits="userSpaceOnUse" color-interpolation-filters="sRGB">
<feFlood flood-opacity="0" result="BackgroundImageFix"/>
<feColorMatrix in="SourceAlpha" type="matrix" values="0 0 0 0 0 0 0 0 0 0 0 0 0 0 0 0 0 0 127 0" result="hardAlpha"/>
<feOffset dx="6" dy="5"/>
<feGaussianBlur stdDeviation="2"/>
<feComposite in2="hardAlpha" operator="out"/>
<feColorMatrix type="matrix" values="0 0 0 0 0 0 0 0 0 0 0 0 0 0 0 0 0 0 0.25 0"/>
<feBlend mode="normal" in2="BackgroundImageFix" result="effect1_dropShadow_312_1610"/>
<feBlend mode="normal" in="SourceGraphic" in2="effect1_dropShadow_312_1610" result="shape"/>
</filter>
<filter id="filter5_d_312_1610" x="252.708" y="118.024" width="95.0039" height="50.6943" filterUnits="userSpaceOnUse" color-interpolation-filters="sRGB">
<feFlood flood-opacity="0" result="BackgroundImageFix"/>
<feColorMatrix in="SourceAlpha" type="matrix" values="0 0 0 0 0 0 0 0 0 0 0 0 0 0 0 0 0 0 127 0" result="hardAlpha"/>
<feOffset dx="6" dy="5"/>
<feGaussianBlur stdDeviation="2"/>
<feComposite in2="hardAlpha" operator="out"/>
<feColorMatrix type="matrix" values="0 0 0 0 0 0 0 0 0 0 0 0 0 0 0 0 0 0 0.25 0"/>
<feBlend mode="normal" in2="BackgroundImageFix" result="effect1_dropShadow_312_1610"/>
<feBlend mode="normal" in="SourceGraphic" in2="effect1_dropShadow_312_1610" result="shape"/>
</filter>
</defs>
</svg>
