<svg width="14" height="14" viewBox="0 0 14 14" fill="none" xmlns="http://www.w3.org/2000/svg">
<g clip-path="url(#clip0_565_660)">
<path d="M7.00018 13.3565C5.74296 13.3565 4.51397 12.9837 3.46863 12.2853C2.42329 11.5868 1.60854 10.594 1.12743 9.4325C0.646309 8.27098 0.520427 6.99288 0.765698 5.75982C1.01097 4.52675 1.61638 3.39411 2.50537 2.50512C3.39436 1.61613 4.527 1.01073 5.76006 0.765454C6.99312 0.520183 8.27123 0.646065 9.43275 1.12718C10.5943 1.6083 11.587 2.42304 12.2855 3.46838C12.984 4.51372 13.3568 5.74271 13.3568 6.99993C13.3568 8.68581 12.6871 10.3026 11.495 11.4947C10.3029 12.6868 8.68606 13.3565 7.00018 13.3565ZM7.00018 1.62125C5.93637 1.62125 4.89646 1.93671 4.01194 2.52772C3.12742 3.11874 2.43803 3.95878 2.03093 4.9416C1.62383 5.92443 1.51731 7.0059 1.72485 8.04926C1.93239 9.09262 2.44466 10.051 3.19688 10.8032C3.9491 11.5555 4.90749 12.0677 5.95085 12.2753C6.99421 12.4828 8.07568 12.3763 9.05851 11.9692C10.0413 11.5621 10.8814 10.8727 11.4724 9.98816C12.0634 9.10365 12.3789 8.06373 12.3789 6.99993C12.3789 5.57342 11.8122 4.20533 10.8035 3.19663C9.79478 2.18794 8.42669 1.62125 7.00018 1.62125Z" fill="black"/>
<path d="M9.68955 10.1782C9.6252 10.1786 9.5614 10.1663 9.50183 10.1419C9.44225 10.1176 9.38807 10.0817 9.34238 10.0364L6.65304 7.34709C6.60772 7.3014 6.57187 7.24721 6.54753 7.18764C6.5232 7.12806 6.51087 7.06427 6.51124 6.99992V3.08815C6.51124 2.95847 6.56276 2.8341 6.65445 2.7424C6.74615 2.6507 6.87053 2.59918 7.00021 2.59918C7.12989 2.59918 7.25426 2.6507 7.34596 2.7424C7.43766 2.8341 7.48918 2.95847 7.48918 3.08815V6.79944L10.0367 9.34209C10.0825 9.38754 10.1189 9.44162 10.1437 9.50121C10.1686 9.56079 10.1814 9.62471 10.1814 9.68926C10.1814 9.75381 10.1686 9.81772 10.1437 9.8773C10.1189 9.93689 10.0825 9.99097 10.0367 10.0364C9.99103 10.0817 9.93684 10.1176 9.87727 10.1419C9.81769 10.1663 9.7539 10.1786 9.68955 10.1782Z" fill="black"/>
</g>
<defs>
<clipPath id="clip0_565_660">
<rect width="14" height="14" fill="white"/>
</clipPath>
</defs>
</svg>
