<svg width="12" height="12" viewBox="0 0 12 12" fill="none" xmlns="http://www.w3.org/2000/svg">
<g clip-path="url(#clip0_565_680)">
<path d="M9.35568 1.0961H2.95166C2.77054 1.0961 2.62354 0.949428 2.62354 0.767975C2.62354 0.586522 2.77054 0.43985 2.95166 0.43985H9.35568C9.5368 0.43985 9.6838 0.586522 9.6838 0.767975C9.6838 0.949428 9.5368 1.0961 9.35568 1.0961Z" fill="black"/>
<path d="M6.08963 9.54631C5.15808 9.54631 4.05886 9.17651 3.44429 8.36933C2.96522 7.73998 2.79 6.93608 2.66368 6.23192C2.59772 5.86376 2.55572 5.47165 2.53571 5.03361C2.46385 3.47698 2.53571 2.05292 2.6243 0.745998C2.63677 0.565201 2.79066 0.43592 2.97375 0.440514C3.15455 0.452654 3.29138 0.609498 3.27891 0.789967C3.19196 2.07786 3.12108 3.47928 3.1913 5.00342C3.21 5.41259 3.24872 5.77615 3.30975 6.11609C3.42263 6.74478 3.57586 7.45878 3.96633 7.97197C4.4595 8.62001 5.53477 9.00359 6.46402 8.86348C7.3913 8.72469 8.10629 8.22987 8.53219 7.43319C8.65163 7.20973 8.74744 6.97479 8.80946 6.75298C8.90658 6.4055 8.96827 6.0672 8.98796 5.77451C9.00633 5.50151 9.0106 5.2272 9.01093 4.89908C9.01158 4.34225 9.01585 3.78509 9.01946 3.22826C9.02536 2.40926 9.03127 1.59026 9.02668 0.769951C9.02569 0.588827 9.17171 0.44117 9.35316 0.440186C9.35382 0.440186 9.3548 0.440186 9.3548 0.440186C9.53527 0.440186 9.68194 0.585873 9.68293 0.76667C9.68719 1.58928 9.68161 2.41123 9.67571 3.23319C9.67177 3.7887 9.66783 4.34454 9.66718 4.90006C9.66685 5.24131 9.66226 5.52809 9.64257 5.81881C9.6196 6.16039 9.552 6.53445 9.4411 6.93017C9.36661 7.19693 9.25243 7.47814 9.11068 7.74326C8.5906 8.71648 7.68497 9.34484 6.56082 9.5135C6.41152 9.53483 6.25304 9.54631 6.08963 9.54631Z" fill="black"/>
<path d="M5.98724 5.81848C5.83138 5.81848 5.67848 5.76664 5.53213 5.66426C5.22501 5.44967 5.00648 5.23245 4.84471 4.98045C4.60781 4.61262 4.62356 4.19295 4.88835 3.79887L4.9356 3.72767C5.08523 3.50192 5.27095 3.22006 5.59251 3.08225C5.69259 3.03927 5.79759 3.01761 5.90456 3.01761C6.27763 3.01761 6.57852 3.27683 6.79902 3.50291L6.82757 3.53178C7.02674 3.73489 7.27513 3.98787 7.31779 4.36194C7.3693 4.81245 6.87548 5.29611 6.7229 5.43392C6.53587 5.6075 6.30716 5.81848 5.98724 5.81848ZM5.90488 3.67419C5.88684 3.67419 5.8701 3.6778 5.8514 3.68567C5.71031 3.74637 5.59481 3.92094 5.48291 4.08992L5.43271 4.16539C5.28341 4.3872 5.32706 4.51714 5.39662 4.62509C5.51081 4.80261 5.67356 4.96175 5.90849 5.12614C5.94098 5.14878 5.96952 5.16158 5.98724 5.16158C6.05024 5.16158 6.17985 5.04214 6.27435 4.95486C6.47517 4.77144 6.66121 4.52075 6.66581 4.42953C6.64907 4.28581 6.50863 4.14242 6.35966 3.99083L6.33013 3.96064C6.26057 3.89042 6.04926 3.67419 5.90488 3.67419Z" fill="black"/>
<path d="M8.98256 7.68649C8.85426 7.68649 8.73252 7.61102 8.68002 7.48535C8.60981 7.31833 8.68823 7.12605 8.85557 7.05583C8.93629 7.02171 9.01799 6.99054 9.0997 6.95904C9.21618 6.91441 9.33267 6.87011 9.44521 6.8163C9.85832 6.61943 10.1868 6.26079 10.4489 5.72004C10.7331 5.134 10.928 4.34552 11.0291 3.37591C11.077 2.91555 11.0025 2.51196 10.8352 2.32329C10.7495 2.22649 10.637 2.18055 10.4814 2.17825C10.1274 2.17268 9.77301 2.17169 9.41896 2.17169C9.23784 2.17169 9.09084 2.02502 9.09084 1.84357C9.09084 1.66211 9.23784 1.51544 9.41896 1.51544C9.77629 1.51544 10.1343 1.51643 10.4916 1.522C10.8299 1.52758 11.1186 1.65358 11.326 1.88786C11.7293 2.34199 11.7221 3.05763 11.6817 3.44383C11.5731 4.48924 11.3572 5.35122 11.0396 6.00649C10.7144 6.67685 10.2731 7.14869 9.7274 7.40857C9.59943 7.4696 9.46753 7.52079 9.33529 7.57132C9.25982 7.60052 9.18435 7.6294 9.10987 7.66024C9.0682 7.67829 9.02488 7.68649 8.98256 7.68649Z" fill="black"/>
<path d="M3.01777 7.6865C2.97544 7.6865 2.93246 7.67863 2.89079 7.66091C2.8163 7.62974 2.74083 7.60086 2.66536 7.57199C2.53313 7.52146 2.40122 7.46994 2.27358 7.40957C1.72758 7.14936 1.28625 6.67752 0.961082 6.00716C0.643457 5.35189 0.427551 4.48991 0.318941 3.4445C0.278582 3.0583 0.271363 2.34266 0.674629 1.88854C0.882332 1.65425 1.17075 1.52793 1.50905 1.52268C1.86671 1.5171 2.22436 1.51611 2.58202 1.51611C2.76314 1.51611 2.91014 1.66279 2.91014 1.84424C2.91014 2.02569 2.76314 2.17236 2.58202 2.17236C2.22764 2.17236 1.8736 2.17335 1.51922 2.17893C1.36369 2.18155 1.25147 2.22716 1.1655 2.32396C0.99816 2.51263 0.923675 2.91622 0.971582 3.37658C1.07232 4.34586 1.26755 5.13435 1.55171 5.72071C1.81388 6.26113 2.142 6.6201 2.55577 6.8173C2.66799 6.87046 2.78447 6.91508 2.90096 6.95971C2.98266 6.99121 3.06436 7.02238 3.14508 7.0565C3.3121 7.12672 3.39085 7.319 3.32063 7.48602C3.26747 7.61071 3.14574 7.6865 3.01777 7.6865Z" fill="black"/>
<path d="M6.67287 11.56C6.15016 11.56 5.49719 11.5594 5.03454 11.559L4.49707 11.5587C4.31595 11.5587 4.16895 11.412 4.16895 11.2306C4.16895 11.0491 4.31595 10.9025 4.49707 10.9025L5.0352 10.9028C5.8578 10.9035 7.28187 10.9048 7.5004 10.9025C7.68743 10.9149 7.83016 11.0462 7.8318 11.2273C7.83345 11.4084 7.68809 11.5567 7.50696 11.5587C7.41082 11.5597 7.08171 11.56 6.67287 11.56Z" fill="black"/>
<path d="M6.00323 11.5131C5.8244 11.5131 5.67806 11.3694 5.67511 11.1899C5.66887 10.766 5.66592 9.95549 5.67117 9.42458C5.67314 9.24477 5.81948 9.10007 5.99929 9.10007C6.00028 9.10007 6.00159 9.10007 6.00257 9.10007C6.1837 9.10204 6.32939 9.25035 6.32742 9.4318C6.32184 9.95779 6.32512 10.7604 6.33135 11.1804C6.33398 11.3615 6.18928 11.5108 6.00815 11.5134C6.00651 11.5131 6.00487 11.5131 6.00323 11.5131Z" fill="black"/>
</g>
<defs>
<clipPath id="clip0_565_680">
<rect width="12" height="12" fill="white"/>
</clipPath>
</defs>
</svg>
