<svg width="443" height="401" viewBox="0 0 443 401" fill="none" xmlns="http://www.w3.org/2000/svg">
<path d="M133.968 0.69223C136.607 1.9288 136.607 1.9288 139.292 3.50864C140.307 4.09959 141.321 4.69055 142.366 5.29941C143.451 5.94466 144.537 6.58992 145.655 7.25473C146.811 7.93268 147.968 8.60983 149.125 9.28622C152.747 11.4085 156.358 13.5488 159.968 15.6922C161.653 16.6914 161.653 16.6914 163.372 17.7108C167.822 20.3507 172.271 22.9915 176.717 25.6378C185.328 30.7523 194.006 35.7371 202.714 40.6839C209.251 44.3998 215.77 48.144 222.241 51.9735C222.836 52.3249 223.431 52.6762 224.044 53.0383C226.959 54.7647 229.86 56.5087 232.751 58.2767C239.505 62.3972 239.505 62.3972 246.734 65.5594C250.685 67.0464 253.374 68.1813 255.968 71.6922C256.327 75.8921 255.971 80.0533 255.718 84.2547C255.451 89.0183 255.417 93.1452 256.968 97.6922C263.024 104.246 271.677 107.729 279.741 111.206C283.677 113.019 287.199 115.252 290.769 117.697C293.622 118.988 295.022 118.634 297.968 117.692C300.949 116.012 303.838 114.259 306.708 112.399C309.599 110.637 311.431 109.651 314.852 109.915C318.09 110.723 320.422 111.82 323.292 113.509C324.307 114.1 325.321 114.691 326.366 115.3C327.995 116.267 327.995 116.267 329.655 117.255C330.81 117.932 331.965 118.608 333.12 119.284C336.744 121.407 340.356 123.549 343.968 125.692C345.102 126.364 346.236 127.035 347.404 127.727C351.89 130.383 356.374 133.042 360.855 135.706C371.745 142.174 382.712 148.503 393.695 154.811C399.309 158.038 404.92 161.271 410.53 164.505C411.528 165.078 412.525 165.652 413.552 166.243C415.517 167.375 417.463 168.539 419.389 169.736C421.949 171.244 424.412 172.201 427.246 173.087C432.432 174.964 436.683 177.138 439.968 181.692C443.07 191.318 442.206 202.186 441.988 212.192C441.915 216.266 441.932 220.341 441.936 224.415C441.931 231.252 441.859 238.086 441.745 244.922C441.613 252.818 441.573 260.71 441.585 268.606C441.595 276.219 441.553 283.83 441.484 291.442C441.455 294.674 441.441 297.907 441.439 301.14C441.434 304.946 441.383 308.75 441.297 312.556C441.272 313.949 441.263 315.343 441.27 316.737C441.307 327.251 441.307 327.251 437.989 330.823C435.703 332.372 433.483 333.564 430.968 334.692C429.939 335.298 428.909 335.904 427.849 336.528C426.917 337.036 425.986 337.544 425.027 338.067C423.961 338.653 422.895 339.238 421.798 339.841C420.678 340.452 419.559 341.063 418.405 341.692C415.988 343.021 413.573 344.353 411.159 345.688C410.553 346.024 409.946 346.359 409.322 346.705C403.443 349.965 397.637 353.346 391.843 356.755C382.668 362.147 373.42 367.394 364.125 372.577C357.429 376.311 350.75 380.075 344.093 383.88C343.248 384.36 342.402 384.841 341.531 385.336C337.201 387.806 332.908 390.323 328.652 392.919C327.791 393.437 326.93 393.955 326.044 394.488C324.414 395.471 322.793 396.468 321.181 397.48C320.452 397.917 319.723 398.355 318.972 398.806C318.026 399.39 318.026 399.39 317.06 399.986C313.175 401.297 309.932 400.144 306.329 398.456C305.443 397.934 304.557 397.413 303.644 396.876C302.629 396.285 301.615 395.694 300.57 395.085C299.484 394.44 298.399 393.794 297.28 393.13C296.126 392.453 294.971 391.776 293.816 391.1C290.192 388.977 286.58 386.836 282.968 384.692C281.834 384.021 280.7 383.349 279.532 382.658C275.048 380.002 270.565 377.344 266.085 374.681C257.279 369.449 248.421 364.311 239.542 359.205C234.244 356.158 228.951 353.106 223.671 350.028C222.649 349.434 221.627 348.839 220.574 348.227C218.564 347.048 216.56 345.856 214.565 344.651C209.893 341.85 205.341 339.35 200.28 337.321C189.855 332.886 189.855 332.886 186.968 328.692C185.921 323.05 186.531 317.386 186.874 311.69C187.066 305.024 187.066 305.024 184.054 299.315C178.798 295.173 172.834 292.514 166.7 289.921C162.996 288.255 159.781 286.083 156.468 283.755C153.763 281.738 153.763 281.738 150.968 280.692C145.441 281.732 140.845 285.023 136.179 288.034C133.308 289.776 131.484 290.732 128.092 290.472C124.81 289.653 122.446 288.521 119.538 286.806C118.508 286.204 117.478 285.603 116.417 284.983C115.32 284.33 114.223 283.677 113.093 283.005C111.932 282.323 110.771 281.642 109.609 280.962C107.221 279.563 104.837 278.158 102.454 276.75C98.2435 274.262 94.0157 271.803 89.7878 269.343C86.8225 267.618 83.8597 265.888 80.8977 264.157C74.923 260.665 68.9457 257.179 62.968 253.692C60.968 252.526 58.968 251.359 56.968 250.192C55.978 249.615 54.988 249.037 53.968 248.442C50.968 246.692 47.968 244.942 44.968 243.192C44.0314 242.648 43.0948 242.105 42.1298 241.544C40.1438 240.381 38.1656 239.204 36.1994 238.007C31.1213 234.947 26.1649 232.281 20.6396 230.117C12.9922 226.894 4.97916 223.511 1.61329 215.446C-0.403062 206.327 -0.0839263 197.066 0.238137 187.787C0.35577 183.723 0.342396 179.66 0.346047 175.596C0.370908 168.781 0.486088 161.973 0.663048 155.16C0.866896 147.294 0.955994 139.434 0.977975 131.565C1.00162 123.162 1.09396 114.761 1.21435 106.359C1.24526 103.947 1.26499 101.535 1.28285 99.1225C1.31531 95.3318 1.39499 91.5448 1.51096 87.7558C1.54674 86.3686 1.56758 84.9809 1.57214 83.5932C1.6221 73.1332 1.6221 73.1332 4.95411 69.5657C7.23745 68.0184 9.4568 66.8227 11.968 65.6922C12.9974 65.0864 14.0268 64.4805 15.0874 63.8563C16.0186 63.3484 16.9499 62.8405 17.9094 62.3172C18.975 61.7319 20.0405 61.1466 21.1384 60.5435C22.2578 59.9326 23.3772 59.3217 24.5305 58.6922C26.9478 57.3638 29.3628 56.031 31.7766 54.6961C32.6863 54.1931 32.6863 54.1931 33.6143 53.6799C39.4929 50.419 45.2987 47.038 51.093 43.6297C59.1646 38.8843 67.2861 34.245 75.468 29.6922C83.8771 25.0124 92.2264 20.2436 100.53 15.3797C101.524 14.8002 102.518 14.2207 103.542 13.6236C107.982 11.0333 112.412 8.42953 116.816 5.77817C118.241 4.93661 119.667 4.09543 121.093 3.25473C121.714 2.87083 122.335 2.48693 122.974 2.0914C127.14 -0.335016 129.353 -0.431666 133.968 0.69223ZM124.148 26.2625C123.15 26.8219 122.153 27.3813 121.125 27.9576C120.042 28.5713 118.959 29.185 117.843 29.8172C116.72 30.4496 115.597 31.082 114.44 31.7335C105.952 36.5225 97.5362 41.4317 89.1335 46.3685C81.6394 50.7562 74.0711 54.9966 66.468 59.1922C53.8484 66.1565 41.3686 73.3455 28.968 80.6922C28.1106 80.9805 27.2533 81.2687 26.37 81.5657C23.4664 84.1363 23.5527 84.8755 23.2792 88.6308C23.2249 90.7884 23.1988 92.9468 23.1941 95.1051C23.1724 96.2826 23.1508 97.4601 23.1286 98.6733C23.0765 101.905 23.0475 105.136 23.0329 108.368C23.0227 110.389 23.0061 112.41 22.9874 114.432C22.9231 121.489 22.8881 128.546 22.8767 135.603C22.8652 142.171 22.7862 148.737 22.6762 155.304C22.585 160.949 22.5442 166.594 22.5415 172.24C22.5389 175.609 22.5157 178.975 22.4407 182.344C21.5094 195.445 21.5094 195.445 25.2223 207.57C28.64 210.837 32.5095 212.207 36.968 213.692C38.8844 214.767 40.7814 215.878 42.6438 217.044C44.5217 218.137 46.4007 219.228 48.2805 220.317C50.3808 221.539 52.481 222.76 54.5813 223.981C56.1699 224.904 56.1699 224.904 57.7907 225.846C62.8535 228.788 67.9105 231.741 72.968 234.692C74.9484 235.847 76.9289 237.002 78.9094 238.157C83.1062 240.605 87.3012 243.056 91.4953 245.509C93.105 246.449 93.105 246.449 94.7473 247.409C96.7868 248.601 98.8259 249.794 100.864 250.987C102.26 251.802 102.26 251.802 103.683 252.634C104.488 253.105 105.294 253.576 106.124 254.062C108.621 255.493 111.129 256.898 113.646 258.294C114.86 258.968 114.86 258.968 116.099 259.656C116.716 259.998 117.333 260.34 117.968 260.692C117.971 260.101 117.975 259.509 117.978 258.9C118.059 244.494 118.151 230.088 118.256 215.681C118.306 208.715 118.352 201.748 118.39 194.781C118.426 188.057 118.473 181.333 118.526 174.609C118.545 172.045 118.56 169.48 118.571 166.915C118.588 163.322 118.617 159.729 118.649 156.135C118.651 155.076 118.653 154.016 118.656 152.925C118.717 147.479 119.027 142.807 120.968 137.692C122.834 136.018 122.834 136.018 125.132 134.876C125.994 134.429 126.857 133.983 127.745 133.522C128.685 133.063 129.625 132.603 130.593 132.13C132.608 131.09 134.621 130.047 136.632 129.001C138.201 128.192 138.201 128.192 139.801 127.368C144.954 124.641 149.955 121.665 154.968 118.692C162.563 114.218 170.208 109.874 177.968 105.692C187.985 100.294 197.808 94.5937 207.613 88.8211C213.643 85.2796 219.694 81.7867 225.968 78.6922C225.413 78.3822 224.857 78.0722 224.285 77.7528C211.502 70.6034 198.834 63.2834 186.25 55.7892C176.239 49.8342 166.162 44.0006 156.062 38.2C152.093 35.9205 148.135 33.6246 144.187 31.3094C143.301 30.791 142.414 30.2725 141.501 29.7384C139.857 28.7755 138.215 27.8094 136.575 26.8394C130.967 23.5616 129.722 23.1266 124.148 26.2625ZM218.05 106.263C216.558 107.102 216.558 107.102 215.036 107.958C213.961 108.572 212.887 109.185 211.78 109.817C210.666 110.447 209.551 111.078 208.402 111.727C199.823 116.592 191.308 121.567 182.806 126.566C175.196 131.023 167.496 135.291 159.711 139.435C158.077 140.311 156.456 141.213 154.851 142.143C151.968 143.692 151.968 143.692 148.668 144.961C144.789 146.716 141.592 148.271 138.968 151.692C136.486 158.534 137.238 166.324 137.382 173.481C137.383 175.63 137.38 177.779 137.373 179.928C137.372 184.423 137.416 188.915 137.493 193.409C137.589 199.165 137.588 204.916 137.555 210.672C137.538 215.106 137.566 219.539 137.608 223.973C137.624 226.095 137.628 228.217 137.619 230.338C137.137 241.407 137.137 241.407 140.885 251.388C144.217 253.811 146.429 254.873 150.573 254.387C153.81 253.448 156.452 251.919 159.37 250.235C159.971 249.891 160.571 249.547 161.189 249.192C162.454 248.465 163.717 247.734 164.978 247.001C166.892 245.887 168.811 244.784 170.732 243.682C174.158 241.708 177.579 239.73 180.968 237.692C182.094 237.185 183.219 236.678 184.379 236.156C187.146 234.016 187.146 234.016 187.353 231.427C187.361 228.401 187.169 225.435 186.929 222.419C186.82 220.132 186.72 217.845 186.627 215.558C186.575 214.371 186.524 213.185 186.471 211.963C185.512 184.61 185.512 184.61 189.974 178.082C195.242 172.987 201.614 170.877 208.539 168.844C214.471 166.851 219.626 163.526 224.968 160.317C226.902 159.219 228.839 158.128 230.78 157.044C232.176 156.26 233.572 155.476 234.968 154.692C235.197 148.394 235.354 142.097 235.462 135.796C235.508 133.654 235.569 131.512 235.647 129.371C235.756 126.287 235.807 123.207 235.847 120.122C235.893 119.169 235.94 118.215 235.988 117.233C235.991 113.145 235.968 110.703 233.01 107.712C227.25 103.716 224.303 102.724 218.05 106.263ZM255.968 122.692C255.968 128.962 255.968 135.232 255.968 141.692C260.072 140.051 263.505 138.308 267.28 136.067C268.349 135.436 269.418 134.804 270.519 134.153C271.327 133.671 272.135 133.189 272.968 132.692C269.702 129.995 266.414 127.619 262.78 125.442C261.921 124.921 261.061 124.401 260.175 123.864C258.09 122.536 258.09 122.536 255.968 122.692ZM328.968 142.692C328.965 143.285 328.961 143.879 328.958 144.49C328.877 158.929 328.785 173.368 328.68 187.807C328.63 194.789 328.584 201.772 328.546 208.754C328.51 215.491 328.463 222.228 328.41 228.965C328.391 231.537 328.376 234.109 328.365 236.681C328.348 240.279 328.319 243.878 328.287 247.476C328.285 248.543 328.282 249.61 328.28 250.709C328.269 251.692 328.258 252.674 328.246 253.687C328.238 254.963 328.238 254.963 328.23 256.265C327.929 259.051 327.183 261.174 325.968 263.692C324.102 265.139 324.102 265.139 321.804 266.313C320.942 266.766 320.079 267.22 319.191 267.686C318.251 268.163 317.311 268.639 316.343 269.13C314.328 270.188 312.315 271.249 310.304 272.313C309.258 272.865 308.212 273.416 307.135 273.985C302 276.753 296.988 279.722 291.968 282.692C284.372 287.166 276.728 291.51 268.968 295.692C258.951 301.09 249.128 306.791 239.323 312.563C237.969 313.354 237.969 313.354 236.587 314.16C234.867 315.166 233.153 316.183 231.447 317.212C230.666 317.671 229.886 318.13 229.081 318.602C228.405 319.007 227.729 319.412 227.032 319.829C224.51 320.884 222.679 320.934 219.968 320.692C217.363 319.345 217.363 319.345 214.78 317.63C212.281 315.927 212.281 315.927 209.968 314.692C209.308 315.022 208.648 315.352 207.968 315.692C219.082 322.682 230.439 329.252 241.791 335.846C246.854 338.788 251.911 341.741 256.968 344.692C258.961 345.855 260.955 347.018 262.948 348.181C268.042 351.152 273.135 354.124 278.226 357.098C280.243 358.274 282.26 359.448 284.28 360.618C289.052 363.386 293.795 366.186 298.488 369.087C299.351 369.612 300.215 370.137 301.105 370.678C302.716 371.658 304.317 372.655 305.907 373.67C310.07 376.211 310.07 376.211 314.816 376.364C319.552 373.852 324.179 371.195 328.78 368.442C337.349 363.378 345.959 358.409 354.655 353.567C364.808 347.908 374.914 342.176 384.997 336.393C388.46 334.411 391.927 332.434 395.394 330.458C397.324 329.357 399.254 328.256 401.184 327.156C402.448 326.435 403.713 325.714 404.978 324.994C406.748 323.986 408.518 322.976 410.288 321.966C411.824 321.09 411.824 321.09 413.39 320.198C415.287 319.09 417.141 317.91 418.968 316.692C419.452 314.484 419.452 314.484 419.416 311.874C419.439 310.856 419.462 309.839 419.486 308.79C419.495 307.669 419.505 306.548 419.515 305.393C419.536 304.216 419.558 303.038 419.579 301.825C419.644 297.914 419.684 294.002 419.718 290.091C419.731 288.743 419.745 287.395 419.759 286.048C419.814 280.439 419.862 274.831 419.888 269.222C419.925 261.191 420.007 253.163 420.153 245.134C420.252 239.484 420.301 233.836 420.313 228.186C420.321 224.813 420.351 221.443 420.434 218.071C421.403 204.958 421.403 204.958 417.717 192.813C414.3 189.543 410.429 188.176 405.968 186.692C404.051 185.618 402.154 184.507 400.292 183.341C398.414 182.248 396.535 181.157 394.655 180.067C392.555 178.846 390.455 177.625 388.355 176.403C387.296 175.788 386.236 175.173 385.145 174.539C381.074 172.173 377.006 169.8 372.939 167.426C370.964 166.273 368.988 165.121 367.012 163.97C361.769 160.914 356.531 157.849 351.3 154.77C349.663 153.809 349.663 153.809 347.993 152.829C345.901 151.6 343.809 150.368 341.72 149.134C340.777 148.581 339.834 148.028 338.863 147.458C337.623 146.727 337.623 146.727 336.358 145.982C333.948 144.681 331.516 143.689 328.968 142.692ZM291.096 145.731C290.061 146.325 289.026 146.92 287.96 147.532C287.394 147.851 286.828 148.17 286.245 148.499C284.434 149.526 282.639 150.577 280.843 151.63C279.659 152.304 278.474 152.976 277.288 153.647C274.937 154.978 272.629 156.361 270.328 157.776C266.968 159.692 266.968 159.692 263.638 160.86C259.893 162.377 258.246 163.315 255.968 166.692C254.732 173.893 255.644 181.401 256.088 188.648C257.527 215.622 257.527 215.622 252.984 222.289C247.709 227.389 241.33 229.505 234.397 231.54C228.465 233.533 223.31 236.858 217.968 240.067C216.034 241.165 214.097 242.257 212.155 243.341C211.345 243.796 210.534 244.252 209.698 244.721C208.842 245.202 208.842 245.202 207.968 245.692C207.645 251.812 207.41 257.926 207.254 264.052C207.189 266.132 207.1 268.212 206.987 270.29C205.921 281.321 205.921 281.321 209.205 291.465C212.613 294.685 216.427 296.508 220.968 297.692C224.738 297.425 227.434 296.081 230.679 294.208C232.033 293.434 232.033 293.434 233.414 292.644C234.381 292.083 235.347 291.521 236.343 290.942C238.43 289.745 240.517 288.549 242.605 287.352C243.667 286.74 244.73 286.128 245.825 285.497C249.666 283.291 253.523 281.114 257.382 278.941C266.62 273.74 275.837 268.503 285.046 263.252C286.269 262.555 287.491 261.859 288.714 261.164C290.434 260.185 292.152 259.204 293.87 258.223C294.855 257.662 295.84 257.101 296.854 256.522C298.396 255.616 298.396 255.616 299.968 254.692C300.634 254.381 301.299 254.07 301.985 253.749C306.246 251.597 306.246 251.597 308.719 247.706C309.019 245.213 309.061 242.826 309.019 240.316C309.042 238.91 309.042 238.91 309.066 237.476C309.107 234.381 309.088 231.291 309.066 228.196C309.074 226.043 309.084 223.89 309.096 221.736C309.112 217.224 309.099 212.714 309.066 208.202C309.026 202.422 309.063 196.647 309.122 190.868C309.158 186.421 309.152 181.975 309.133 177.528C309.13 175.398 309.14 173.268 309.164 171.138C309.192 168.156 309.162 165.18 309.117 162.198C309.136 161.321 309.156 160.443 309.177 159.539C309.065 155.73 308.867 153.565 306.064 150.843C299.036 145.815 299.036 145.815 291.096 145.731ZM228.437 181.72C227.317 182.347 226.196 182.974 225.042 183.62C224.456 183.95 223.87 184.279 223.266 184.619C221.477 185.625 219.686 186.626 217.894 187.628C212.634 190.243 212.634 190.243 207.968 193.692C207.88 195.765 207.861 197.84 207.87 199.915C207.874 201.175 207.877 202.435 207.88 203.733C207.888 205.074 207.897 206.414 207.905 207.755C207.911 209.099 207.915 210.444 207.919 211.788C207.931 215.089 207.947 218.391 207.968 221.692C208.739 221.295 209.509 220.898 210.303 220.49C219.816 215.65 219.816 215.65 224.421 214.122C228.8 212.457 232.471 210.818 234.968 206.692C236.879 197.544 235.873 187.923 234.968 178.692C232.757 178.692 230.271 180.692 228.437 181.72ZM177.843 262.692C177.184 263.074 176.526 263.455 175.847 263.848C174.218 264.793 172.593 265.742 170.968 266.692C173.59 269.671 176.672 271.413 180.093 273.38C181.168 274.002 182.243 274.625 183.351 275.266C185.618 276.772 185.618 276.772 186.968 276.692C186.968 270.752 186.968 264.812 186.968 258.692C183.526 258.692 180.75 260.988 177.843 262.692Z" fill="#66A800"/>
<path d="M255.968 97.6923C263.774 101.418 271.181 105.68 278.593 110.13C280.981 111.556 283.371 112.979 285.761 114.403C286.362 114.762 286.962 115.12 287.581 115.489C293.667 119.116 299.783 122.691 305.906 126.255C306.844 126.801 307.783 127.348 308.75 127.911C309.656 128.438 310.562 128.965 311.495 129.509C312.326 130.025 313.156 130.541 314.012 131.073C316.903 132.795 316.903 132.795 320.084 133.601C323.871 134.962 326.739 136.305 328.968 139.692C331.35 148.16 330.405 157.536 330.21 166.231C330.193 168.877 330.181 171.523 330.173 174.169C330.149 179.71 330.082 185.248 329.983 190.788C329.844 198.593 329.786 206.397 329.742 214.203C329.706 220.275 329.647 226.347 329.585 232.419C329.572 233.713 329.56 235.006 329.546 236.339C329.504 239.997 329.448 243.654 329.385 247.312C329.374 248.396 329.362 249.479 329.35 250.596C329.33 251.594 329.31 252.592 329.289 253.62C329.269 254.916 329.269 254.916 329.248 256.238C328.807 260.107 327.965 262.896 324.887 265.355C324.032 265.839 323.177 266.323 322.296 266.821C321.333 267.375 320.37 267.928 319.378 268.499C317.814 269.368 317.814 269.368 316.218 270.255C315.139 270.869 314.06 271.483 312.948 272.116C305.107 276.559 297.195 280.874 289.262 285.151C281.389 289.413 273.673 293.922 265.96 298.464C258.209 303.011 250.368 307.364 242.448 311.61C241.194 312.285 241.194 312.285 239.913 312.974C239.1 313.411 238.287 313.847 237.449 314.298C233.974 316.251 230.627 318.398 227.288 320.573C224.534 321.902 222.993 322.098 219.968 321.692C217.518 320.553 217.518 320.553 214.925 318.938C213.947 318.339 212.969 317.739 211.961 317.121C210.911 316.464 209.862 315.807 208.781 315.13C206.524 313.745 204.266 312.362 202.007 310.981C201.427 310.626 200.848 310.27 200.25 309.903C194.121 306.15 187.894 302.573 181.656 299.005C170.674 292.707 159.791 286.258 148.968 279.692C152.736 276.537 156.678 273.869 160.906 271.38C161.5 271.008 162.095 270.636 162.708 270.253C166.993 267.738 169.223 267.484 173.968 268.692C177.026 270.192 177.026 270.192 180.265 272.122C180.852 272.469 181.439 272.815 182.044 273.172C183.295 273.913 184.543 274.658 185.789 275.407C187.732 276.576 189.682 277.732 191.634 278.885C197.37 282.285 203.071 285.731 208.702 289.302C209.523 289.819 210.343 290.336 211.188 290.869C212.667 291.809 214.139 292.762 215.6 293.731C219.209 296.111 219.209 296.111 223.386 296.454C226.094 295.655 228.235 294.619 230.679 293.208C231.582 292.692 232.484 292.176 233.414 291.644C234.381 291.083 235.347 290.521 236.343 289.942C238.43 288.745 240.517 287.549 242.605 286.352C243.667 285.74 244.73 285.128 245.825 284.497C250.586 281.763 255.372 279.073 260.156 276.38C272.453 269.436 284.711 262.424 296.968 255.409C300.301 253.502 303.634 251.597 306.968 249.692C307.479 237.272 307.869 224.853 308.108 212.424C308.222 206.651 308.377 200.885 308.628 195.116C310.82 171.538 310.82 171.538 304.993 149.415C300.06 144.54 294.404 142.318 287.799 140.5C283.757 139.347 280.194 137.511 276.476 135.583C275.224 134.978 273.972 134.374 272.719 133.772C257.332 126.114 257.332 126.114 254.691 119.491C253.483 112.102 254.318 104.952 255.968 97.6923Z" fill="#2D5F6C"/>
<path d="M226.968 79.6923C230.64 81.0144 233.377 82.7618 235.968 85.6923C237.068 89.8684 236.826 93.7855 236.531 98.0673C236.47 99.7437 236.47 99.7437 236.408 101.454C236.302 104.205 236.154 106.946 235.968 109.692C233.219 108.643 230.918 107.658 228.468 106.005C225.329 104.357 224.325 104.74 220.968 105.692C218.49 106.889 218.49 106.889 216.003 108.431C215.05 108.997 214.097 109.564 213.115 110.147C212.097 110.76 211.079 111.373 210.031 112.005C202.086 116.72 194.106 121.319 185.968 125.692C176.979 130.535 168.142 135.608 159.349 140.798C158.415 141.348 157.481 141.899 156.519 142.466C155.711 142.944 154.903 143.423 154.071 143.916C149.411 146.583 144.688 149.133 139.968 151.692C139.736 164.235 139.559 176.778 139.45 189.323C139.398 195.148 139.327 200.972 139.214 206.797C139.105 212.418 139.045 218.039 139.019 223.661C139.001 225.806 138.965 227.95 138.911 230.094C138.057 241.451 138.057 241.451 142.261 251.37C144.831 252.935 147.06 253.955 149.968 254.692C146.56 258.182 142.756 260.491 138.593 263.005C137.838 263.485 137.082 263.965 136.304 264.46C130.718 267.824 130.718 267.824 127.367 267.235C126.575 266.726 125.784 266.217 124.968 265.692C123.755 264.987 122.538 264.289 121.318 263.596C119.66 262.654 119.66 262.654 117.968 261.692C117.921 246.558 117.886 231.424 117.864 216.29C117.854 209.263 117.84 202.236 117.817 195.208C117.795 188.426 117.784 181.644 117.778 174.862C117.775 172.275 117.767 169.687 117.757 167.1C117.742 163.476 117.74 159.852 117.741 156.227C117.73 154.624 117.73 154.624 117.719 152.988C117.734 147.508 117.989 142.832 119.968 137.692C122.049 135.803 122.049 135.803 124.64 134.368C125.603 133.821 126.566 133.274 127.558 132.71C129.122 131.866 129.122 131.866 130.718 131.005C131.797 130.4 132.876 129.794 133.988 129.171C137.302 127.32 140.632 125.502 143.968 123.692C145.848 122.665 147.729 121.638 149.609 120.61C152.294 119.146 154.982 117.685 157.674 116.233C165.548 111.973 173.263 107.463 180.976 102.921C188.727 98.3738 196.569 94.0204 204.488 89.7743C205.324 89.3244 206.161 88.8746 207.023 88.411C208.242 87.7555 208.242 87.7555 209.487 87.0868C212.962 85.1339 216.309 82.9867 219.648 80.8114C222.386 79.4908 223.96 79.326 226.968 79.6923Z" fill="#2D5F6C"/>
</svg>
